%TF.GenerationSoftware,KiCad,Pcbnew,7.0.7*%
%TF.CreationDate,2024-01-11T22:16:13+01:00*%
%TF.ProjectId,NCBalOPHeadAmp,4e434261-6c4f-4504-9865-6164416d702e,rev?*%
%TF.SameCoordinates,Original*%
%TF.FileFunction,Copper,L3,Inr*%
%TF.FilePolarity,Positive*%
%FSLAX46Y46*%
G04 Gerber Fmt 4.6, Leading zero omitted, Abs format (unit mm)*
G04 Created by KiCad (PCBNEW 7.0.7) date 2024-01-11 22:16:13*
%MOMM*%
%LPD*%
G01*
G04 APERTURE LIST*
G04 Aperture macros list*
%AMRoundRect*
0 Rectangle with rounded corners*
0 $1 Rounding radius*
0 $2 $3 $4 $5 $6 $7 $8 $9 X,Y pos of 4 corners*
0 Add a 4 corners polygon primitive as box body*
4,1,4,$2,$3,$4,$5,$6,$7,$8,$9,$2,$3,0*
0 Add four circle primitives for the rounded corners*
1,1,$1+$1,$2,$3*
1,1,$1+$1,$4,$5*
1,1,$1+$1,$6,$7*
1,1,$1+$1,$8,$9*
0 Add four rect primitives between the rounded corners*
20,1,$1+$1,$2,$3,$4,$5,0*
20,1,$1+$1,$4,$5,$6,$7,0*
20,1,$1+$1,$6,$7,$8,$9,0*
20,1,$1+$1,$8,$9,$2,$3,0*%
G04 Aperture macros list end*
%TA.AperFunction,ComponentPad*%
%ADD10R,1.700000X1.700000*%
%TD*%
%TA.AperFunction,ComponentPad*%
%ADD11O,1.700000X1.700000*%
%TD*%
%TA.AperFunction,ComponentPad*%
%ADD12O,1.100000X1.800000*%
%TD*%
%TA.AperFunction,ComponentPad*%
%ADD13O,1.800000X1.100000*%
%TD*%
%TA.AperFunction,ComponentPad*%
%ADD14RoundRect,0.250000X-0.600000X-0.725000X0.600000X-0.725000X0.600000X0.725000X-0.600000X0.725000X0*%
%TD*%
%TA.AperFunction,ComponentPad*%
%ADD15O,1.700000X1.950000*%
%TD*%
%TA.AperFunction,ComponentPad*%
%ADD16O,2.200000X4.000000*%
%TD*%
%TA.AperFunction,ComponentPad*%
%ADD17O,4.000000X2.200000*%
%TD*%
%TA.AperFunction,ComponentPad*%
%ADD18R,2.200000X4.000000*%
%TD*%
%TA.AperFunction,ViaPad*%
%ADD19C,0.800000*%
%TD*%
%TA.AperFunction,Conductor*%
%ADD20C,0.500000*%
%TD*%
%TA.AperFunction,Conductor*%
%ADD21C,1.500000*%
%TD*%
G04 APERTURE END LIST*
D10*
%TO.N,/In_pre_R_+*%
%TO.C,J12*%
X158115000Y-79629000D03*
D11*
%TO.N,/In_R_unbal_filtered*%
X158115000Y-77089000D03*
%TO.N,/In_pre_R_+*%
X160655000Y-79629000D03*
%TO.N,/In_R+_bal_filtered*%
X160655000Y-77089000D03*
%TO.N,/In_pre_R_-*%
X163195000Y-79629000D03*
%TO.N,/In_R-_bal_filtered*%
X163195000Y-77089000D03*
%TO.N,GND*%
X165735000Y-79629000D03*
%TO.N,N/C*%
X165735000Y-77089000D03*
%TD*%
D10*
%TO.N,/Out_L_+*%
%TO.C,J6*%
X153282800Y-135524000D03*
D11*
%TO.N,/Out_L_-*%
X153282800Y-138064000D03*
%TO.N,/Out_R_+*%
X153282800Y-140604000D03*
%TO.N,/Out_R_-*%
X153282800Y-143144000D03*
%TO.N,GND*%
X153282800Y-145684000D03*
%TD*%
D12*
%TO.N,GND*%
%TO.C,J7*%
X141883800Y-147124000D03*
X148683800Y-147124000D03*
D13*
%TO.N,/Out_L_+*%
X142883800Y-131774000D03*
X147883800Y-131774000D03*
D12*
%TO.N,/Out_L_-*%
X141883800Y-139514000D03*
X148683800Y-139514000D03*
%TO.N,/Out_R_+*%
X141883800Y-142054000D03*
X148683800Y-142054000D03*
%TO.N,/Out_R_-*%
X141883800Y-144594000D03*
X148683800Y-144594000D03*
%TO.N,Net-(J9-Pin_2)*%
X149563800Y-134974000D03*
%TO.N,Net-(J9-Pin_1)*%
X141013800Y-134974000D03*
%TD*%
D14*
%TO.N,VEE*%
%TO.C,J4*%
X113364000Y-51500000D03*
D15*
X115864000Y-51500000D03*
%TO.N,GND*%
X118364000Y-51500000D03*
%TO.N,VCC*%
X120864000Y-51500000D03*
X123364000Y-51500000D03*
%TD*%
D10*
%TO.N,/In_pre_L_+*%
%TO.C,J10*%
X134757000Y-79634000D03*
D11*
%TO.N,/In_L_unbal_filtered*%
X134757000Y-77094000D03*
%TO.N,/In_pre_L_+*%
X137297000Y-79634000D03*
%TO.N,/In_L+_bal_filtered*%
X137297000Y-77094000D03*
%TO.N,/In_pre_L_-*%
X139837000Y-79634000D03*
%TO.N,/In_L-_bal_filtered*%
X139837000Y-77094000D03*
%TO.N,GND*%
X142377000Y-79634000D03*
%TO.N,N/C*%
X142377000Y-77094000D03*
%TD*%
D12*
%TO.N,GND*%
%TO.C,J1*%
X158086000Y-51250000D03*
X151286000Y-51250000D03*
D13*
%TO.N,/In_L+_bal*%
X157086000Y-66600000D03*
X152086000Y-66600000D03*
D12*
%TO.N,/In_L-_bal*%
X158086000Y-58860000D03*
X151286000Y-58860000D03*
%TO.N,/In_R+_bal*%
X158086000Y-56320000D03*
X151286000Y-56320000D03*
%TO.N,/In_R-_bal*%
X158086000Y-53780000D03*
X151286000Y-53780000D03*
%TO.N,Net-(J8-Pin_2)*%
X150406000Y-63400000D03*
%TO.N,Net-(J8-Pin_1)*%
X158956000Y-63400000D03*
%TD*%
D16*
%TO.N,/In_R_unbal*%
%TO.C,J11*%
X139889500Y-59695000D03*
%TO.N,unconnected-(J11-PadRN)*%
X137189500Y-58495000D03*
D17*
%TO.N,GND*%
X134689500Y-51695000D03*
D18*
%TO.N,/In_L_unbal*%
X130089500Y-55595000D03*
D17*
%TO.N,unconnected-(J11-PadTN)*%
X130589500Y-62895000D03*
%TD*%
D10*
%TO.N,/Out_pre_R_+*%
%TO.C,J2*%
X181229800Y-96901000D03*
D11*
%TO.N,/In_out_R_+*%
X181229800Y-99441000D03*
%TO.N,/Out_pre_R_-*%
X178689800Y-96901000D03*
%TO.N,/In_out_R_-*%
X178689800Y-99441000D03*
%TD*%
D10*
%TO.N,Net-(J8-Pin_1)*%
%TO.C,J8*%
X156086000Y-70417000D03*
D11*
%TO.N,Net-(J8-Pin_2)*%
X153546000Y-70417000D03*
%TD*%
D10*
%TO.N,/Out_pre_L_+*%
%TO.C,J5*%
X122169800Y-96901000D03*
D11*
%TO.N,/In_out_L_+*%
X122169800Y-99441000D03*
%TO.N,/Out_pre_L_-*%
X119629800Y-96901000D03*
%TO.N,/In_out_L_-*%
X119629800Y-99441000D03*
%TD*%
D10*
%TO.N,Net-(J9-Pin_1)*%
%TO.C,J9*%
X144164800Y-127957000D03*
D11*
%TO.N,Net-(J9-Pin_2)*%
X146704800Y-127957000D03*
%TD*%
D19*
%TO.N,VCC*%
X132980500Y-112712800D03*
X133107500Y-132524800D03*
X170865500Y-102992300D03*
X170357500Y-134806100D03*
X170357500Y-105088100D03*
X111286000Y-134806100D03*
X170379000Y-124773100D03*
X192151000Y-132524800D03*
X158750000Y-104775000D03*
X182753000Y-76454000D03*
X170331500Y-114867100D03*
X191829300Y-104775000D03*
X115570000Y-67564000D03*
X120871800Y-83566000D03*
X123411800Y-76581000D03*
X111307500Y-124773100D03*
X192024000Y-122491800D03*
X111286000Y-105088100D03*
X192024000Y-112712800D03*
X179892800Y-83566000D03*
X132980500Y-122491800D03*
X175403600Y-90741200D03*
X132785800Y-104775000D03*
X111260000Y-114867100D03*
%TO.N,GND*%
X176022000Y-112776000D03*
X140716000Y-63754000D03*
X125095000Y-100965000D03*
X136499800Y-114554000D03*
X126365000Y-100965000D03*
X184420600Y-89471200D03*
X179832000Y-114046000D03*
X124407700Y-126746600D03*
X115570000Y-118745000D03*
X184420600Y-81597200D03*
X115570000Y-122555000D03*
X176276000Y-122682000D03*
X127000000Y-142875000D03*
X174498000Y-112776000D03*
X179832000Y-112776000D03*
X175260000Y-119126000D03*
X176276000Y-129032000D03*
X162919500Y-61219500D03*
X175403600Y-89471200D03*
X124407700Y-136652600D03*
X121285000Y-121285000D03*
X116255600Y-81724200D03*
X121285000Y-123825000D03*
X124407700Y-116840600D03*
X183451200Y-136652600D03*
X121285000Y-135255000D03*
X116840000Y-118745000D03*
X114300000Y-100965000D03*
X115570000Y-100965000D03*
X124407700Y-106934600D03*
X195543300Y-134239000D03*
X145034000Y-50419000D03*
X175260000Y-122682000D03*
X121285000Y-136525000D03*
X121285000Y-107315000D03*
X183451200Y-106934600D03*
X127000000Y-65188500D03*
X175276600Y-81724200D03*
X176276000Y-132334000D03*
X176276000Y-119126000D03*
X115570000Y-132715000D03*
X162356500Y-117216300D03*
X136499800Y-134239000D03*
X121285000Y-137795000D03*
X116840000Y-132715000D03*
X183451200Y-116840600D03*
X147574000Y-61303500D03*
X121285000Y-122555000D03*
X175260000Y-129032000D03*
X195543300Y-114554000D03*
X183451200Y-126746600D03*
X116382600Y-89471200D03*
X125399600Y-89471200D03*
X136499800Y-124333000D03*
X125730000Y-142875000D03*
X116840000Y-122555000D03*
X175260000Y-132334000D03*
X195543300Y-124333000D03*
X162419700Y-107247100D03*
X116840000Y-100965000D03*
X113030000Y-100965000D03*
X179832000Y-115316000D03*
X162419700Y-127059100D03*
X162419700Y-136965100D03*
X116840000Y-128905000D03*
X179832000Y-107442000D03*
X125399600Y-81597200D03*
X115570000Y-128905000D03*
X127635000Y-100965000D03*
X121285000Y-113030000D03*
%TO.N,VEE*%
X105952000Y-110041100D03*
X120700600Y-79946200D03*
X113030000Y-67564000D03*
X113233200Y-72339200D03*
X110693200Y-69900800D03*
X185674000Y-136588800D03*
X185674000Y-109855000D03*
X184420600Y-90741200D03*
X165023500Y-110041100D03*
X165023500Y-139886100D03*
X185674000Y-126682800D03*
X126630500Y-126682800D03*
X105926000Y-119947100D03*
X126630500Y-116776800D03*
X165045000Y-129853100D03*
X105973500Y-129853100D03*
X142748000Y-109855000D03*
X185674000Y-116776800D03*
X126630500Y-136588800D03*
X126630500Y-109855000D03*
X105952000Y-139886100D03*
X164997500Y-119947100D03*
%TO.N,/In_R_unbal_filtered*%
X147320000Y-71882000D03*
X145415000Y-69977000D03*
%TO.N,Net-(U601B--)*%
X125316800Y-79464500D03*
X125316800Y-78015500D03*
%TO.N,Net-(U701B--)*%
X184337800Y-79464500D03*
X184337800Y-78015500D03*
%TD*%
D20*
%TO.N,VCC*%
X175403600Y-90741200D02*
X175403600Y-100042000D01*
X133234500Y-112458800D02*
X132980500Y-112712800D01*
X123411800Y-75405800D02*
X115570000Y-67564000D01*
D21*
X108458000Y-74676000D02*
X108458000Y-102260100D01*
X108458000Y-102260100D02*
X111286000Y-105088100D01*
D20*
X175403600Y-100042000D02*
X170357500Y-105088100D01*
X123411800Y-76581000D02*
X123411800Y-75405800D01*
D21*
X115570000Y-67564000D02*
X108458000Y-74676000D01*
X170044400Y-104775000D02*
X170357500Y-105088100D01*
X158750000Y-104775000D02*
X170044400Y-104775000D01*
X132785800Y-104775000D02*
X158750000Y-104775000D01*
D20*
X192278000Y-112458800D02*
X192024000Y-112712800D01*
D21*
%TO.N,VEE*%
X164837400Y-109855000D02*
X165023500Y-110041100D01*
X106758000Y-108507000D02*
X105791000Y-109474000D01*
D20*
X185102200Y-90741200D02*
X193294000Y-98933000D01*
D21*
X106758000Y-73836000D02*
X106758000Y-108507000D01*
X110693200Y-69900800D02*
X106758000Y-73836000D01*
D20*
X120700600Y-79946200D02*
X120700600Y-79806600D01*
D21*
X126630500Y-109855000D02*
X142748000Y-109855000D01*
X142748000Y-109855000D02*
X164837400Y-109855000D01*
D20*
X184420600Y-90741200D02*
X185102200Y-90741200D01*
D21*
X113030000Y-67564000D02*
X110693200Y-69900800D01*
D20*
X120700600Y-79806600D02*
X113233200Y-72339200D01*
X193294000Y-98933000D02*
X193294000Y-108712000D01*
%TD*%
%TA.AperFunction,Conductor*%
%TO.N,VEE*%
G36*
X179089494Y-107969685D02*
G01*
X179114603Y-107991026D01*
X179189313Y-108074000D01*
X179226129Y-108114888D01*
X179379265Y-108226148D01*
X179379270Y-108226151D01*
X179552192Y-108303142D01*
X179552197Y-108303144D01*
X179737354Y-108342500D01*
X179737355Y-108342500D01*
X179926644Y-108342500D01*
X179926646Y-108342500D01*
X180111803Y-108303144D01*
X180284730Y-108226151D01*
X180437871Y-108114888D01*
X180549395Y-107991027D01*
X180608882Y-107954379D01*
X180641545Y-107950000D01*
X194059000Y-107950000D01*
X194126039Y-107969685D01*
X194171794Y-108022489D01*
X194183000Y-108074000D01*
X194183000Y-111636000D01*
X194163315Y-111703039D01*
X194110511Y-111748794D01*
X194059000Y-111760000D01*
X192575482Y-111760000D01*
X192529701Y-111751239D01*
X192473569Y-111728939D01*
X192473567Y-111728938D01*
X192473566Y-111728938D01*
X192473564Y-111728937D01*
X192473562Y-111728937D01*
X192299971Y-111703510D01*
X192125203Y-111718801D01*
X192038467Y-111747542D01*
X192019866Y-111753706D01*
X191980864Y-111760000D01*
X163954000Y-111760000D01*
X163886961Y-111740315D01*
X163841206Y-111687511D01*
X163830000Y-111636000D01*
X163830000Y-108074000D01*
X163849685Y-108006961D01*
X163902489Y-107961206D01*
X163954000Y-107950000D01*
X179022455Y-107950000D01*
X179089494Y-107969685D01*
G37*
%TD.AperFunction*%
%TD*%
%TA.AperFunction,Conductor*%
%TO.N,VCC*%
G36*
X192475039Y-102889685D02*
G01*
X192520794Y-102942489D01*
X192532000Y-102994000D01*
X192532000Y-106556000D01*
X192512315Y-106623039D01*
X192459511Y-106668794D01*
X192408000Y-106680000D01*
X184405408Y-106680000D01*
X184338369Y-106660315D01*
X184292614Y-106607511D01*
X184287477Y-106594317D01*
X184278379Y-106566316D01*
X184183733Y-106402384D01*
X184057071Y-106261712D01*
X184057070Y-106261711D01*
X183903934Y-106150451D01*
X183903929Y-106150448D01*
X183731007Y-106073457D01*
X183731002Y-106073455D01*
X183585201Y-106042465D01*
X183545846Y-106034100D01*
X183356554Y-106034100D01*
X183324097Y-106040998D01*
X183171397Y-106073455D01*
X183171392Y-106073457D01*
X182998470Y-106150448D01*
X182998465Y-106150451D01*
X182845329Y-106261711D01*
X182718667Y-106402384D01*
X182638349Y-106541500D01*
X182624020Y-106566318D01*
X182614923Y-106594317D01*
X182575487Y-106651993D01*
X182511128Y-106679192D01*
X182496992Y-106680000D01*
X180355509Y-106680000D01*
X180290471Y-106660902D01*
X180290359Y-106661098D01*
X180289554Y-106660633D01*
X180288470Y-106660315D01*
X180285577Y-106658337D01*
X180284733Y-106657850D01*
X180111807Y-106580857D01*
X180111802Y-106580855D01*
X179966000Y-106549865D01*
X179926646Y-106541500D01*
X179737354Y-106541500D01*
X179704897Y-106548398D01*
X179552197Y-106580855D01*
X179552192Y-106580857D01*
X179379266Y-106657850D01*
X179373641Y-106661098D01*
X179372674Y-106659424D01*
X179315561Y-106679798D01*
X179308491Y-106680000D01*
X169034000Y-106680000D01*
X168966961Y-106660315D01*
X168921206Y-106607511D01*
X168910000Y-106556000D01*
X168910000Y-102994000D01*
X168929685Y-102926961D01*
X168982489Y-102881206D01*
X169034000Y-102870000D01*
X192408000Y-102870000D01*
X192475039Y-102889685D01*
G37*
%TD.AperFunction*%
%TD*%
%TA.AperFunction,Conductor*%
%TO.N,VCC*%
G36*
X134563039Y-102889685D02*
G01*
X134608794Y-102942489D01*
X134620000Y-102994000D01*
X134620000Y-106556000D01*
X134600315Y-106623039D01*
X134547511Y-106668794D01*
X134496000Y-106680000D01*
X125361908Y-106680000D01*
X125294869Y-106660315D01*
X125249114Y-106607511D01*
X125243977Y-106594317D01*
X125234879Y-106566316D01*
X125140233Y-106402384D01*
X125013571Y-106261712D01*
X125013570Y-106261711D01*
X124860434Y-106150451D01*
X124860429Y-106150448D01*
X124687507Y-106073457D01*
X124687502Y-106073455D01*
X124541701Y-106042465D01*
X124502346Y-106034100D01*
X124313054Y-106034100D01*
X124280597Y-106040998D01*
X124127897Y-106073455D01*
X124127892Y-106073457D01*
X123954970Y-106150448D01*
X123954965Y-106150451D01*
X123801829Y-106261711D01*
X123675166Y-106402385D01*
X123580520Y-106566318D01*
X123571423Y-106594317D01*
X123531987Y-106651993D01*
X123467628Y-106679192D01*
X123453492Y-106680000D01*
X121980194Y-106680000D01*
X121913155Y-106660315D01*
X121896194Y-106645901D01*
X121895695Y-106646456D01*
X121890864Y-106642106D01*
X121737734Y-106530851D01*
X121737729Y-106530848D01*
X121564807Y-106453857D01*
X121564802Y-106453855D01*
X121419000Y-106422865D01*
X121379646Y-106414500D01*
X121190354Y-106414500D01*
X121157897Y-106421398D01*
X121005197Y-106453855D01*
X121005192Y-106453857D01*
X120832270Y-106530848D01*
X120832265Y-106530851D01*
X120679135Y-106642106D01*
X120674305Y-106646456D01*
X120672702Y-106644676D01*
X120622457Y-106675624D01*
X120589806Y-106680000D01*
X109344000Y-106680000D01*
X109276961Y-106660315D01*
X109231206Y-106607511D01*
X109220000Y-106556000D01*
X109220000Y-102994000D01*
X109239685Y-102926961D01*
X109292489Y-102881206D01*
X109344000Y-102870000D01*
X134496000Y-102870000D01*
X134563039Y-102889685D01*
G37*
%TD.AperFunction*%
%TD*%
%TA.AperFunction,Conductor*%
%TO.N,VEE*%
G36*
X120656845Y-107969685D02*
G01*
X120673805Y-107984098D01*
X120674305Y-107983544D01*
X120679135Y-107987893D01*
X120832265Y-108099148D01*
X120832270Y-108099151D01*
X121005192Y-108176142D01*
X121005197Y-108176144D01*
X121190354Y-108215500D01*
X121190355Y-108215500D01*
X121379644Y-108215500D01*
X121379646Y-108215500D01*
X121564803Y-108176144D01*
X121737730Y-108099151D01*
X121890871Y-107987888D01*
X121890877Y-107987881D01*
X121895695Y-107983544D01*
X121897297Y-107985323D01*
X121947543Y-107954376D01*
X121980194Y-107950000D01*
X128146000Y-107950000D01*
X128213039Y-107969685D01*
X128258794Y-108022489D01*
X128270000Y-108074000D01*
X128270000Y-111636000D01*
X128250315Y-111703039D01*
X128197511Y-111748794D01*
X128146000Y-111760000D01*
X104264000Y-111760000D01*
X104196961Y-111740315D01*
X104151206Y-111687511D01*
X104140000Y-111636000D01*
X104140000Y-108074000D01*
X104159685Y-108006961D01*
X104212489Y-107961206D01*
X104264000Y-107950000D01*
X120589806Y-107950000D01*
X120656845Y-107969685D01*
G37*
%TD.AperFunction*%
%TD*%
M02*
