M48
; DRILL file {KiCad 7.0.7} date Thu Jan 18 16:33:33 2024
; FORMAT={-:-/ absolute / inch / decimal}
; #@! TF.CreationDate,2024-01-18T16:33:33+01:00
; #@! TF.GenerationSoftware,Kicad,Pcbnew,7.0.7
; #@! TF.FileFunction,Plated,1,4,PTH
FMAT,2
INCH
; #@! TA.AperFunction,Plated,PTH,ViaDrill
T1C0.0157
; #@! TA.AperFunction,Plated,PTH,ComponentDrill
T2C0.0236
; #@! TA.AperFunction,Plated,PTH,ComponentDrill
T3C0.0374
; #@! TA.AperFunction,Plated,PTH,ComponentDrill
T4C0.0394
; #@! TA.AperFunction,Plated,PTH,ComponentDrill
T5C0.0512
%
G90
G05
T1
X4.02Y-2.545
X4.0906Y-4.3631
X4.0916Y-3.9731
X4.0916Y-5.1481
X4.0925Y-4.7531
X4.194Y-2.4
X4.3006Y-4.1631
X4.3016Y-3.7781
X4.3016Y-4.9481
X4.3025Y-4.5531
X4.3744Y-3.0627
X4.3794Y-3.3677
X4.38Y-3.42
X4.41Y-2.545
X4.4703Y-4.3158
X4.4703Y-4.4658
X4.4703Y-4.7158
X4.4703Y-4.8658
X4.474Y-2.404
X4.5203Y-4.3158
X4.5203Y-4.4658
X4.5203Y-4.7158
X4.5203Y-4.8658
X4.5494Y-2.9927
X4.5562Y-3.1352
X4.626Y-5.604
X4.6562Y-2.8602
X4.6778Y-3.8658
X4.6778Y-4.0908
X4.6778Y-4.4158
X4.6778Y-4.4658
X4.6778Y-4.5158
X4.6778Y-4.9658
X4.6778Y-5.0158
X4.6778Y-5.0658
X4.684Y-5.388
X4.688Y-5.7416
X4.73Y-3.42
X4.7312Y-2.9167
X4.7312Y-2.9737
X4.7344Y-3.0577
X4.7344Y-3.3677
X4.766Y-2.46
X4.8007Y-3.8508
X4.8007Y-4.2408
X4.8007Y-4.6308
X4.8007Y-5.0208
X4.804Y-5.488
X4.8882Y-3.9658
X4.8882Y-4.2383
X4.8882Y-4.6283
X4.8882Y-5.0183
X4.964Y-2.46
X5.1305Y-3.7658
X5.1382Y-4.0783
X5.1382Y-4.4633
X5.1432Y-4.8583
X5.2768Y-4.1508
X5.2768Y-4.5358
X5.2768Y-4.9258
X5.525Y-2.32
X5.525Y-2.36
X5.525Y-2.4
X5.525Y-2.44
X5.73Y-2.29
X5.7874Y-3.937
X5.876Y-4.68
X6.14Y-4.986
X6.195Y-2.415
X6.195Y-2.455
X6.195Y-2.495
X6.195Y-2.535
X6.195Y-2.575
X6.195Y-2.655
X6.2205Y-3.7402
X6.45Y-2.65
X6.484Y-5.532
X6.5268Y-3.8508
X6.5268Y-4.2408
X6.5268Y-4.6308
X6.5268Y-5.0208
X6.596Y-5.62
X6.6143Y-3.9658
X6.6143Y-4.2383
X6.6143Y-4.6283
X6.6143Y-5.0183
X6.6417Y-2.5132
X6.8566Y-3.7658
X6.8643Y-4.0783
X6.8643Y-4.4633
X6.8693Y-4.8583
X7.0028Y-4.1508
X7.0028Y-4.5358
X7.0028Y-4.9258
X7.01Y-3.68
X7.024Y-5.636
X7.03Y-5.46
X7.0714Y-3.0637
X7.0764Y-3.3687
X7.0764Y-3.4187
X7.1552Y-3.8631
X7.1552Y-4.6431
X7.1552Y-5.0331
X7.196Y-5.592
X7.2531Y-3.1363
X7.2567Y-4.3631
X7.2577Y-3.9731
X7.2577Y-5.1481
X7.2586Y-4.7531
X7.3657Y-2.8563
X7.4281Y-2.9177
X7.4281Y-2.9748
X7.4314Y-3.0587
X7.4314Y-3.3687
X7.4314Y-3.4187
X7.4667Y-4.1631
X7.4677Y-3.7781
X7.4677Y-4.9481
X7.4686Y-4.5531
X7.4877Y-3.6956
X7.6307Y-4.0808
X7.6607Y-4.3308
X7.6607Y-4.4708
X7.6607Y-4.7208
X7.6607Y-4.8508
X7.6907Y-4.0808
X7.7007Y-4.3308
X7.7007Y-4.4708
X7.7007Y-4.7208
X7.7007Y-4.8508
X7.8407Y-3.8708
X7.8407Y-4.0808
X7.8407Y-4.1308
X7.8407Y-4.1808
T3
X4.6681Y-2.085
X4.7666Y-2.085
X4.865Y-2.085
X4.9634Y-2.085
X5.0619Y-2.085
T4
X4.032Y-3.4118
X4.032Y-3.5118
X5.0825Y-3.4133
X5.0825Y-3.5133
X5.3154Y-2.8352
X5.3154Y-2.9352
X5.4154Y-2.8352
X5.4154Y-2.9352
X5.5154Y-2.8352
X5.5154Y-2.9352
X5.6154Y-2.8352
X5.6154Y-2.9352
X5.6767Y-5.6923
X5.6767Y-5.7923
X5.8596Y-2.7654
X5.9596Y-2.7654
X6.2104Y-2.8352
X6.2104Y-2.9352
X6.2165Y-5.3327
X6.2165Y-5.4327
X6.2165Y-5.5327
X6.2165Y-5.6327
X6.2165Y-5.7327
X6.3104Y-2.8352
X6.3104Y-2.9352
X6.4104Y-2.8352
X6.4104Y-2.9352
X6.5104Y-2.8352
X6.5104Y-2.9352
X6.7259Y-3.4133
X6.7259Y-3.5133
X7.7811Y-3.4137
X7.7811Y-3.5137
T5
X6.4584Y-2.187
X6.4781Y-2.4744
X6.6395Y-2.0335
X6.7379Y-2.3012
X6.8442Y-2.3484
T2
G00X5.7335Y-5.2972
M15
G01X5.7335Y-5.3248
M16
G05
G00X5.7409Y-2.5079
M15
G01X5.7409Y-2.4803
M16
G05
G00X5.7677Y-5.476
M15
G01X5.7677Y-5.5035
M16
G05
G00X5.7677Y-5.576
M15
G01X5.7677Y-5.6035
M16
G05
G00X5.7677Y-5.676
M15
G01X5.7677Y-5.7035
M16
G05
G00X5.7677Y-5.7756
M15
G01X5.7677Y-5.8031
M16
G05
G00X5.7756Y-2.0295
M15
G01X5.7756Y-2.002
M16
G05
G00X5.7756Y-2.1291
M15
G01X5.7756Y-2.1016
M16
G05
G00X5.7756Y-2.2291
M15
G01X5.7756Y-2.2016
M16
G05
G00X5.7756Y-2.3291
M15
G01X5.7756Y-2.3016
M16
G05
G00X5.8209Y-2.6201
M15
G01X5.7933Y-2.6201
M16
G05
G00X5.7933Y-5.185
M15
G01X5.8209Y-5.185
M16
G05
G00X6.0177Y-2.6201
M15
G01X5.9902Y-2.6201
M16
G05
G00X5.9902Y-5.185
M15
G01X6.0177Y-5.185
M16
G05
G00X6.0354Y-5.476
M15
G01X6.0354Y-5.5035
M16
G05
G00X6.0354Y-5.576
M15
G01X6.0354Y-5.6035
M16
G05
G00X6.0354Y-5.676
M15
G01X6.0354Y-5.7035
M16
G05
G00X6.0354Y-5.7756
M15
G01X6.0354Y-5.8031
M16
G05
G00X6.0433Y-2.0295
M15
G01X6.0433Y-2.002
M16
G05
G00X6.0433Y-2.1291
M15
G01X6.0433Y-2.1016
M16
G05
G00X6.0433Y-2.2291
M15
G01X6.0433Y-2.2016
M16
G05
G00X6.0433Y-2.3291
M15
G01X6.0433Y-2.3016
M16
G05
G00X6.0701Y-5.2972
M15
G01X6.0701Y-5.3248
M16
G05
G00X6.0776Y-2.5079
M15
G01X6.0776Y-2.4803
M16
G05
T0
M30
