%TF.GenerationSoftware,KiCad,Pcbnew,7.0.7*%
%TF.CreationDate,2024-01-18T16:33:32+01:00*%
%TF.ProjectId,BHOA,42484f41-2e6b-4696-9361-645f70636258,rev?*%
%TF.SameCoordinates,Original*%
%TF.FileFunction,Soldermask,Bot*%
%TF.FilePolarity,Negative*%
%FSLAX46Y46*%
G04 Gerber Fmt 4.6, Leading zero omitted, Abs format (unit mm)*
G04 Created by KiCad (PCBNEW 7.0.7) date 2024-01-18 16:33:32*
%MOMM*%
%LPD*%
G01*
G04 APERTURE LIST*
G04 Aperture macros list*
%AMRoundRect*
0 Rectangle with rounded corners*
0 $1 Rounding radius*
0 $2 $3 $4 $5 $6 $7 $8 $9 X,Y pos of 4 corners*
0 Add a 4 corners polygon primitive as box body*
4,1,4,$2,$3,$4,$5,$6,$7,$8,$9,$2,$3,0*
0 Add four circle primitives for the rounded corners*
1,1,$1+$1,$2,$3*
1,1,$1+$1,$4,$5*
1,1,$1+$1,$6,$7*
1,1,$1+$1,$8,$9*
0 Add four rect primitives between the rounded corners*
20,1,$1+$1,$2,$3,$4,$5,0*
20,1,$1+$1,$4,$5,$6,$7,0*
20,1,$1+$1,$6,$7,$8,$9,0*
20,1,$1+$1,$8,$9,$2,$3,0*%
G04 Aperture macros list end*
%ADD10C,3.700000*%
%ADD11R,1.700000X1.700000*%
%ADD12O,1.700000X1.700000*%
%ADD13O,1.100000X1.800000*%
%ADD14O,1.800000X1.100000*%
%ADD15RoundRect,0.250000X-0.600000X-0.725000X0.600000X-0.725000X0.600000X0.725000X-0.600000X0.725000X0*%
%ADD16O,1.700000X1.950000*%
%ADD17O,2.200000X4.000000*%
%ADD18O,4.000000X2.200000*%
%ADD19R,2.200000X4.000000*%
G04 APERTURE END LIST*
D10*
%TO.C,H5*%
X150000000Y-106000000D03*
%TD*%
D11*
%TO.C,J13*%
X197639000Y-89247000D03*
D12*
X197639000Y-86707000D03*
%TD*%
%TO.C,J12*%
X102412800Y-89199800D03*
D11*
X102412800Y-86659800D03*
%TD*%
D12*
%TO.C,J8*%
X129096748Y-86698486D03*
D11*
X129096748Y-89238486D03*
%TD*%
%TO.C,J7*%
X170839000Y-86697000D03*
D12*
X170839000Y-89237000D03*
%TD*%
D11*
%TO.C,J6*%
X157744000Y-74554000D03*
D12*
X157744000Y-72014000D03*
X160284000Y-74554000D03*
X160284000Y-72014000D03*
X162824000Y-74554000D03*
X162824000Y-72014000D03*
X165364000Y-74554000D03*
X165364000Y-72014000D03*
%TD*%
D11*
%TO.C,J5*%
X135011000Y-74554000D03*
D12*
X135011000Y-72014000D03*
X137551000Y-74554000D03*
X137551000Y-72014000D03*
X140091000Y-74554000D03*
X140091000Y-72014000D03*
X142631000Y-74554000D03*
X142631000Y-72014000D03*
%TD*%
D10*
%TO.C,H2*%
X196000000Y-53000000D03*
%TD*%
%TO.C,H3*%
X196000000Y-145000000D03*
%TD*%
D11*
%TO.C,J11*%
X157899000Y-135450000D03*
D12*
X157899000Y-137990000D03*
X157899000Y-140530000D03*
X157899000Y-143070000D03*
X157899000Y-145610000D03*
%TD*%
D10*
%TO.C,H1*%
X104000000Y-53000000D03*
%TD*%
D13*
%TO.C,J10*%
X146500000Y-147050000D03*
X153300000Y-147050000D03*
D14*
X147500000Y-131700000D03*
X152500000Y-131700000D03*
D13*
X146500000Y-139440000D03*
X153300000Y-139440000D03*
X146500000Y-141980000D03*
X153300000Y-141980000D03*
X146500000Y-144520000D03*
X153300000Y-144520000D03*
X154180000Y-134900000D03*
X145630000Y-134900000D03*
%TD*%
D15*
%TO.C,J4*%
X118571000Y-52959000D03*
D16*
X121071000Y-52959000D03*
X123571000Y-52959000D03*
X126071000Y-52959000D03*
X128571000Y-52959000D03*
%TD*%
D13*
%TO.C,J1*%
X154370000Y-63350000D03*
X145820000Y-63350000D03*
X146700000Y-53730000D03*
X153500000Y-53730000D03*
X146700000Y-56270000D03*
X153500000Y-56270000D03*
X146700000Y-58810000D03*
X153500000Y-58810000D03*
D14*
X147500000Y-66550000D03*
X152500000Y-66550000D03*
D13*
X146700000Y-51200000D03*
X153500000Y-51200000D03*
%TD*%
D17*
%TO.C,J2*%
X173842500Y-59650000D03*
X171142500Y-58450000D03*
D18*
X168642500Y-51650000D03*
D19*
X164042500Y-55550000D03*
D18*
X164542500Y-62850000D03*
%TD*%
D10*
%TO.C,H4*%
X104000000Y-145000000D03*
%TD*%
D11*
%TO.C,J3*%
X151375000Y-70240000D03*
D12*
X148835000Y-70240000D03*
%TD*%
D11*
%TO.C,J9*%
X144189200Y-147124000D03*
D12*
X144189200Y-144584000D03*
%TD*%
M02*
