%TF.GenerationSoftware,KiCad,Pcbnew,7.0.7*%
%TF.CreationDate,2024-01-18T16:33:32+01:00*%
%TF.ProjectId,BHOA,42484f41-2e6b-4696-9361-645f70636258,rev?*%
%TF.SameCoordinates,Original*%
%TF.FileFunction,Copper,L2,Inr*%
%TF.FilePolarity,Positive*%
%FSLAX46Y46*%
G04 Gerber Fmt 4.6, Leading zero omitted, Abs format (unit mm)*
G04 Created by KiCad (PCBNEW 7.0.7) date 2024-01-18 16:33:32*
%MOMM*%
%LPD*%
G01*
G04 APERTURE LIST*
G04 Aperture macros list*
%AMRoundRect*
0 Rectangle with rounded corners*
0 $1 Rounding radius*
0 $2 $3 $4 $5 $6 $7 $8 $9 X,Y pos of 4 corners*
0 Add a 4 corners polygon primitive as box body*
4,1,4,$2,$3,$4,$5,$6,$7,$8,$9,$2,$3,0*
0 Add four circle primitives for the rounded corners*
1,1,$1+$1,$2,$3*
1,1,$1+$1,$4,$5*
1,1,$1+$1,$6,$7*
1,1,$1+$1,$8,$9*
0 Add four rect primitives between the rounded corners*
20,1,$1+$1,$2,$3,$4,$5,0*
20,1,$1+$1,$4,$5,$6,$7,0*
20,1,$1+$1,$6,$7,$8,$9,0*
20,1,$1+$1,$8,$9,$2,$3,0*%
G04 Aperture macros list end*
%TA.AperFunction,ComponentPad*%
%ADD10R,1.700000X1.700000*%
%TD*%
%TA.AperFunction,ComponentPad*%
%ADD11O,1.700000X1.700000*%
%TD*%
%TA.AperFunction,ComponentPad*%
%ADD12O,1.100000X1.800000*%
%TD*%
%TA.AperFunction,ComponentPad*%
%ADD13O,1.800000X1.100000*%
%TD*%
%TA.AperFunction,ComponentPad*%
%ADD14RoundRect,0.250000X-0.600000X-0.725000X0.600000X-0.725000X0.600000X0.725000X-0.600000X0.725000X0*%
%TD*%
%TA.AperFunction,ComponentPad*%
%ADD15O,1.700000X1.950000*%
%TD*%
%TA.AperFunction,ComponentPad*%
%ADD16O,2.200000X4.000000*%
%TD*%
%TA.AperFunction,ComponentPad*%
%ADD17O,4.000000X2.200000*%
%TD*%
%TA.AperFunction,ComponentPad*%
%ADD18R,2.200000X4.000000*%
%TD*%
%TA.AperFunction,ViaPad*%
%ADD19C,0.800000*%
%TD*%
G04 APERTURE END LIST*
D10*
%TO.N,/In_out_R_+*%
%TO.C,J13*%
X197639000Y-89247000D03*
D11*
%TO.N,/Out_pre_R_+*%
X197639000Y-86707000D03*
%TD*%
%TO.N,/In_out_L_-*%
%TO.C,J12*%
X102412800Y-89199800D03*
D10*
%TO.N,/Out_pre_L_-*%
X102412800Y-86659800D03*
%TD*%
D11*
%TO.N,/Out_pre_L_+*%
%TO.C,J8*%
X129096748Y-86698486D03*
D10*
%TO.N,/In_out_L_+*%
X129096748Y-89238486D03*
%TD*%
%TO.N,/Out_pre_R_-*%
%TO.C,J7*%
X170839000Y-86697000D03*
D11*
%TO.N,/In_out_R_-*%
X170839000Y-89237000D03*
%TD*%
D10*
%TO.N,/In_pre_R_+*%
%TO.C,J6*%
X157744000Y-74554000D03*
D11*
%TO.N,/In_R_unbal_filtered*%
X157744000Y-72014000D03*
%TO.N,/In_pre_R_+*%
X160284000Y-74554000D03*
%TO.N,/In_R+_bal_filtered*%
X160284000Y-72014000D03*
%TO.N,/In_pre_R_-*%
X162824000Y-74554000D03*
%TO.N,/In_R-_bal_filtered*%
X162824000Y-72014000D03*
%TO.N,GND*%
X165364000Y-74554000D03*
%TO.N,N/C*%
X165364000Y-72014000D03*
%TD*%
D10*
%TO.N,/In_pre_L_+*%
%TO.C,J5*%
X135011000Y-74554000D03*
D11*
%TO.N,/In_L_unbal_filtered*%
X135011000Y-72014000D03*
%TO.N,/In_pre_L_+*%
X137551000Y-74554000D03*
%TO.N,/In_L+_bal_filtered*%
X137551000Y-72014000D03*
%TO.N,/In_pre_L_-*%
X140091000Y-74554000D03*
%TO.N,/In_L-_bal_filtered*%
X140091000Y-72014000D03*
%TO.N,GND*%
X142631000Y-74554000D03*
%TO.N,N/C*%
X142631000Y-72014000D03*
%TD*%
D10*
%TO.N,/Out_L_+*%
%TO.C,J11*%
X157899000Y-135450000D03*
D11*
%TO.N,/Out_L_-*%
X157899000Y-137990000D03*
%TO.N,/Out_R_+*%
X157899000Y-140530000D03*
%TO.N,/Out_R_-*%
X157899000Y-143070000D03*
%TO.N,GND*%
X157899000Y-145610000D03*
%TD*%
D12*
%TO.N,GND*%
%TO.C,J10*%
X146500000Y-147050000D03*
X153300000Y-147050000D03*
D13*
%TO.N,/Out_L_+*%
X147500000Y-131700000D03*
X152500000Y-131700000D03*
D12*
%TO.N,/Out_L_-*%
X146500000Y-139440000D03*
X153300000Y-139440000D03*
%TO.N,/Out_R_+*%
X146500000Y-141980000D03*
X153300000Y-141980000D03*
%TO.N,/Out_R_-*%
X146500000Y-144520000D03*
X153300000Y-144520000D03*
%TO.N,Net-(J9-Pin_2)*%
X154180000Y-134900000D03*
%TO.N,Net-(J9-Pin_1)*%
X145630000Y-134900000D03*
%TD*%
D14*
%TO.N,VEE*%
%TO.C,J4*%
X118571000Y-52959000D03*
D15*
X121071000Y-52959000D03*
%TO.N,GND*%
X123571000Y-52959000D03*
%TO.N,VCC*%
X126071000Y-52959000D03*
X128571000Y-52959000D03*
%TD*%
D12*
%TO.N,Net-(J3-Pin_1)*%
%TO.C,J1*%
X154370000Y-63350000D03*
%TO.N,Net-(J3-Pin_2)*%
X145820000Y-63350000D03*
%TO.N,/In_R-_bal*%
X146700000Y-53730000D03*
X153500000Y-53730000D03*
%TO.N,/In_R+_bal*%
X146700000Y-56270000D03*
X153500000Y-56270000D03*
%TO.N,/In_L-_bal*%
X146700000Y-58810000D03*
X153500000Y-58810000D03*
D13*
%TO.N,/In_L+_bal*%
X147500000Y-66550000D03*
X152500000Y-66550000D03*
D12*
%TO.N,GND*%
X146700000Y-51200000D03*
X153500000Y-51200000D03*
%TD*%
D16*
%TO.N,/In_R_unbal*%
%TO.C,J2*%
X173842500Y-59650000D03*
%TO.N,unconnected-(J2-PadRN)*%
X171142500Y-58450000D03*
D17*
%TO.N,GND*%
X168642500Y-51650000D03*
D18*
%TO.N,/In_L_unbal*%
X164042500Y-55550000D03*
D17*
%TO.N,unconnected-(J2-PadTN)*%
X164542500Y-62850000D03*
%TD*%
D10*
%TO.N,Net-(J3-Pin_1)*%
%TO.C,J3*%
X151375000Y-70240000D03*
D11*
%TO.N,Net-(J3-Pin_2)*%
X148835000Y-70240000D03*
%TD*%
D10*
%TO.N,Net-(J9-Pin_1)*%
%TO.C,J9*%
X144189200Y-147124000D03*
D11*
%TO.N,Net-(J9-Pin_2)*%
X144189200Y-144584000D03*
%TD*%
D19*
%TO.N,/In_L_unbal_filtered*%
X157353000Y-67437000D03*
%TO.N,GND*%
X157353000Y-65405000D03*
X157353000Y-64389000D03*
X157353000Y-63373000D03*
X157353000Y-62357000D03*
X157353000Y-61341000D03*
X140335000Y-61976000D03*
X140335000Y-60960000D03*
X140335000Y-59944000D03*
X140335000Y-58928000D03*
%TO.N,/In_L_unbal_filtered*%
X163830000Y-67310000D03*
%TO.N,/r_mute*%
X122021600Y-139395200D03*
X178409600Y-143154400D03*
X155956000Y-126644400D03*
%TO.N,+5V*%
X182778400Y-142036800D03*
%TO.N,/r_mute*%
X118973600Y-136855200D03*
X117500400Y-142341600D03*
%TO.N,+5V*%
X178562000Y-138684000D03*
X119075200Y-145837500D03*
X149250400Y-118872000D03*
X106527600Y-60960000D03*
%TO.N,VCC*%
X113639600Y-61061600D03*
X126085600Y-62484000D03*
%TO.N,VEE*%
X121056400Y-62484000D03*
X120142000Y-86868000D03*
%TO.N,VCC*%
X111252000Y-86868000D03*
X178054000Y-93472000D03*
%TO.N,VEE*%
X147000000Y-100000000D03*
%TO.N,VCC*%
X158000000Y-95000000D03*
%TO.N,/Out_R_+*%
X164693600Y-140512800D03*
X167538400Y-142748000D03*
%TO.N,/In_L+_bal*%
X145542000Y-58166000D03*
%TO.N,GND*%
X112014000Y-64643000D03*
X102108000Y-64643000D03*
X168700000Y-63836000D03*
%TO.N,VCC*%
X130510364Y-103589000D03*
X130637364Y-123401000D03*
X190188000Y-93868500D03*
X189680000Y-125682300D03*
X189680000Y-95964300D03*
X109261864Y-125682300D03*
X189701500Y-115649300D03*
X174479500Y-123401000D03*
X187089200Y-72549000D03*
X189654000Y-105743300D03*
X174157800Y-95651200D03*
X115726748Y-79633486D03*
X118266748Y-72648486D03*
X109283364Y-115649300D03*
X174352500Y-113368000D03*
X109261864Y-95964300D03*
X174352500Y-103589000D03*
X184229000Y-79661000D03*
X130510364Y-113368000D03*
X179739800Y-86836200D03*
X130315664Y-95651200D03*
X109235864Y-105743300D03*
%TO.N,GND*%
X195344500Y-103652200D03*
X134029664Y-105430200D03*
X188756800Y-85566200D03*
X199154500Y-104922200D03*
X121937564Y-117622800D03*
X113545864Y-109621200D03*
X188756800Y-77692200D03*
X113545864Y-113431200D03*
X195598500Y-113558200D03*
X193820500Y-103652200D03*
X199154500Y-103652200D03*
X194582500Y-110002200D03*
X195598500Y-119908200D03*
X179739800Y-85566200D03*
X121937564Y-127528800D03*
X118814864Y-112161200D03*
X111110548Y-77791686D03*
X118814864Y-114701200D03*
X121937564Y-107716800D03*
X165779700Y-127528800D03*
X118814864Y-126131200D03*
X114815864Y-109621200D03*
X121937564Y-97810800D03*
X177871800Y-125115200D03*
X194582500Y-113558200D03*
X118814864Y-127401200D03*
X118814864Y-98191200D03*
X165779700Y-97810800D03*
X179612800Y-77819200D03*
X195598500Y-123210200D03*
X195598500Y-110002200D03*
X113545864Y-123591200D03*
X134029664Y-125115200D03*
X118814864Y-128671200D03*
X114815864Y-123591200D03*
X165779700Y-107716800D03*
X118814864Y-113431200D03*
X194582500Y-119908200D03*
X177871800Y-105430200D03*
X165779700Y-117622800D03*
X111237548Y-85538686D03*
X120254548Y-85538686D03*
X134029664Y-115209200D03*
X114815864Y-113431200D03*
X194582500Y-123210200D03*
X177871800Y-115209200D03*
X181742200Y-98123300D03*
X199154500Y-106192200D03*
X181742200Y-117935300D03*
X181742200Y-127841300D03*
X114815864Y-119781200D03*
X199154500Y-98318200D03*
X120254548Y-77664686D03*
X113545864Y-119781200D03*
X118814864Y-103906200D03*
%TO.N,VEE*%
X103927864Y-100917300D03*
X115555548Y-76013686D03*
X168002500Y-127465000D03*
X168002500Y-100731200D03*
X188756800Y-86836200D03*
X184346000Y-100917300D03*
X184346000Y-130762300D03*
X168002500Y-117559000D03*
X124160364Y-117559000D03*
X103901864Y-110823300D03*
X124160364Y-107653000D03*
X184367500Y-120729300D03*
X103949364Y-120729300D03*
X168002500Y-107653000D03*
X124160364Y-127465000D03*
X124160364Y-100731200D03*
X103927864Y-130762300D03*
X184320000Y-110823300D03*
%TO.N,Net-(U40B--)*%
X120171748Y-75531986D03*
X120171748Y-74082986D03*
%TO.N,Net-(U50B--)*%
X188674000Y-75559500D03*
X188674000Y-74110500D03*
%TD*%
%TA.AperFunction,Conductor*%
%TO.N,GND*%
G36*
X199002695Y-49000735D02*
G01*
X199045519Y-49004482D01*
X199171771Y-49016918D01*
X199191685Y-49020541D01*
X199258349Y-49038403D01*
X199351570Y-49066682D01*
X199367971Y-49072958D01*
X199435411Y-49104406D01*
X199438375Y-49105888D01*
X199475969Y-49125982D01*
X199522327Y-49150762D01*
X199528667Y-49154657D01*
X199594828Y-49200983D01*
X199598600Y-49203844D01*
X199670808Y-49263103D01*
X199675309Y-49267182D01*
X199732815Y-49324688D01*
X199736895Y-49329190D01*
X199796154Y-49401398D01*
X199799015Y-49405170D01*
X199845341Y-49471331D01*
X199849236Y-49477671D01*
X199894101Y-49561605D01*
X199895614Y-49564631D01*
X199927040Y-49632027D01*
X199933319Y-49648435D01*
X199961601Y-49741669D01*
X199979454Y-49808299D01*
X199983082Y-49828238D01*
X199995523Y-49954554D01*
X199999264Y-49997302D01*
X199999500Y-50002710D01*
X199999500Y-147997289D01*
X199999264Y-148002697D01*
X199995523Y-148045445D01*
X199983082Y-148171760D01*
X199979454Y-148191699D01*
X199961601Y-148258330D01*
X199933318Y-148351563D01*
X199927040Y-148367971D01*
X199895614Y-148435367D01*
X199894101Y-148438393D01*
X199849236Y-148522327D01*
X199845341Y-148528667D01*
X199799015Y-148594828D01*
X199796154Y-148598600D01*
X199736895Y-148670808D01*
X199732806Y-148675320D01*
X199675320Y-148732806D01*
X199670808Y-148736895D01*
X199598600Y-148796154D01*
X199594828Y-148799015D01*
X199528667Y-148845341D01*
X199522327Y-148849236D01*
X199438393Y-148894101D01*
X199435367Y-148895614D01*
X199367971Y-148927040D01*
X199351563Y-148933318D01*
X199258330Y-148961601D01*
X199191699Y-148979454D01*
X199171760Y-148983082D01*
X199045445Y-148995523D01*
X199004789Y-148999080D01*
X199002696Y-148999264D01*
X198997290Y-148999500D01*
X101002710Y-148999500D01*
X100997303Y-148999264D01*
X100995015Y-148999063D01*
X100954554Y-148995523D01*
X100828238Y-148983082D01*
X100808299Y-148979454D01*
X100741669Y-148961601D01*
X100648435Y-148933319D01*
X100632027Y-148927040D01*
X100583433Y-148904381D01*
X100564618Y-148895607D01*
X100561605Y-148894101D01*
X100477671Y-148849236D01*
X100471331Y-148845341D01*
X100405170Y-148799015D01*
X100401398Y-148796154D01*
X100329190Y-148736895D01*
X100324688Y-148732815D01*
X100267182Y-148675309D01*
X100263103Y-148670808D01*
X100203844Y-148598600D01*
X100200983Y-148594828D01*
X100154657Y-148528667D01*
X100150762Y-148522327D01*
X100125196Y-148474498D01*
X100105888Y-148438375D01*
X100104406Y-148435411D01*
X100072958Y-148367971D01*
X100066682Y-148351570D01*
X100038398Y-148258330D01*
X100020541Y-148191685D01*
X100016918Y-148171771D01*
X100004475Y-148045435D01*
X100000733Y-148002671D01*
X100000500Y-147997315D01*
X100000500Y-145143678D01*
X101899500Y-145143678D01*
X101938629Y-145428357D01*
X101938630Y-145428364D01*
X101969380Y-145538111D01*
X102016156Y-145705058D01*
X102016157Y-145705061D01*
X102016158Y-145705063D01*
X102016158Y-145705064D01*
X102130634Y-145968617D01*
X102216311Y-146109507D01*
X102279945Y-146214147D01*
X102461292Y-146437053D01*
X102570808Y-146539334D01*
X102671299Y-146633187D01*
X102764028Y-146698642D01*
X102906064Y-146798901D01*
X103161203Y-146931104D01*
X103431968Y-147027334D01*
X103713314Y-147085798D01*
X103928248Y-147100500D01*
X103928253Y-147100500D01*
X104071747Y-147100500D01*
X104071752Y-147100500D01*
X104286686Y-147085798D01*
X104568032Y-147027334D01*
X104838797Y-146931104D01*
X105093936Y-146798901D01*
X105328698Y-146633189D01*
X105538708Y-146437053D01*
X105720055Y-146214147D01*
X105869361Y-145968625D01*
X105869363Y-145968620D01*
X105869365Y-145968617D01*
X105926317Y-145837500D01*
X118169740Y-145837500D01*
X118189526Y-146025756D01*
X118189527Y-146025759D01*
X118248018Y-146205777D01*
X118248021Y-146205784D01*
X118342667Y-146369716D01*
X118394065Y-146426799D01*
X118469329Y-146510388D01*
X118622465Y-146621648D01*
X118622470Y-146621651D01*
X118795392Y-146698642D01*
X118795397Y-146698644D01*
X118980554Y-146738000D01*
X118980555Y-146738000D01*
X119169844Y-146738000D01*
X119169846Y-146738000D01*
X119355003Y-146698644D01*
X119527930Y-146621651D01*
X119681071Y-146510388D01*
X119807733Y-146369716D01*
X119902379Y-146205784D01*
X119960874Y-146025756D01*
X119980660Y-145837500D01*
X119960874Y-145649244D01*
X119902379Y-145469216D01*
X119807733Y-145305284D01*
X119681071Y-145164612D01*
X119652258Y-145143678D01*
X119527934Y-145053351D01*
X119527929Y-145053348D01*
X119355007Y-144976357D01*
X119355002Y-144976355D01*
X119209201Y-144945365D01*
X119169846Y-144937000D01*
X118980554Y-144937000D01*
X118948097Y-144943898D01*
X118795397Y-144976355D01*
X118795392Y-144976357D01*
X118622470Y-145053348D01*
X118622465Y-145053351D01*
X118469329Y-145164611D01*
X118342666Y-145305285D01*
X118248021Y-145469215D01*
X118248018Y-145469222D01*
X118189527Y-145649240D01*
X118189526Y-145649244D01*
X118169740Y-145837500D01*
X105926317Y-145837500D01*
X105954115Y-145773501D01*
X105983844Y-145705058D01*
X106061371Y-145428358D01*
X106100500Y-145143678D01*
X106100500Y-144856322D01*
X106063070Y-144584000D01*
X142833541Y-144584000D01*
X142854136Y-144819403D01*
X142854138Y-144819413D01*
X142915294Y-145047655D01*
X142915296Y-145047659D01*
X142915297Y-145047663D01*
X142979361Y-145185048D01*
X143015165Y-145261830D01*
X143015167Y-145261834D01*
X143083904Y-145360000D01*
X143150701Y-145455396D01*
X143150706Y-145455402D01*
X143272630Y-145577326D01*
X143306115Y-145638649D01*
X143301131Y-145708341D01*
X143259259Y-145764274D01*
X143228283Y-145781189D01*
X143096869Y-145830203D01*
X143096864Y-145830206D01*
X142981655Y-145916452D01*
X142981652Y-145916455D01*
X142895406Y-146031664D01*
X142895402Y-146031671D01*
X142845108Y-146166517D01*
X142838701Y-146226116D01*
X142838700Y-146226135D01*
X142838700Y-148021870D01*
X142838701Y-148021876D01*
X142845108Y-148081483D01*
X142895402Y-148216328D01*
X142895406Y-148216335D01*
X142981652Y-148331544D01*
X142981655Y-148331547D01*
X143096864Y-148417793D01*
X143096871Y-148417797D01*
X143231717Y-148468091D01*
X143231716Y-148468091D01*
X143238644Y-148468835D01*
X143291327Y-148474500D01*
X145087072Y-148474499D01*
X145146683Y-148468091D01*
X145281531Y-148417796D01*
X145396746Y-148331546D01*
X145482996Y-148216331D01*
X145510364Y-148142951D01*
X145552235Y-148087017D01*
X145617699Y-148062599D01*
X145685973Y-148077450D01*
X145722400Y-148107618D01*
X145753944Y-148146055D01*
X145913826Y-148277267D01*
X145913833Y-148277271D01*
X146096233Y-148374766D01*
X146250000Y-148421410D01*
X146250000Y-147804978D01*
X146269685Y-147737939D01*
X146322489Y-147692184D01*
X146391647Y-147682240D01*
X146407926Y-147685709D01*
X146471840Y-147703895D01*
X146583521Y-147693546D01*
X146583526Y-147693543D01*
X146592063Y-147691115D01*
X146661930Y-147691701D01*
X146720390Y-147729966D01*
X146748881Y-147793763D01*
X146750000Y-147810381D01*
X146750000Y-148421410D01*
X146903766Y-148374766D01*
X147086166Y-148277271D01*
X147086173Y-148277267D01*
X147246055Y-148146055D01*
X147377267Y-147986173D01*
X147377271Y-147986166D01*
X147474766Y-147803766D01*
X147534808Y-147605834D01*
X147550000Y-147451584D01*
X147550000Y-147300000D01*
X146924000Y-147300000D01*
X146856961Y-147280315D01*
X146811206Y-147227511D01*
X146800000Y-147176000D01*
X146800000Y-146924000D01*
X146819685Y-146856961D01*
X146872489Y-146811206D01*
X146924000Y-146800000D01*
X147550000Y-146800000D01*
X147550000Y-146648415D01*
X147534808Y-146494165D01*
X147474766Y-146296233D01*
X147377271Y-146113833D01*
X147377267Y-146113826D01*
X147246055Y-145953944D01*
X147157386Y-145881175D01*
X147118052Y-145823429D01*
X147116181Y-145753584D01*
X147152369Y-145693816D01*
X147157368Y-145689484D01*
X147246410Y-145616410D01*
X147377685Y-145456450D01*
X147475232Y-145273954D01*
X147535300Y-145075934D01*
X147550500Y-144921608D01*
X147550500Y-144921604D01*
X152249500Y-144921604D01*
X152264699Y-145075932D01*
X152279681Y-145125320D01*
X152324768Y-145273954D01*
X152422315Y-145456450D01*
X152422317Y-145456452D01*
X152553589Y-145616410D01*
X152642612Y-145689468D01*
X152681947Y-145747214D01*
X152683818Y-145817058D01*
X152647631Y-145876827D01*
X152642614Y-145881175D01*
X152553942Y-145953946D01*
X152422732Y-146113826D01*
X152422728Y-146113833D01*
X152325233Y-146296233D01*
X152265191Y-146494165D01*
X152250000Y-146648415D01*
X152250000Y-146800000D01*
X152876000Y-146800000D01*
X152943039Y-146819685D01*
X152988794Y-146872489D01*
X153000000Y-146924000D01*
X153000000Y-147176000D01*
X152980315Y-147243039D01*
X152927511Y-147288794D01*
X152876000Y-147300000D01*
X152250000Y-147300000D01*
X152250000Y-147451584D01*
X152265191Y-147605834D01*
X152325233Y-147803766D01*
X152422728Y-147986166D01*
X152422732Y-147986173D01*
X152553944Y-148146055D01*
X152713826Y-148277267D01*
X152713833Y-148277271D01*
X152896233Y-148374766D01*
X153050000Y-148421410D01*
X153050000Y-147804978D01*
X153069685Y-147737939D01*
X153122489Y-147692184D01*
X153191647Y-147682240D01*
X153207926Y-147685709D01*
X153271840Y-147703895D01*
X153383521Y-147693546D01*
X153383526Y-147693543D01*
X153392063Y-147691115D01*
X153461930Y-147691701D01*
X153520390Y-147729966D01*
X153548881Y-147793763D01*
X153550000Y-147810381D01*
X153550000Y-148421410D01*
X153703766Y-148374766D01*
X153886166Y-148277271D01*
X153886173Y-148277267D01*
X154046055Y-148146055D01*
X154177267Y-147986173D01*
X154177271Y-147986166D01*
X154274766Y-147803766D01*
X154334808Y-147605834D01*
X154350000Y-147451584D01*
X154350000Y-147300000D01*
X153724000Y-147300000D01*
X153656961Y-147280315D01*
X153611206Y-147227511D01*
X153600000Y-147176000D01*
X153600000Y-146924000D01*
X153619685Y-146856961D01*
X153672489Y-146811206D01*
X153724000Y-146800000D01*
X154350000Y-146800000D01*
X154350000Y-146648415D01*
X154334808Y-146494165D01*
X154274766Y-146296233D01*
X154177271Y-146113833D01*
X154177267Y-146113826D01*
X154046055Y-145953944D01*
X153957386Y-145881175D01*
X153918052Y-145823429D01*
X153916181Y-145753584D01*
X153952369Y-145693816D01*
X153957368Y-145689484D01*
X154046410Y-145616410D01*
X154177685Y-145456450D01*
X154275232Y-145273954D01*
X154335300Y-145075934D01*
X154350500Y-144921608D01*
X154350500Y-144118392D01*
X154335300Y-143964066D01*
X154275232Y-143766046D01*
X154177685Y-143583550D01*
X154125702Y-143520209D01*
X154046410Y-143423589D01*
X153951688Y-143345854D01*
X153912353Y-143288108D01*
X153910482Y-143218263D01*
X153946669Y-143158495D01*
X153951688Y-143154146D01*
X154046410Y-143076410D01*
X154051671Y-143070000D01*
X156543341Y-143070000D01*
X156563936Y-143305403D01*
X156563938Y-143305413D01*
X156625094Y-143533655D01*
X156625096Y-143533659D01*
X156625097Y-143533663D01*
X156724964Y-143747829D01*
X156724965Y-143747830D01*
X156724967Y-143747834D01*
X156780602Y-143827288D01*
X156858509Y-143938551D01*
X156860501Y-143941395D01*
X156860506Y-143941402D01*
X157027597Y-144108493D01*
X157027603Y-144108498D01*
X157213594Y-144238730D01*
X157257219Y-144293307D01*
X157264413Y-144362805D01*
X157232890Y-144425160D01*
X157213595Y-144441880D01*
X157027922Y-144571890D01*
X157027920Y-144571891D01*
X156860891Y-144738920D01*
X156860886Y-144738926D01*
X156725400Y-144932420D01*
X156725399Y-144932422D01*
X156625570Y-145146507D01*
X156625567Y-145146513D01*
X156568364Y-145359999D01*
X156568364Y-145360000D01*
X157285653Y-145360000D01*
X157352692Y-145379685D01*
X157398447Y-145432489D01*
X157408391Y-145501647D01*
X157404631Y-145518933D01*
X157399000Y-145538111D01*
X157399000Y-145681889D01*
X157402502Y-145693816D01*
X157404631Y-145701067D01*
X157404630Y-145770936D01*
X157366855Y-145829714D01*
X157303299Y-145858738D01*
X157285653Y-145860000D01*
X156568364Y-145860000D01*
X156625567Y-146073486D01*
X156625570Y-146073492D01*
X156725399Y-146287578D01*
X156860894Y-146481082D01*
X157027917Y-146648105D01*
X157221421Y-146783600D01*
X157435507Y-146883429D01*
X157435516Y-146883433D01*
X157649000Y-146940634D01*
X157649000Y-146222301D01*
X157668685Y-146155262D01*
X157721489Y-146109507D01*
X157790647Y-146099563D01*
X157863237Y-146110000D01*
X157863238Y-146110000D01*
X157934762Y-146110000D01*
X157934763Y-146110000D01*
X158007353Y-146099563D01*
X158076512Y-146109507D01*
X158129315Y-146155262D01*
X158149000Y-146222301D01*
X158149000Y-146940633D01*
X158362483Y-146883433D01*
X158362492Y-146883429D01*
X158576578Y-146783600D01*
X158770082Y-146648105D01*
X158937105Y-146481082D01*
X159072600Y-146287578D01*
X159172429Y-146073492D01*
X159172432Y-146073486D01*
X159229636Y-145860000D01*
X158512347Y-145860000D01*
X158445308Y-145840315D01*
X158399553Y-145787511D01*
X158389609Y-145718353D01*
X158393369Y-145701067D01*
X158395498Y-145693816D01*
X158399000Y-145681889D01*
X158399000Y-145538111D01*
X158393368Y-145518933D01*
X158393370Y-145449064D01*
X158431145Y-145390286D01*
X158494701Y-145361262D01*
X158512347Y-145360000D01*
X159229636Y-145360000D01*
X159229635Y-145359999D01*
X159172432Y-145146513D01*
X159172429Y-145146507D01*
X159171110Y-145143678D01*
X193899500Y-145143678D01*
X193938629Y-145428357D01*
X193938630Y-145428364D01*
X193969380Y-145538111D01*
X194016156Y-145705058D01*
X194016157Y-145705061D01*
X194016158Y-145705063D01*
X194016158Y-145705064D01*
X194130634Y-145968617D01*
X194216311Y-146109507D01*
X194279945Y-146214147D01*
X194461292Y-146437053D01*
X194570808Y-146539334D01*
X194671299Y-146633187D01*
X194764028Y-146698642D01*
X194906064Y-146798901D01*
X195161203Y-146931104D01*
X195431968Y-147027334D01*
X195713314Y-147085798D01*
X195928248Y-147100500D01*
X195928253Y-147100500D01*
X196071747Y-147100500D01*
X196071752Y-147100500D01*
X196286686Y-147085798D01*
X196568032Y-147027334D01*
X196838797Y-146931104D01*
X197093936Y-146798901D01*
X197328698Y-146633189D01*
X197538708Y-146437053D01*
X197720055Y-146214147D01*
X197869361Y-145968625D01*
X197869363Y-145968620D01*
X197869365Y-145968617D01*
X197954115Y-145773501D01*
X197983844Y-145705058D01*
X198061371Y-145428358D01*
X198100500Y-145143678D01*
X198100500Y-144856322D01*
X198061371Y-144571642D01*
X197983844Y-144294942D01*
X197908002Y-144120335D01*
X197869365Y-144031382D01*
X197859732Y-144015542D01*
X197720055Y-143785853D01*
X197538708Y-143562947D01*
X197419831Y-143451923D01*
X197328700Y-143366812D01*
X197093935Y-143201098D01*
X196853298Y-143076410D01*
X196838797Y-143068896D01*
X196838796Y-143068895D01*
X196838793Y-143068894D01*
X196568037Y-142972667D01*
X196568034Y-142972666D01*
X196391509Y-142935984D01*
X196286686Y-142914202D01*
X196286684Y-142914201D01*
X196286680Y-142914201D01*
X196150654Y-142904897D01*
X196071752Y-142899500D01*
X195928248Y-142899500D01*
X195854743Y-142904527D01*
X195713319Y-142914201D01*
X195431965Y-142972666D01*
X195431962Y-142972667D01*
X195161206Y-143068894D01*
X194906064Y-143201098D01*
X194671299Y-143366812D01*
X194461289Y-143562950D01*
X194279944Y-143785853D01*
X194130634Y-144031382D01*
X194016158Y-144294935D01*
X194016158Y-144294936D01*
X194016156Y-144294939D01*
X194016156Y-144294942D01*
X194002438Y-144343903D01*
X193938630Y-144571635D01*
X193938629Y-144571642D01*
X193899500Y-144856321D01*
X193899500Y-145143678D01*
X159171110Y-145143678D01*
X159072600Y-144932422D01*
X159072599Y-144932420D01*
X158937113Y-144738926D01*
X158937108Y-144738920D01*
X158770078Y-144571890D01*
X158584405Y-144441879D01*
X158540780Y-144387302D01*
X158533588Y-144317804D01*
X158565110Y-144255449D01*
X158584406Y-144238730D01*
X158770401Y-144108495D01*
X158937495Y-143941401D01*
X159073035Y-143747830D01*
X159172903Y-143533663D01*
X159234063Y-143305408D01*
X159254659Y-143070000D01*
X159234063Y-142834592D01*
X159210861Y-142748000D01*
X166632940Y-142748000D01*
X166652726Y-142936256D01*
X166652727Y-142936259D01*
X166711218Y-143116277D01*
X166711221Y-143116284D01*
X166805867Y-143280216D01*
X166864967Y-143345853D01*
X166932529Y-143420888D01*
X167085665Y-143532148D01*
X167085670Y-143532151D01*
X167258592Y-143609142D01*
X167258597Y-143609144D01*
X167443754Y-143648500D01*
X167443755Y-143648500D01*
X167633044Y-143648500D01*
X167633046Y-143648500D01*
X167818203Y-143609144D01*
X167991130Y-143532151D01*
X168144271Y-143420888D01*
X168270933Y-143280216D01*
X168343573Y-143154400D01*
X177504140Y-143154400D01*
X177523926Y-143342656D01*
X177523927Y-143342659D01*
X177582418Y-143522677D01*
X177582421Y-143522684D01*
X177677067Y-143686616D01*
X177766421Y-143785853D01*
X177803729Y-143827288D01*
X177956865Y-143938548D01*
X177956870Y-143938551D01*
X178129792Y-144015542D01*
X178129797Y-144015544D01*
X178314954Y-144054900D01*
X178314955Y-144054900D01*
X178504244Y-144054900D01*
X178504246Y-144054900D01*
X178689403Y-144015544D01*
X178862330Y-143938551D01*
X179015471Y-143827288D01*
X179142133Y-143686616D01*
X179236779Y-143522684D01*
X179295274Y-143342656D01*
X179315060Y-143154400D01*
X179295274Y-142966144D01*
X179236779Y-142786116D01*
X179142133Y-142622184D01*
X179015471Y-142481512D01*
X179015470Y-142481511D01*
X178862334Y-142370251D01*
X178862329Y-142370248D01*
X178689407Y-142293257D01*
X178689402Y-142293255D01*
X178543601Y-142262265D01*
X178504246Y-142253900D01*
X178314954Y-142253900D01*
X178282497Y-142260798D01*
X178129797Y-142293255D01*
X178129792Y-142293257D01*
X177956870Y-142370248D01*
X177956865Y-142370251D01*
X177803729Y-142481511D01*
X177677066Y-142622185D01*
X177582421Y-142786115D01*
X177582418Y-142786122D01*
X177540072Y-142916452D01*
X177523926Y-142966144D01*
X177504140Y-143154400D01*
X168343573Y-143154400D01*
X168365579Y-143116284D01*
X168424074Y-142936256D01*
X168443860Y-142748000D01*
X168424074Y-142559744D01*
X168365579Y-142379716D01*
X168270933Y-142215784D01*
X168144271Y-142075112D01*
X168144270Y-142075111D01*
X168091540Y-142036800D01*
X181872940Y-142036800D01*
X181892726Y-142225056D01*
X181892727Y-142225059D01*
X181951218Y-142405077D01*
X181951221Y-142405084D01*
X182045867Y-142569016D01*
X182093740Y-142622184D01*
X182172529Y-142709688D01*
X182325665Y-142820948D01*
X182325670Y-142820951D01*
X182498592Y-142897942D01*
X182498597Y-142897944D01*
X182683754Y-142937300D01*
X182683755Y-142937300D01*
X182873044Y-142937300D01*
X182873046Y-142937300D01*
X183058203Y-142897944D01*
X183231130Y-142820951D01*
X183384271Y-142709688D01*
X183510933Y-142569016D01*
X183605579Y-142405084D01*
X183664074Y-142225056D01*
X183683860Y-142036800D01*
X183664074Y-141848544D01*
X183605579Y-141668516D01*
X183510933Y-141504584D01*
X183384271Y-141363912D01*
X183384270Y-141363911D01*
X183231134Y-141252651D01*
X183231129Y-141252648D01*
X183058207Y-141175657D01*
X183058202Y-141175655D01*
X182912401Y-141144665D01*
X182873046Y-141136300D01*
X182683754Y-141136300D01*
X182651297Y-141143198D01*
X182498597Y-141175655D01*
X182498592Y-141175657D01*
X182325670Y-141252648D01*
X182325665Y-141252651D01*
X182172529Y-141363911D01*
X182045866Y-141504585D01*
X181951221Y-141668515D01*
X181951218Y-141668522D01*
X181901188Y-141822500D01*
X181892726Y-141848544D01*
X181880607Y-141963849D01*
X181873497Y-142031505D01*
X181872940Y-142036800D01*
X168091540Y-142036800D01*
X167991134Y-141963851D01*
X167991129Y-141963848D01*
X167818207Y-141886857D01*
X167818202Y-141886855D01*
X167672400Y-141855865D01*
X167633046Y-141847500D01*
X167443754Y-141847500D01*
X167411297Y-141854398D01*
X167258597Y-141886855D01*
X167258592Y-141886857D01*
X167085670Y-141963848D01*
X167085665Y-141963851D01*
X166932529Y-142075111D01*
X166805866Y-142215785D01*
X166711221Y-142379715D01*
X166711218Y-142379722D01*
X166678145Y-142481512D01*
X166652726Y-142559744D01*
X166632940Y-142748000D01*
X159210861Y-142748000D01*
X159172903Y-142606337D01*
X159073035Y-142392171D01*
X159064319Y-142379722D01*
X158937494Y-142198597D01*
X158770402Y-142031506D01*
X158770396Y-142031501D01*
X158584842Y-141901575D01*
X158541217Y-141846998D01*
X158534023Y-141777500D01*
X158565546Y-141715145D01*
X158584842Y-141698425D01*
X158756262Y-141578395D01*
X158770401Y-141568495D01*
X158937495Y-141401401D01*
X159073035Y-141207830D01*
X159172903Y-140993663D01*
X159234063Y-140765408D01*
X159254659Y-140530000D01*
X159253154Y-140512800D01*
X163788140Y-140512800D01*
X163807926Y-140701056D01*
X163807927Y-140701059D01*
X163866418Y-140881077D01*
X163866421Y-140881084D01*
X163961067Y-141045016D01*
X164043260Y-141136300D01*
X164087729Y-141185688D01*
X164240865Y-141296948D01*
X164240870Y-141296951D01*
X164413792Y-141373942D01*
X164413797Y-141373944D01*
X164598954Y-141413300D01*
X164598955Y-141413300D01*
X164788244Y-141413300D01*
X164788246Y-141413300D01*
X164973403Y-141373944D01*
X165146330Y-141296951D01*
X165299471Y-141185688D01*
X165426133Y-141045016D01*
X165520779Y-140881084D01*
X165579274Y-140701056D01*
X165599060Y-140512800D01*
X165579274Y-140324544D01*
X165520779Y-140144516D01*
X165426133Y-139980584D01*
X165299471Y-139839912D01*
X165299470Y-139839911D01*
X165146334Y-139728651D01*
X165146329Y-139728648D01*
X164973407Y-139651657D01*
X164973402Y-139651655D01*
X164827601Y-139620665D01*
X164788246Y-139612300D01*
X164598954Y-139612300D01*
X164566497Y-139619198D01*
X164413797Y-139651655D01*
X164413792Y-139651657D01*
X164240870Y-139728648D01*
X164240865Y-139728651D01*
X164087729Y-139839911D01*
X163961066Y-139980585D01*
X163866421Y-140144515D01*
X163866418Y-140144522D01*
X163817298Y-140295700D01*
X163807926Y-140324544D01*
X163788140Y-140512800D01*
X159253154Y-140512800D01*
X159234063Y-140294592D01*
X159172903Y-140066337D01*
X159073035Y-139852171D01*
X159064452Y-139839912D01*
X158937494Y-139658597D01*
X158770402Y-139491506D01*
X158770396Y-139491501D01*
X158584842Y-139361575D01*
X158541217Y-139306998D01*
X158534023Y-139237500D01*
X158565546Y-139175145D01*
X158584842Y-139158425D01*
X158607026Y-139142891D01*
X158770401Y-139028495D01*
X158937495Y-138861401D01*
X159061713Y-138684000D01*
X177656540Y-138684000D01*
X177676326Y-138872256D01*
X177676327Y-138872259D01*
X177734818Y-139052277D01*
X177734821Y-139052284D01*
X177829467Y-139216216D01*
X177889150Y-139282500D01*
X177956129Y-139356888D01*
X178109265Y-139468148D01*
X178109270Y-139468151D01*
X178282192Y-139545142D01*
X178282197Y-139545144D01*
X178467354Y-139584500D01*
X178467355Y-139584500D01*
X178656644Y-139584500D01*
X178656646Y-139584500D01*
X178841803Y-139545144D01*
X179014730Y-139468151D01*
X179167871Y-139356888D01*
X179294533Y-139216216D01*
X179389179Y-139052284D01*
X179447674Y-138872256D01*
X179467460Y-138684000D01*
X179447674Y-138495744D01*
X179389179Y-138315716D01*
X179294533Y-138151784D01*
X179167871Y-138011112D01*
X179138813Y-137990000D01*
X179014734Y-137899851D01*
X179014729Y-137899848D01*
X178841807Y-137822857D01*
X178841802Y-137822855D01*
X178696001Y-137791865D01*
X178656646Y-137783500D01*
X178467354Y-137783500D01*
X178434897Y-137790398D01*
X178282197Y-137822855D01*
X178282192Y-137822857D01*
X178109270Y-137899848D01*
X178109265Y-137899851D01*
X177956129Y-138011111D01*
X177829466Y-138151785D01*
X177734821Y-138315715D01*
X177734818Y-138315722D01*
X177676665Y-138494700D01*
X177676326Y-138495744D01*
X177656540Y-138684000D01*
X159061713Y-138684000D01*
X159073035Y-138667830D01*
X159172903Y-138453663D01*
X159234063Y-138225408D01*
X159254659Y-137990000D01*
X159234063Y-137754592D01*
X159172903Y-137526337D01*
X159073035Y-137312171D01*
X158937495Y-137118599D01*
X158815567Y-136996671D01*
X158782084Y-136935351D01*
X158787068Y-136865659D01*
X158828939Y-136809725D01*
X158859915Y-136792810D01*
X158991331Y-136743796D01*
X159106546Y-136657546D01*
X159192796Y-136542331D01*
X159243091Y-136407483D01*
X159249500Y-136347873D01*
X159249499Y-134552128D01*
X159243091Y-134492517D01*
X159192796Y-134357669D01*
X159192795Y-134357668D01*
X159192793Y-134357664D01*
X159106547Y-134242455D01*
X159106544Y-134242452D01*
X158991335Y-134156206D01*
X158991328Y-134156202D01*
X158856482Y-134105908D01*
X158856483Y-134105908D01*
X158796883Y-134099501D01*
X158796881Y-134099500D01*
X158796873Y-134099500D01*
X158796864Y-134099500D01*
X157001129Y-134099500D01*
X157001123Y-134099501D01*
X156941516Y-134105908D01*
X156806671Y-134156202D01*
X156806664Y-134156206D01*
X156691455Y-134242452D01*
X156691452Y-134242455D01*
X156605206Y-134357664D01*
X156605202Y-134357671D01*
X156554908Y-134492517D01*
X156548501Y-134552116D01*
X156548501Y-134552123D01*
X156548500Y-134552135D01*
X156548500Y-136347870D01*
X156548501Y-136347876D01*
X156554908Y-136407483D01*
X156605202Y-136542328D01*
X156605206Y-136542335D01*
X156691452Y-136657544D01*
X156691455Y-136657547D01*
X156806664Y-136743793D01*
X156806671Y-136743797D01*
X156938081Y-136792810D01*
X156994015Y-136834681D01*
X157018432Y-136900145D01*
X157003580Y-136968418D01*
X156982430Y-136996673D01*
X156860503Y-137118600D01*
X156724965Y-137312169D01*
X156724964Y-137312171D01*
X156625098Y-137526335D01*
X156625094Y-137526344D01*
X156563938Y-137754586D01*
X156563936Y-137754596D01*
X156543341Y-137989999D01*
X156543341Y-137990000D01*
X156563936Y-138225403D01*
X156563938Y-138225413D01*
X156625094Y-138453655D01*
X156625096Y-138453659D01*
X156625097Y-138453663D01*
X156724964Y-138667829D01*
X156724965Y-138667830D01*
X156724967Y-138667834D01*
X156860501Y-138861395D01*
X156860506Y-138861402D01*
X157027597Y-139028493D01*
X157027603Y-139028498D01*
X157213158Y-139158425D01*
X157256783Y-139213002D01*
X157263977Y-139282500D01*
X157232454Y-139344855D01*
X157213158Y-139361575D01*
X157027597Y-139491505D01*
X156860505Y-139658597D01*
X156724965Y-139852169D01*
X156724964Y-139852171D01*
X156625098Y-140066335D01*
X156625094Y-140066344D01*
X156563938Y-140294586D01*
X156563936Y-140294596D01*
X156543341Y-140529999D01*
X156543341Y-140530000D01*
X156563936Y-140765403D01*
X156563938Y-140765413D01*
X156625094Y-140993655D01*
X156625096Y-140993659D01*
X156625097Y-140993663D01*
X156714640Y-141185688D01*
X156724965Y-141207830D01*
X156724967Y-141207834D01*
X156860501Y-141401395D01*
X156860506Y-141401402D01*
X157027597Y-141568493D01*
X157027603Y-141568498D01*
X157213158Y-141698425D01*
X157256783Y-141753002D01*
X157263977Y-141822500D01*
X157232454Y-141884855D01*
X157213158Y-141901575D01*
X157027597Y-142031505D01*
X156860505Y-142198597D01*
X156724965Y-142392169D01*
X156724964Y-142392171D01*
X156625098Y-142606335D01*
X156625094Y-142606344D01*
X156563938Y-142834586D01*
X156563936Y-142834596D01*
X156543341Y-143069999D01*
X156543341Y-143070000D01*
X154051671Y-143070000D01*
X154177685Y-142916450D01*
X154275232Y-142733954D01*
X154335300Y-142535934D01*
X154350500Y-142381608D01*
X154350500Y-141578392D01*
X154335300Y-141424066D01*
X154275232Y-141226046D01*
X154177685Y-141043550D01*
X154125702Y-140980209D01*
X154046410Y-140883589D01*
X153951688Y-140805854D01*
X153912353Y-140748108D01*
X153910482Y-140678263D01*
X153946669Y-140618495D01*
X153951688Y-140614146D01*
X154046410Y-140536410D01*
X154046409Y-140536410D01*
X154177685Y-140376450D01*
X154275232Y-140193954D01*
X154335300Y-139995934D01*
X154350500Y-139841608D01*
X154350500Y-139038392D01*
X154335300Y-138884066D01*
X154275232Y-138686046D01*
X154177685Y-138503550D01*
X154125702Y-138440209D01*
X154046410Y-138343589D01*
X153886452Y-138212317D01*
X153886453Y-138212317D01*
X153886450Y-138212315D01*
X153703954Y-138114768D01*
X153505934Y-138054700D01*
X153505932Y-138054699D01*
X153505934Y-138054699D01*
X153300000Y-138034417D01*
X153094067Y-138054699D01*
X152896043Y-138114769D01*
X152785897Y-138173643D01*
X152713550Y-138212315D01*
X152713548Y-138212316D01*
X152713547Y-138212317D01*
X152553589Y-138343589D01*
X152422317Y-138503547D01*
X152324769Y-138686043D01*
X152264699Y-138884067D01*
X152253251Y-139000298D01*
X152249500Y-139038392D01*
X152249500Y-139841608D01*
X152254502Y-139892398D01*
X152264699Y-139995932D01*
X152264700Y-139995934D01*
X152324768Y-140193954D01*
X152422315Y-140376450D01*
X152422317Y-140376452D01*
X152553590Y-140536410D01*
X152648312Y-140614147D01*
X152687646Y-140671893D01*
X152689517Y-140741737D01*
X152653329Y-140801505D01*
X152648312Y-140805853D01*
X152553590Y-140883589D01*
X152463255Y-140993664D01*
X152422315Y-141043550D01*
X152383643Y-141115898D01*
X152324769Y-141226043D01*
X152264699Y-141424067D01*
X152256769Y-141504585D01*
X152249500Y-141578392D01*
X152249500Y-142381608D01*
X152251812Y-142405077D01*
X152264699Y-142535932D01*
X152274735Y-142569016D01*
X152324768Y-142733954D01*
X152422315Y-142916450D01*
X152463098Y-142966144D01*
X152553590Y-143076410D01*
X152648312Y-143154147D01*
X152687646Y-143211893D01*
X152689517Y-143281737D01*
X152653329Y-143341505D01*
X152648312Y-143345853D01*
X152553590Y-143423589D01*
X152422317Y-143583547D01*
X152324769Y-143766043D01*
X152264699Y-143964067D01*
X152253251Y-144080298D01*
X152250475Y-144108498D01*
X152249500Y-144118395D01*
X152249500Y-144921604D01*
X147550500Y-144921604D01*
X147550500Y-144118392D01*
X147535300Y-143964066D01*
X147475232Y-143766046D01*
X147377685Y-143583550D01*
X147325702Y-143520209D01*
X147246410Y-143423589D01*
X147151688Y-143345854D01*
X147112353Y-143288108D01*
X147110482Y-143218263D01*
X147146669Y-143158495D01*
X147151688Y-143154146D01*
X147246410Y-143076410D01*
X147377685Y-142916450D01*
X147475232Y-142733954D01*
X147535300Y-142535934D01*
X147550500Y-142381608D01*
X147550500Y-141578392D01*
X147535300Y-141424066D01*
X147475232Y-141226046D01*
X147377685Y-141043550D01*
X147325702Y-140980209D01*
X147246410Y-140883589D01*
X147151688Y-140805854D01*
X147112353Y-140748108D01*
X147110482Y-140678263D01*
X147146669Y-140618495D01*
X147151688Y-140614146D01*
X147246410Y-140536410D01*
X147377685Y-140376450D01*
X147475232Y-140193954D01*
X147535300Y-139995934D01*
X147550500Y-139841608D01*
X147550500Y-139038392D01*
X147535300Y-138884066D01*
X147475232Y-138686046D01*
X147377685Y-138503550D01*
X147325702Y-138440209D01*
X147246410Y-138343589D01*
X147086452Y-138212317D01*
X147086453Y-138212317D01*
X147086450Y-138212315D01*
X146903954Y-138114768D01*
X146705934Y-138054700D01*
X146705932Y-138054699D01*
X146705934Y-138054699D01*
X146500000Y-138034417D01*
X146294067Y-138054699D01*
X146096043Y-138114769D01*
X145985897Y-138173643D01*
X145913550Y-138212315D01*
X145913548Y-138212316D01*
X145913547Y-138212317D01*
X145753589Y-138343589D01*
X145622317Y-138503547D01*
X145524769Y-138686043D01*
X145464699Y-138884067D01*
X145453251Y-139000298D01*
X145449500Y-139038392D01*
X145449500Y-139841608D01*
X145454502Y-139892398D01*
X145464699Y-139995932D01*
X145464700Y-139995934D01*
X145524768Y-140193954D01*
X145622315Y-140376450D01*
X145622317Y-140376452D01*
X145753590Y-140536410D01*
X145848312Y-140614147D01*
X145887646Y-140671893D01*
X145889517Y-140741737D01*
X145853329Y-140801505D01*
X145848312Y-140805853D01*
X145753590Y-140883589D01*
X145663255Y-140993664D01*
X145622315Y-141043550D01*
X145583643Y-141115898D01*
X145524769Y-141226043D01*
X145464699Y-141424067D01*
X145456769Y-141504585D01*
X145449500Y-141578392D01*
X145449500Y-142381608D01*
X145451812Y-142405077D01*
X145464699Y-142535932D01*
X145474735Y-142569016D01*
X145524768Y-142733954D01*
X145622315Y-142916450D01*
X145663098Y-142966144D01*
X145753590Y-143076410D01*
X145848312Y-143154147D01*
X145887646Y-143211893D01*
X145889517Y-143281737D01*
X145853329Y-143341505D01*
X145848312Y-143345853D01*
X145753590Y-143423589D01*
X145622317Y-143583547D01*
X145524767Y-143766046D01*
X145520287Y-143780815D01*
X145481987Y-143839252D01*
X145418174Y-143867706D01*
X145349108Y-143857143D01*
X145300053Y-143815938D01*
X145227693Y-143712596D01*
X145060602Y-143545506D01*
X145060595Y-143545501D01*
X145041529Y-143532151D01*
X145021721Y-143518281D01*
X144867034Y-143409967D01*
X144867030Y-143409965D01*
X144774486Y-143366811D01*
X144652863Y-143310097D01*
X144652859Y-143310096D01*
X144652855Y-143310094D01*
X144424613Y-143248938D01*
X144424603Y-143248936D01*
X144189201Y-143228341D01*
X144189199Y-143228341D01*
X143953796Y-143248936D01*
X143953786Y-143248938D01*
X143725544Y-143310094D01*
X143725535Y-143310098D01*
X143511371Y-143409964D01*
X143511369Y-143409965D01*
X143317797Y-143545505D01*
X143150705Y-143712597D01*
X143015165Y-143906169D01*
X143015164Y-143906171D01*
X142915298Y-144120335D01*
X142915294Y-144120344D01*
X142854138Y-144348586D01*
X142854136Y-144348596D01*
X142833541Y-144583999D01*
X142833541Y-144584000D01*
X106063070Y-144584000D01*
X106061371Y-144571642D01*
X105983844Y-144294942D01*
X105908002Y-144120335D01*
X105869365Y-144031382D01*
X105859732Y-144015542D01*
X105720055Y-143785853D01*
X105538708Y-143562947D01*
X105419831Y-143451923D01*
X105328700Y-143366812D01*
X105093935Y-143201098D01*
X104853298Y-143076410D01*
X104838797Y-143068896D01*
X104838796Y-143068895D01*
X104838793Y-143068894D01*
X104568037Y-142972667D01*
X104568034Y-142972666D01*
X104391509Y-142935984D01*
X104286686Y-142914202D01*
X104286684Y-142914201D01*
X104286680Y-142914201D01*
X104150654Y-142904897D01*
X104071752Y-142899500D01*
X103928248Y-142899500D01*
X103854743Y-142904527D01*
X103713319Y-142914201D01*
X103431965Y-142972666D01*
X103431962Y-142972667D01*
X103161206Y-143068894D01*
X102906064Y-143201098D01*
X102671299Y-143366812D01*
X102461289Y-143562950D01*
X102279944Y-143785853D01*
X102130634Y-144031382D01*
X102016158Y-144294935D01*
X102016158Y-144294936D01*
X102016156Y-144294939D01*
X102016156Y-144294942D01*
X102002438Y-144343903D01*
X101938630Y-144571635D01*
X101938629Y-144571642D01*
X101899500Y-144856321D01*
X101899500Y-145143678D01*
X100000500Y-145143678D01*
X100000500Y-142341600D01*
X116594940Y-142341600D01*
X116614726Y-142529856D01*
X116614727Y-142529859D01*
X116673218Y-142709877D01*
X116673221Y-142709884D01*
X116767867Y-142873816D01*
X116850996Y-142966140D01*
X116894529Y-143014488D01*
X117047665Y-143125748D01*
X117047670Y-143125751D01*
X117220592Y-143202742D01*
X117220597Y-143202744D01*
X117405754Y-143242100D01*
X117405755Y-143242100D01*
X117595044Y-143242100D01*
X117595046Y-143242100D01*
X117780203Y-143202744D01*
X117953130Y-143125751D01*
X118106271Y-143014488D01*
X118232933Y-142873816D01*
X118327579Y-142709884D01*
X118386074Y-142529856D01*
X118405860Y-142341600D01*
X118386074Y-142153344D01*
X118327579Y-141973316D01*
X118232933Y-141809384D01*
X118106271Y-141668712D01*
X118106270Y-141668711D01*
X117953134Y-141557451D01*
X117953129Y-141557448D01*
X117780207Y-141480457D01*
X117780202Y-141480455D01*
X117634400Y-141449465D01*
X117595046Y-141441100D01*
X117405754Y-141441100D01*
X117373297Y-141447998D01*
X117220597Y-141480455D01*
X117220592Y-141480457D01*
X117047670Y-141557448D01*
X117047665Y-141557451D01*
X116894529Y-141668711D01*
X116767866Y-141809385D01*
X116673221Y-141973315D01*
X116673218Y-141973322D01*
X116640145Y-142075112D01*
X116614726Y-142153344D01*
X116594940Y-142341600D01*
X100000500Y-142341600D01*
X100000500Y-139395200D01*
X121116140Y-139395200D01*
X121135926Y-139583456D01*
X121135927Y-139583459D01*
X121194418Y-139763477D01*
X121194421Y-139763484D01*
X121289067Y-139927416D01*
X121350761Y-139995934D01*
X121415729Y-140068088D01*
X121568865Y-140179348D01*
X121568870Y-140179351D01*
X121741792Y-140256342D01*
X121741797Y-140256344D01*
X121926954Y-140295700D01*
X121926955Y-140295700D01*
X122116244Y-140295700D01*
X122116246Y-140295700D01*
X122301403Y-140256344D01*
X122474330Y-140179351D01*
X122627471Y-140068088D01*
X122754133Y-139927416D01*
X122848779Y-139763484D01*
X122907274Y-139583456D01*
X122927060Y-139395200D01*
X122907274Y-139206944D01*
X122848779Y-139026916D01*
X122754133Y-138862984D01*
X122627471Y-138722312D01*
X122627470Y-138722311D01*
X122474334Y-138611051D01*
X122474329Y-138611048D01*
X122301407Y-138534057D01*
X122301402Y-138534055D01*
X122155601Y-138503065D01*
X122116246Y-138494700D01*
X121926954Y-138494700D01*
X121894497Y-138501598D01*
X121741797Y-138534055D01*
X121741792Y-138534057D01*
X121568870Y-138611048D01*
X121568865Y-138611051D01*
X121415729Y-138722311D01*
X121289066Y-138862985D01*
X121194421Y-139026915D01*
X121194418Y-139026922D01*
X121149868Y-139164035D01*
X121135926Y-139206944D01*
X121116140Y-139395200D01*
X100000500Y-139395200D01*
X100000500Y-136855200D01*
X118068140Y-136855200D01*
X118087926Y-137043456D01*
X118087927Y-137043459D01*
X118146418Y-137223477D01*
X118146421Y-137223484D01*
X118241067Y-137387416D01*
X118366151Y-137526335D01*
X118367729Y-137528088D01*
X118520865Y-137639348D01*
X118520870Y-137639351D01*
X118693792Y-137716342D01*
X118693797Y-137716344D01*
X118878954Y-137755700D01*
X118878955Y-137755700D01*
X119068244Y-137755700D01*
X119068246Y-137755700D01*
X119253403Y-137716344D01*
X119426330Y-137639351D01*
X119579471Y-137528088D01*
X119706133Y-137387416D01*
X119800779Y-137223484D01*
X119859274Y-137043456D01*
X119879060Y-136855200D01*
X119859274Y-136666944D01*
X119800779Y-136486916D01*
X119706133Y-136322984D01*
X119579471Y-136182312D01*
X119579470Y-136182311D01*
X119426334Y-136071051D01*
X119426329Y-136071048D01*
X119253407Y-135994057D01*
X119253402Y-135994055D01*
X119107601Y-135963065D01*
X119068246Y-135954700D01*
X118878954Y-135954700D01*
X118846497Y-135961598D01*
X118693797Y-135994055D01*
X118693792Y-135994057D01*
X118520870Y-136071048D01*
X118520865Y-136071051D01*
X118367729Y-136182311D01*
X118241066Y-136322985D01*
X118146421Y-136486915D01*
X118146418Y-136486922D01*
X118090979Y-136657547D01*
X118087926Y-136666944D01*
X118068140Y-136855200D01*
X100000500Y-136855200D01*
X100000500Y-135301604D01*
X144579500Y-135301604D01*
X144594699Y-135455932D01*
X144594700Y-135455934D01*
X144654768Y-135653954D01*
X144752315Y-135836450D01*
X144752317Y-135836452D01*
X144883589Y-135996410D01*
X144974537Y-136071048D01*
X145043550Y-136127685D01*
X145226046Y-136225232D01*
X145424066Y-136285300D01*
X145424065Y-136285300D01*
X145444348Y-136287297D01*
X145630000Y-136305583D01*
X145835934Y-136285300D01*
X146033954Y-136225232D01*
X146216450Y-136127685D01*
X146376410Y-135996410D01*
X146507685Y-135836450D01*
X146605232Y-135653954D01*
X146665300Y-135455934D01*
X146680500Y-135301608D01*
X146680500Y-135301604D01*
X153129500Y-135301604D01*
X153144699Y-135455932D01*
X153144700Y-135455934D01*
X153204768Y-135653954D01*
X153302315Y-135836450D01*
X153302317Y-135836452D01*
X153433589Y-135996410D01*
X153524537Y-136071048D01*
X153593550Y-136127685D01*
X153776046Y-136225232D01*
X153974066Y-136285300D01*
X153974065Y-136285300D01*
X153994348Y-136287297D01*
X154180000Y-136305583D01*
X154385934Y-136285300D01*
X154583954Y-136225232D01*
X154766450Y-136127685D01*
X154926410Y-135996410D01*
X155057685Y-135836450D01*
X155155232Y-135653954D01*
X155215300Y-135455934D01*
X155230500Y-135301608D01*
X155230500Y-134498392D01*
X155215300Y-134344066D01*
X155155232Y-134146046D01*
X155057685Y-133963550D01*
X155005702Y-133900209D01*
X154926410Y-133803589D01*
X154766452Y-133672317D01*
X154766453Y-133672317D01*
X154766450Y-133672315D01*
X154583954Y-133574768D01*
X154385934Y-133514700D01*
X154385932Y-133514699D01*
X154385934Y-133514699D01*
X154198463Y-133496235D01*
X154180000Y-133494417D01*
X154179999Y-133494417D01*
X153974067Y-133514699D01*
X153776043Y-133574769D01*
X153665897Y-133633643D01*
X153593550Y-133672315D01*
X153593548Y-133672316D01*
X153593547Y-133672317D01*
X153433589Y-133803589D01*
X153302317Y-133963547D01*
X153204769Y-134146043D01*
X153144699Y-134344067D01*
X153129500Y-134498395D01*
X153129500Y-135301604D01*
X146680500Y-135301604D01*
X146680500Y-134498392D01*
X146665300Y-134344066D01*
X146605232Y-134146046D01*
X146507685Y-133963550D01*
X146455702Y-133900209D01*
X146376410Y-133803589D01*
X146216452Y-133672317D01*
X146216453Y-133672317D01*
X146216450Y-133672315D01*
X146033954Y-133574768D01*
X145835934Y-133514700D01*
X145835932Y-133514699D01*
X145835934Y-133514699D01*
X145648463Y-133496235D01*
X145630000Y-133494417D01*
X145629999Y-133494417D01*
X145424067Y-133514699D01*
X145226043Y-133574769D01*
X145115898Y-133633643D01*
X145043550Y-133672315D01*
X145043548Y-133672316D01*
X145043547Y-133672317D01*
X144883589Y-133803589D01*
X144752317Y-133963547D01*
X144654769Y-134146043D01*
X144594699Y-134344067D01*
X144579500Y-134498395D01*
X144579500Y-135301604D01*
X100000500Y-135301604D01*
X100000500Y-131700000D01*
X146094417Y-131700000D01*
X146114699Y-131905932D01*
X146114700Y-131905934D01*
X146174768Y-132103954D01*
X146272315Y-132286450D01*
X146272317Y-132286452D01*
X146403589Y-132446410D01*
X146500209Y-132525702D01*
X146563550Y-132577685D01*
X146746046Y-132675232D01*
X146944066Y-132735300D01*
X146944065Y-132735300D01*
X146982647Y-132739100D01*
X147098392Y-132750500D01*
X147098395Y-132750500D01*
X147901605Y-132750500D01*
X147901608Y-132750500D01*
X148055934Y-132735300D01*
X148253954Y-132675232D01*
X148436450Y-132577685D01*
X148596410Y-132446410D01*
X148727685Y-132286450D01*
X148825232Y-132103954D01*
X148885300Y-131905934D01*
X148905583Y-131700000D01*
X151094417Y-131700000D01*
X151114699Y-131905932D01*
X151114700Y-131905934D01*
X151174768Y-132103954D01*
X151272315Y-132286450D01*
X151272317Y-132286452D01*
X151403589Y-132446410D01*
X151500209Y-132525702D01*
X151563550Y-132577685D01*
X151746046Y-132675232D01*
X151944066Y-132735300D01*
X151944065Y-132735300D01*
X151982647Y-132739100D01*
X152098392Y-132750500D01*
X152098395Y-132750500D01*
X152901605Y-132750500D01*
X152901608Y-132750500D01*
X153055934Y-132735300D01*
X153253954Y-132675232D01*
X153436450Y-132577685D01*
X153596410Y-132446410D01*
X153727685Y-132286450D01*
X153825232Y-132103954D01*
X153885300Y-131905934D01*
X153905583Y-131700000D01*
X153885300Y-131494066D01*
X153825232Y-131296046D01*
X153727685Y-131113550D01*
X153675702Y-131050209D01*
X153596410Y-130953589D01*
X153436452Y-130822317D01*
X153436453Y-130822317D01*
X153436450Y-130822315D01*
X153324171Y-130762300D01*
X183440540Y-130762300D01*
X183460326Y-130950556D01*
X183461312Y-130953590D01*
X183518818Y-131130577D01*
X183518821Y-131130584D01*
X183613467Y-131294516D01*
X183614845Y-131296046D01*
X183740129Y-131435188D01*
X183893265Y-131546448D01*
X183893270Y-131546451D01*
X184066192Y-131623442D01*
X184066197Y-131623444D01*
X184251354Y-131662800D01*
X184251355Y-131662800D01*
X184440644Y-131662800D01*
X184440646Y-131662800D01*
X184625803Y-131623444D01*
X184798730Y-131546451D01*
X184951871Y-131435188D01*
X185078533Y-131294516D01*
X185173179Y-131130584D01*
X185231674Y-130950556D01*
X185251460Y-130762300D01*
X185231674Y-130574044D01*
X185173179Y-130394016D01*
X185078533Y-130230084D01*
X184951871Y-130089412D01*
X184951870Y-130089411D01*
X184798734Y-129978151D01*
X184798729Y-129978148D01*
X184625807Y-129901157D01*
X184625802Y-129901155D01*
X184480000Y-129870165D01*
X184440646Y-129861800D01*
X184251354Y-129861800D01*
X184218897Y-129868698D01*
X184066197Y-129901155D01*
X184066192Y-129901157D01*
X183893270Y-129978148D01*
X183893265Y-129978151D01*
X183740129Y-130089411D01*
X183613466Y-130230085D01*
X183518821Y-130394015D01*
X183518818Y-130394022D01*
X183460327Y-130574040D01*
X183460326Y-130574044D01*
X183440540Y-130762300D01*
X153324171Y-130762300D01*
X153253954Y-130724768D01*
X153055934Y-130664700D01*
X153055932Y-130664699D01*
X153055934Y-130664699D01*
X152936805Y-130652966D01*
X152901608Y-130649500D01*
X152098392Y-130649500D01*
X152060298Y-130653251D01*
X151944067Y-130664699D01*
X151746043Y-130724769D01*
X151675831Y-130762299D01*
X151563550Y-130822315D01*
X151563548Y-130822316D01*
X151563547Y-130822317D01*
X151403589Y-130953589D01*
X151272317Y-131113547D01*
X151174769Y-131296043D01*
X151114699Y-131494067D01*
X151094417Y-131700000D01*
X148905583Y-131700000D01*
X148885300Y-131494066D01*
X148825232Y-131296046D01*
X148727685Y-131113550D01*
X148675702Y-131050209D01*
X148596410Y-130953589D01*
X148436452Y-130822317D01*
X148436453Y-130822317D01*
X148436450Y-130822315D01*
X148253954Y-130724768D01*
X148055934Y-130664700D01*
X148055932Y-130664699D01*
X148055934Y-130664699D01*
X147936805Y-130652966D01*
X147901608Y-130649500D01*
X147098392Y-130649500D01*
X147060298Y-130653251D01*
X146944067Y-130664699D01*
X146746043Y-130724769D01*
X146675831Y-130762299D01*
X146563550Y-130822315D01*
X146563548Y-130822316D01*
X146563547Y-130822317D01*
X146403589Y-130953589D01*
X146272317Y-131113547D01*
X146174769Y-131296043D01*
X146114699Y-131494067D01*
X146094417Y-131700000D01*
X100000500Y-131700000D01*
X100000500Y-130762300D01*
X103022404Y-130762300D01*
X103042190Y-130950556D01*
X103043176Y-130953590D01*
X103100682Y-131130577D01*
X103100685Y-131130584D01*
X103195331Y-131294516D01*
X103196709Y-131296046D01*
X103321993Y-131435188D01*
X103475129Y-131546448D01*
X103475134Y-131546451D01*
X103648056Y-131623442D01*
X103648061Y-131623444D01*
X103833218Y-131662800D01*
X103833219Y-131662800D01*
X104022508Y-131662800D01*
X104022510Y-131662800D01*
X104207667Y-131623444D01*
X104380594Y-131546451D01*
X104533735Y-131435188D01*
X104660397Y-131294516D01*
X104755043Y-131130584D01*
X104813538Y-130950556D01*
X104833324Y-130762300D01*
X104813538Y-130574044D01*
X104755043Y-130394016D01*
X104660397Y-130230084D01*
X104533735Y-130089412D01*
X104533734Y-130089411D01*
X104380598Y-129978151D01*
X104380593Y-129978148D01*
X104207671Y-129901157D01*
X104207666Y-129901155D01*
X104061865Y-129870165D01*
X104022510Y-129861800D01*
X103833218Y-129861800D01*
X103800761Y-129868698D01*
X103648061Y-129901155D01*
X103648056Y-129901157D01*
X103475134Y-129978148D01*
X103475129Y-129978151D01*
X103321993Y-130089411D01*
X103195330Y-130230085D01*
X103100685Y-130394015D01*
X103100682Y-130394022D01*
X103042191Y-130574040D01*
X103042190Y-130574044D01*
X103022404Y-130762300D01*
X100000500Y-130762300D01*
X100000500Y-127465000D01*
X123254904Y-127465000D01*
X123274690Y-127653256D01*
X123274691Y-127653259D01*
X123333182Y-127833277D01*
X123333185Y-127833284D01*
X123427831Y-127997216D01*
X123554493Y-128137888D01*
X123707629Y-128249148D01*
X123707634Y-128249151D01*
X123880556Y-128326142D01*
X123880561Y-128326144D01*
X124065718Y-128365500D01*
X124065719Y-128365500D01*
X124255008Y-128365500D01*
X124255010Y-128365500D01*
X124440167Y-128326144D01*
X124613094Y-128249151D01*
X124766235Y-128137888D01*
X124892897Y-127997216D01*
X124987543Y-127833284D01*
X125046038Y-127653256D01*
X125065824Y-127465000D01*
X125046038Y-127276744D01*
X124987543Y-127096716D01*
X124892897Y-126932784D01*
X124766235Y-126792112D01*
X124766234Y-126792111D01*
X124613098Y-126680851D01*
X124613093Y-126680848D01*
X124531231Y-126644400D01*
X155050540Y-126644400D01*
X155070326Y-126832656D01*
X155070327Y-126832659D01*
X155128818Y-127012677D01*
X155128821Y-127012684D01*
X155223467Y-127176616D01*
X155313623Y-127276744D01*
X155350129Y-127317288D01*
X155503265Y-127428548D01*
X155503270Y-127428551D01*
X155676192Y-127505542D01*
X155676197Y-127505544D01*
X155861354Y-127544900D01*
X155861355Y-127544900D01*
X156050644Y-127544900D01*
X156050646Y-127544900D01*
X156235803Y-127505544D01*
X156326865Y-127465000D01*
X167097040Y-127465000D01*
X167116826Y-127653256D01*
X167116827Y-127653259D01*
X167175318Y-127833277D01*
X167175321Y-127833284D01*
X167269967Y-127997216D01*
X167396629Y-128137888D01*
X167549765Y-128249148D01*
X167549770Y-128249151D01*
X167722692Y-128326142D01*
X167722697Y-128326144D01*
X167907854Y-128365500D01*
X167907855Y-128365500D01*
X168097144Y-128365500D01*
X168097146Y-128365500D01*
X168282303Y-128326144D01*
X168455230Y-128249151D01*
X168608371Y-128137888D01*
X168735033Y-127997216D01*
X168829679Y-127833284D01*
X168888174Y-127653256D01*
X168907960Y-127465000D01*
X168888174Y-127276744D01*
X168829679Y-127096716D01*
X168735033Y-126932784D01*
X168608371Y-126792112D01*
X168608370Y-126792111D01*
X168455234Y-126680851D01*
X168455229Y-126680848D01*
X168282307Y-126603857D01*
X168282302Y-126603855D01*
X168136500Y-126572865D01*
X168097146Y-126564500D01*
X167907854Y-126564500D01*
X167875397Y-126571398D01*
X167722697Y-126603855D01*
X167722692Y-126603857D01*
X167549770Y-126680848D01*
X167549765Y-126680851D01*
X167396629Y-126792111D01*
X167269966Y-126932785D01*
X167175321Y-127096715D01*
X167175318Y-127096722D01*
X167116827Y-127276740D01*
X167116826Y-127276744D01*
X167097040Y-127465000D01*
X156326865Y-127465000D01*
X156408730Y-127428551D01*
X156561871Y-127317288D01*
X156688533Y-127176616D01*
X156783179Y-127012684D01*
X156841674Y-126832656D01*
X156861460Y-126644400D01*
X156841674Y-126456144D01*
X156783179Y-126276116D01*
X156688533Y-126112184D01*
X156561871Y-125971512D01*
X156561870Y-125971511D01*
X156408734Y-125860251D01*
X156408729Y-125860248D01*
X156235807Y-125783257D01*
X156235802Y-125783255D01*
X156090000Y-125752265D01*
X156050646Y-125743900D01*
X155861354Y-125743900D01*
X155828897Y-125750798D01*
X155676197Y-125783255D01*
X155676192Y-125783257D01*
X155503270Y-125860248D01*
X155503265Y-125860251D01*
X155350129Y-125971511D01*
X155223466Y-126112185D01*
X155128821Y-126276115D01*
X155128818Y-126276122D01*
X155070327Y-126456140D01*
X155070326Y-126456144D01*
X155050540Y-126644400D01*
X124531231Y-126644400D01*
X124440171Y-126603857D01*
X124440166Y-126603855D01*
X124294364Y-126572865D01*
X124255010Y-126564500D01*
X124065718Y-126564500D01*
X124033261Y-126571398D01*
X123880561Y-126603855D01*
X123880556Y-126603857D01*
X123707634Y-126680848D01*
X123707629Y-126680851D01*
X123554493Y-126792111D01*
X123427830Y-126932785D01*
X123333185Y-127096715D01*
X123333182Y-127096722D01*
X123274691Y-127276740D01*
X123274690Y-127276744D01*
X123254904Y-127465000D01*
X100000500Y-127465000D01*
X100000500Y-125682300D01*
X108356404Y-125682300D01*
X108376190Y-125870556D01*
X108376191Y-125870559D01*
X108434682Y-126050577D01*
X108434685Y-126050584D01*
X108529331Y-126214516D01*
X108655992Y-126355188D01*
X108655993Y-126355188D01*
X108809129Y-126466448D01*
X108809134Y-126466451D01*
X108982056Y-126543442D01*
X108982061Y-126543444D01*
X109167218Y-126582800D01*
X109167219Y-126582800D01*
X109356508Y-126582800D01*
X109356510Y-126582800D01*
X109541667Y-126543444D01*
X109714594Y-126466451D01*
X109867735Y-126355188D01*
X109994397Y-126214516D01*
X110089043Y-126050584D01*
X110147538Y-125870556D01*
X110167324Y-125682300D01*
X188774540Y-125682300D01*
X188794326Y-125870556D01*
X188794327Y-125870559D01*
X188852818Y-126050577D01*
X188852821Y-126050584D01*
X188947467Y-126214516D01*
X189074129Y-126355187D01*
X189074129Y-126355188D01*
X189227265Y-126466448D01*
X189227270Y-126466451D01*
X189400192Y-126543442D01*
X189400197Y-126543444D01*
X189585354Y-126582800D01*
X189585355Y-126582800D01*
X189774644Y-126582800D01*
X189774646Y-126582800D01*
X189959803Y-126543444D01*
X190132730Y-126466451D01*
X190285871Y-126355188D01*
X190412533Y-126214516D01*
X190507179Y-126050584D01*
X190565674Y-125870556D01*
X190585460Y-125682300D01*
X190565674Y-125494044D01*
X190507179Y-125314016D01*
X190412533Y-125150084D01*
X190285871Y-125009412D01*
X190285870Y-125009411D01*
X190132734Y-124898151D01*
X190132729Y-124898148D01*
X189959807Y-124821157D01*
X189959802Y-124821155D01*
X189814001Y-124790165D01*
X189774646Y-124781800D01*
X189585354Y-124781800D01*
X189552897Y-124788698D01*
X189400197Y-124821155D01*
X189400192Y-124821157D01*
X189227270Y-124898148D01*
X189227265Y-124898151D01*
X189074129Y-125009411D01*
X188947466Y-125150085D01*
X188852821Y-125314015D01*
X188852818Y-125314022D01*
X188794327Y-125494040D01*
X188794326Y-125494044D01*
X188774540Y-125682300D01*
X110167324Y-125682300D01*
X110147538Y-125494044D01*
X110089043Y-125314016D01*
X109994397Y-125150084D01*
X109867735Y-125009412D01*
X109867734Y-125009411D01*
X109714598Y-124898151D01*
X109714593Y-124898148D01*
X109541671Y-124821157D01*
X109541666Y-124821155D01*
X109395864Y-124790165D01*
X109356510Y-124781800D01*
X109167218Y-124781800D01*
X109134761Y-124788698D01*
X108982061Y-124821155D01*
X108982056Y-124821157D01*
X108809134Y-124898148D01*
X108809129Y-124898151D01*
X108655993Y-125009411D01*
X108529330Y-125150085D01*
X108434685Y-125314015D01*
X108434682Y-125314022D01*
X108376191Y-125494040D01*
X108376190Y-125494044D01*
X108356404Y-125682300D01*
X100000500Y-125682300D01*
X100000500Y-123401000D01*
X129731904Y-123401000D01*
X129751690Y-123589256D01*
X129751691Y-123589259D01*
X129810182Y-123769277D01*
X129810185Y-123769284D01*
X129904831Y-123933216D01*
X130031493Y-124073888D01*
X130184629Y-124185148D01*
X130184634Y-124185151D01*
X130357556Y-124262142D01*
X130357561Y-124262144D01*
X130542718Y-124301500D01*
X130542719Y-124301500D01*
X130732008Y-124301500D01*
X130732010Y-124301500D01*
X130917167Y-124262144D01*
X131090094Y-124185151D01*
X131243235Y-124073888D01*
X131369897Y-123933216D01*
X131464543Y-123769284D01*
X131523038Y-123589256D01*
X131542824Y-123401000D01*
X173574040Y-123401000D01*
X173593826Y-123589256D01*
X173593827Y-123589259D01*
X173652318Y-123769277D01*
X173652321Y-123769284D01*
X173746967Y-123933216D01*
X173873629Y-124073887D01*
X173873629Y-124073888D01*
X174026765Y-124185148D01*
X174026770Y-124185151D01*
X174199692Y-124262142D01*
X174199697Y-124262144D01*
X174384854Y-124301500D01*
X174384855Y-124301500D01*
X174574144Y-124301500D01*
X174574146Y-124301500D01*
X174759303Y-124262144D01*
X174932230Y-124185151D01*
X175085371Y-124073888D01*
X175212033Y-123933216D01*
X175306679Y-123769284D01*
X175365174Y-123589256D01*
X175384960Y-123401000D01*
X175365174Y-123212744D01*
X175306679Y-123032716D01*
X175212033Y-122868784D01*
X175085371Y-122728112D01*
X175085370Y-122728111D01*
X174932234Y-122616851D01*
X174932229Y-122616848D01*
X174759307Y-122539857D01*
X174759302Y-122539855D01*
X174613500Y-122508865D01*
X174574146Y-122500500D01*
X174384854Y-122500500D01*
X174352397Y-122507398D01*
X174199697Y-122539855D01*
X174199692Y-122539857D01*
X174026770Y-122616848D01*
X174026765Y-122616851D01*
X173873629Y-122728111D01*
X173746966Y-122868785D01*
X173652321Y-123032715D01*
X173652318Y-123032722D01*
X173593827Y-123212740D01*
X173593826Y-123212744D01*
X173574040Y-123401000D01*
X131542824Y-123401000D01*
X131523038Y-123212744D01*
X131464543Y-123032716D01*
X131369897Y-122868784D01*
X131243235Y-122728112D01*
X131243234Y-122728111D01*
X131090098Y-122616851D01*
X131090093Y-122616848D01*
X130917171Y-122539857D01*
X130917166Y-122539855D01*
X130771364Y-122508865D01*
X130732010Y-122500500D01*
X130542718Y-122500500D01*
X130510261Y-122507398D01*
X130357561Y-122539855D01*
X130357556Y-122539857D01*
X130184634Y-122616848D01*
X130184629Y-122616851D01*
X130031493Y-122728111D01*
X129904830Y-122868785D01*
X129810185Y-123032715D01*
X129810182Y-123032722D01*
X129751691Y-123212740D01*
X129751690Y-123212744D01*
X129731904Y-123401000D01*
X100000500Y-123401000D01*
X100000500Y-120729300D01*
X103043904Y-120729300D01*
X103063690Y-120917556D01*
X103063691Y-120917559D01*
X103122182Y-121097577D01*
X103122185Y-121097584D01*
X103216831Y-121261516D01*
X103343493Y-121402188D01*
X103496629Y-121513448D01*
X103496634Y-121513451D01*
X103669556Y-121590442D01*
X103669561Y-121590444D01*
X103854718Y-121629800D01*
X103854719Y-121629800D01*
X104044008Y-121629800D01*
X104044010Y-121629800D01*
X104229167Y-121590444D01*
X104402094Y-121513451D01*
X104555235Y-121402188D01*
X104681897Y-121261516D01*
X104776543Y-121097584D01*
X104835038Y-120917556D01*
X104854824Y-120729300D01*
X183462040Y-120729300D01*
X183481826Y-120917556D01*
X183481827Y-120917559D01*
X183540318Y-121097577D01*
X183540321Y-121097584D01*
X183634967Y-121261516D01*
X183761628Y-121402188D01*
X183761629Y-121402188D01*
X183914765Y-121513448D01*
X183914770Y-121513451D01*
X184087692Y-121590442D01*
X184087697Y-121590444D01*
X184272854Y-121629800D01*
X184272855Y-121629800D01*
X184462144Y-121629800D01*
X184462146Y-121629800D01*
X184647303Y-121590444D01*
X184820230Y-121513451D01*
X184973371Y-121402188D01*
X185100033Y-121261516D01*
X185194679Y-121097584D01*
X185253174Y-120917556D01*
X185272960Y-120729300D01*
X185253174Y-120541044D01*
X185194679Y-120361016D01*
X185100033Y-120197084D01*
X184973371Y-120056412D01*
X184973370Y-120056411D01*
X184820234Y-119945151D01*
X184820229Y-119945148D01*
X184647307Y-119868157D01*
X184647302Y-119868155D01*
X184501501Y-119837165D01*
X184462146Y-119828800D01*
X184272854Y-119828800D01*
X184240397Y-119835698D01*
X184087697Y-119868155D01*
X184087692Y-119868157D01*
X183914770Y-119945148D01*
X183914765Y-119945151D01*
X183761629Y-120056411D01*
X183634966Y-120197085D01*
X183540321Y-120361015D01*
X183540318Y-120361022D01*
X183481827Y-120541040D01*
X183481826Y-120541044D01*
X183462040Y-120729300D01*
X104854824Y-120729300D01*
X104835038Y-120541044D01*
X104776543Y-120361016D01*
X104681897Y-120197084D01*
X104555235Y-120056412D01*
X104555234Y-120056411D01*
X104402098Y-119945151D01*
X104402093Y-119945148D01*
X104229171Y-119868157D01*
X104229166Y-119868155D01*
X104083364Y-119837165D01*
X104044010Y-119828800D01*
X103854718Y-119828800D01*
X103822261Y-119835698D01*
X103669561Y-119868155D01*
X103669556Y-119868157D01*
X103496634Y-119945148D01*
X103496629Y-119945151D01*
X103343493Y-120056411D01*
X103216830Y-120197085D01*
X103122185Y-120361015D01*
X103122182Y-120361022D01*
X103063691Y-120541040D01*
X103063690Y-120541044D01*
X103043904Y-120729300D01*
X100000500Y-120729300D01*
X100000500Y-118872000D01*
X148344940Y-118872000D01*
X148364726Y-119060256D01*
X148364727Y-119060259D01*
X148423218Y-119240277D01*
X148423221Y-119240284D01*
X148517867Y-119404216D01*
X148644528Y-119544887D01*
X148644529Y-119544888D01*
X148797665Y-119656148D01*
X148797670Y-119656151D01*
X148970592Y-119733142D01*
X148970597Y-119733144D01*
X149155754Y-119772500D01*
X149155755Y-119772500D01*
X149345044Y-119772500D01*
X149345046Y-119772500D01*
X149530203Y-119733144D01*
X149703130Y-119656151D01*
X149856271Y-119544888D01*
X149982933Y-119404216D01*
X150077579Y-119240284D01*
X150136074Y-119060256D01*
X150155860Y-118872000D01*
X150136074Y-118683744D01*
X150077579Y-118503716D01*
X149982933Y-118339784D01*
X149856271Y-118199112D01*
X149856270Y-118199111D01*
X149703134Y-118087851D01*
X149703129Y-118087848D01*
X149530207Y-118010857D01*
X149530202Y-118010855D01*
X149384400Y-117979865D01*
X149345046Y-117971500D01*
X149155754Y-117971500D01*
X149123297Y-117978398D01*
X148970597Y-118010855D01*
X148970592Y-118010857D01*
X148797670Y-118087848D01*
X148797665Y-118087851D01*
X148644529Y-118199111D01*
X148517866Y-118339785D01*
X148423221Y-118503715D01*
X148423218Y-118503722D01*
X148364727Y-118683740D01*
X148364726Y-118683744D01*
X148344940Y-118872000D01*
X100000500Y-118872000D01*
X100000500Y-117559000D01*
X123254904Y-117559000D01*
X123274690Y-117747256D01*
X123274691Y-117747259D01*
X123333182Y-117927277D01*
X123333185Y-117927284D01*
X123427831Y-118091216D01*
X123524981Y-118199112D01*
X123554493Y-118231888D01*
X123707629Y-118343148D01*
X123707634Y-118343151D01*
X123880556Y-118420142D01*
X123880561Y-118420144D01*
X124065718Y-118459500D01*
X124065719Y-118459500D01*
X124255008Y-118459500D01*
X124255010Y-118459500D01*
X124440167Y-118420144D01*
X124613094Y-118343151D01*
X124766235Y-118231888D01*
X124892897Y-118091216D01*
X124987543Y-117927284D01*
X125046038Y-117747256D01*
X125065824Y-117559000D01*
X167097040Y-117559000D01*
X167116826Y-117747256D01*
X167116827Y-117747259D01*
X167175318Y-117927277D01*
X167175321Y-117927284D01*
X167269967Y-118091216D01*
X167367117Y-118199112D01*
X167396629Y-118231888D01*
X167549765Y-118343148D01*
X167549770Y-118343151D01*
X167722692Y-118420142D01*
X167722697Y-118420144D01*
X167907854Y-118459500D01*
X167907855Y-118459500D01*
X168097144Y-118459500D01*
X168097146Y-118459500D01*
X168282303Y-118420144D01*
X168455230Y-118343151D01*
X168608371Y-118231888D01*
X168735033Y-118091216D01*
X168829679Y-117927284D01*
X168888174Y-117747256D01*
X168907960Y-117559000D01*
X168888174Y-117370744D01*
X168829679Y-117190716D01*
X168735033Y-117026784D01*
X168608371Y-116886112D01*
X168608370Y-116886111D01*
X168455234Y-116774851D01*
X168455229Y-116774848D01*
X168282307Y-116697857D01*
X168282302Y-116697855D01*
X168136500Y-116666865D01*
X168097146Y-116658500D01*
X167907854Y-116658500D01*
X167875397Y-116665398D01*
X167722697Y-116697855D01*
X167722692Y-116697857D01*
X167549770Y-116774848D01*
X167549765Y-116774851D01*
X167396629Y-116886111D01*
X167269966Y-117026785D01*
X167175321Y-117190715D01*
X167175318Y-117190722D01*
X167116827Y-117370740D01*
X167116826Y-117370744D01*
X167097040Y-117559000D01*
X125065824Y-117559000D01*
X125046038Y-117370744D01*
X124987543Y-117190716D01*
X124892897Y-117026784D01*
X124766235Y-116886112D01*
X124766234Y-116886111D01*
X124613098Y-116774851D01*
X124613093Y-116774848D01*
X124440171Y-116697857D01*
X124440166Y-116697855D01*
X124294365Y-116666865D01*
X124255010Y-116658500D01*
X124065718Y-116658500D01*
X124033261Y-116665398D01*
X123880561Y-116697855D01*
X123880556Y-116697857D01*
X123707634Y-116774848D01*
X123707629Y-116774851D01*
X123554493Y-116886111D01*
X123427830Y-117026785D01*
X123333185Y-117190715D01*
X123333182Y-117190722D01*
X123274691Y-117370740D01*
X123274690Y-117370744D01*
X123254904Y-117559000D01*
X100000500Y-117559000D01*
X100000500Y-115649300D01*
X108377904Y-115649300D01*
X108397690Y-115837556D01*
X108397691Y-115837559D01*
X108456182Y-116017577D01*
X108456185Y-116017584D01*
X108550831Y-116181516D01*
X108677492Y-116322188D01*
X108677493Y-116322188D01*
X108830629Y-116433448D01*
X108830634Y-116433451D01*
X109003556Y-116510442D01*
X109003561Y-116510444D01*
X109188718Y-116549800D01*
X109188719Y-116549800D01*
X109378008Y-116549800D01*
X109378010Y-116549800D01*
X109563167Y-116510444D01*
X109736094Y-116433451D01*
X109889235Y-116322188D01*
X110015897Y-116181516D01*
X110110543Y-116017584D01*
X110169038Y-115837556D01*
X110188824Y-115649300D01*
X188796040Y-115649300D01*
X188815826Y-115837556D01*
X188815827Y-115837559D01*
X188874318Y-116017577D01*
X188874321Y-116017584D01*
X188968967Y-116181516D01*
X189095628Y-116322188D01*
X189095629Y-116322188D01*
X189248765Y-116433448D01*
X189248770Y-116433451D01*
X189421692Y-116510442D01*
X189421697Y-116510444D01*
X189606854Y-116549800D01*
X189606855Y-116549800D01*
X189796144Y-116549800D01*
X189796146Y-116549800D01*
X189981303Y-116510444D01*
X190154230Y-116433451D01*
X190307371Y-116322188D01*
X190434033Y-116181516D01*
X190528679Y-116017584D01*
X190587174Y-115837556D01*
X190606960Y-115649300D01*
X190587174Y-115461044D01*
X190528679Y-115281016D01*
X190434033Y-115117084D01*
X190307371Y-114976412D01*
X190307370Y-114976411D01*
X190154234Y-114865151D01*
X190154229Y-114865148D01*
X189981307Y-114788157D01*
X189981302Y-114788155D01*
X189835500Y-114757165D01*
X189796146Y-114748800D01*
X189606854Y-114748800D01*
X189574397Y-114755698D01*
X189421697Y-114788155D01*
X189421692Y-114788157D01*
X189248770Y-114865148D01*
X189248765Y-114865151D01*
X189095629Y-114976411D01*
X188968966Y-115117085D01*
X188874321Y-115281015D01*
X188874318Y-115281022D01*
X188815827Y-115461040D01*
X188815826Y-115461044D01*
X188796040Y-115649300D01*
X110188824Y-115649300D01*
X110169038Y-115461044D01*
X110110543Y-115281016D01*
X110015897Y-115117084D01*
X109889235Y-114976412D01*
X109889234Y-114976411D01*
X109736098Y-114865151D01*
X109736093Y-114865148D01*
X109563171Y-114788157D01*
X109563166Y-114788155D01*
X109417364Y-114757165D01*
X109378010Y-114748800D01*
X109188718Y-114748800D01*
X109156261Y-114755698D01*
X109003561Y-114788155D01*
X109003556Y-114788157D01*
X108830634Y-114865148D01*
X108830629Y-114865151D01*
X108677493Y-114976411D01*
X108550830Y-115117085D01*
X108456185Y-115281015D01*
X108456182Y-115281022D01*
X108397691Y-115461040D01*
X108397690Y-115461044D01*
X108377904Y-115649300D01*
X100000500Y-115649300D01*
X100000500Y-113368000D01*
X129604904Y-113368000D01*
X129624690Y-113556256D01*
X129624691Y-113556259D01*
X129683182Y-113736277D01*
X129683185Y-113736284D01*
X129777831Y-113900216D01*
X129904493Y-114040887D01*
X129904493Y-114040888D01*
X130057629Y-114152148D01*
X130057634Y-114152151D01*
X130230556Y-114229142D01*
X130230561Y-114229144D01*
X130415718Y-114268500D01*
X130415719Y-114268500D01*
X130605008Y-114268500D01*
X130605010Y-114268500D01*
X130790167Y-114229144D01*
X130963094Y-114152151D01*
X131116235Y-114040888D01*
X131242897Y-113900216D01*
X131337543Y-113736284D01*
X131396038Y-113556256D01*
X131415824Y-113368000D01*
X173447040Y-113368000D01*
X173466826Y-113556256D01*
X173466827Y-113556259D01*
X173525318Y-113736277D01*
X173525321Y-113736284D01*
X173619967Y-113900216D01*
X173746629Y-114040888D01*
X173899765Y-114152148D01*
X173899770Y-114152151D01*
X174072692Y-114229142D01*
X174072697Y-114229144D01*
X174257854Y-114268500D01*
X174257855Y-114268500D01*
X174447144Y-114268500D01*
X174447146Y-114268500D01*
X174632303Y-114229144D01*
X174805230Y-114152151D01*
X174958371Y-114040888D01*
X175085033Y-113900216D01*
X175179679Y-113736284D01*
X175238174Y-113556256D01*
X175257960Y-113368000D01*
X175238174Y-113179744D01*
X175179679Y-112999716D01*
X175085033Y-112835784D01*
X174958371Y-112695112D01*
X174958370Y-112695111D01*
X174805234Y-112583851D01*
X174805229Y-112583848D01*
X174632307Y-112506857D01*
X174632302Y-112506855D01*
X174486501Y-112475865D01*
X174447146Y-112467500D01*
X174257854Y-112467500D01*
X174225397Y-112474398D01*
X174072697Y-112506855D01*
X174072692Y-112506857D01*
X173899770Y-112583848D01*
X173899765Y-112583851D01*
X173746629Y-112695111D01*
X173619966Y-112835785D01*
X173525321Y-112999715D01*
X173525318Y-112999722D01*
X173466827Y-113179740D01*
X173466826Y-113179744D01*
X173447040Y-113368000D01*
X131415824Y-113368000D01*
X131396038Y-113179744D01*
X131337543Y-112999716D01*
X131242897Y-112835784D01*
X131116235Y-112695112D01*
X131116234Y-112695111D01*
X130963098Y-112583851D01*
X130963093Y-112583848D01*
X130790171Y-112506857D01*
X130790166Y-112506855D01*
X130644364Y-112475865D01*
X130605010Y-112467500D01*
X130415718Y-112467500D01*
X130383261Y-112474398D01*
X130230561Y-112506855D01*
X130230556Y-112506857D01*
X130057634Y-112583848D01*
X130057629Y-112583851D01*
X129904493Y-112695111D01*
X129777830Y-112835785D01*
X129683185Y-112999715D01*
X129683182Y-112999722D01*
X129624691Y-113179740D01*
X129624690Y-113179744D01*
X129604904Y-113368000D01*
X100000500Y-113368000D01*
X100000500Y-110823300D01*
X102996404Y-110823300D01*
X103016190Y-111011556D01*
X103016191Y-111011559D01*
X103074682Y-111191577D01*
X103074685Y-111191584D01*
X103169331Y-111355516D01*
X103295992Y-111496188D01*
X103295993Y-111496188D01*
X103449129Y-111607448D01*
X103449134Y-111607451D01*
X103622056Y-111684442D01*
X103622061Y-111684444D01*
X103807218Y-111723800D01*
X103807219Y-111723800D01*
X103996508Y-111723800D01*
X103996510Y-111723800D01*
X104181667Y-111684444D01*
X104354594Y-111607451D01*
X104507735Y-111496188D01*
X104634397Y-111355516D01*
X104729043Y-111191584D01*
X104787538Y-111011556D01*
X104807324Y-110823300D01*
X183414540Y-110823300D01*
X183434326Y-111011556D01*
X183434327Y-111011559D01*
X183492818Y-111191577D01*
X183492821Y-111191584D01*
X183587467Y-111355516D01*
X183714129Y-111496188D01*
X183867265Y-111607448D01*
X183867270Y-111607451D01*
X184040192Y-111684442D01*
X184040197Y-111684444D01*
X184225354Y-111723800D01*
X184225355Y-111723800D01*
X184414644Y-111723800D01*
X184414646Y-111723800D01*
X184599803Y-111684444D01*
X184772730Y-111607451D01*
X184925871Y-111496188D01*
X185052533Y-111355516D01*
X185147179Y-111191584D01*
X185205674Y-111011556D01*
X185225460Y-110823300D01*
X185205674Y-110635044D01*
X185147179Y-110455016D01*
X185052533Y-110291084D01*
X184925871Y-110150412D01*
X184925870Y-110150411D01*
X184772734Y-110039151D01*
X184772729Y-110039148D01*
X184599807Y-109962157D01*
X184599802Y-109962155D01*
X184454000Y-109931165D01*
X184414646Y-109922800D01*
X184225354Y-109922800D01*
X184192897Y-109929698D01*
X184040197Y-109962155D01*
X184040192Y-109962157D01*
X183867270Y-110039148D01*
X183867265Y-110039151D01*
X183714129Y-110150411D01*
X183587466Y-110291085D01*
X183492821Y-110455015D01*
X183492818Y-110455022D01*
X183434327Y-110635040D01*
X183434326Y-110635044D01*
X183414540Y-110823300D01*
X104807324Y-110823300D01*
X104787538Y-110635044D01*
X104729043Y-110455016D01*
X104634397Y-110291084D01*
X104507735Y-110150412D01*
X104507734Y-110150411D01*
X104354598Y-110039151D01*
X104354593Y-110039148D01*
X104181671Y-109962157D01*
X104181666Y-109962155D01*
X104035865Y-109931165D01*
X103996510Y-109922800D01*
X103807218Y-109922800D01*
X103774761Y-109929698D01*
X103622061Y-109962155D01*
X103622056Y-109962157D01*
X103449134Y-110039148D01*
X103449129Y-110039151D01*
X103295993Y-110150411D01*
X103169330Y-110291085D01*
X103074685Y-110455015D01*
X103074682Y-110455022D01*
X103016191Y-110635040D01*
X103016190Y-110635044D01*
X102996404Y-110823300D01*
X100000500Y-110823300D01*
X100000500Y-107653000D01*
X123254904Y-107653000D01*
X123274690Y-107841256D01*
X123274691Y-107841259D01*
X123333182Y-108021277D01*
X123333185Y-108021284D01*
X123427831Y-108185216D01*
X123554492Y-108325888D01*
X123554493Y-108325888D01*
X123707629Y-108437148D01*
X123707634Y-108437151D01*
X123880556Y-108514142D01*
X123880561Y-108514144D01*
X124065718Y-108553500D01*
X124065719Y-108553500D01*
X124255008Y-108553500D01*
X124255010Y-108553500D01*
X124440167Y-108514144D01*
X124613094Y-108437151D01*
X124766235Y-108325888D01*
X124892897Y-108185216D01*
X124987543Y-108021284D01*
X125046038Y-107841256D01*
X125065824Y-107653000D01*
X125046038Y-107464744D01*
X124987543Y-107284716D01*
X124892897Y-107120784D01*
X124766235Y-106980112D01*
X124766234Y-106980111D01*
X124613098Y-106868851D01*
X124613093Y-106868848D01*
X124440171Y-106791857D01*
X124440166Y-106791855D01*
X124294364Y-106760865D01*
X124255010Y-106752500D01*
X124065718Y-106752500D01*
X124033261Y-106759398D01*
X123880561Y-106791855D01*
X123880556Y-106791857D01*
X123707634Y-106868848D01*
X123707629Y-106868851D01*
X123554493Y-106980111D01*
X123427830Y-107120785D01*
X123333185Y-107284715D01*
X123333182Y-107284722D01*
X123283687Y-107437053D01*
X123274690Y-107464744D01*
X123254904Y-107653000D01*
X100000500Y-107653000D01*
X100000500Y-105743300D01*
X108330404Y-105743300D01*
X108350190Y-105931556D01*
X108350191Y-105931559D01*
X108408682Y-106111577D01*
X108408685Y-106111584D01*
X108503331Y-106275516D01*
X108629993Y-106416187D01*
X108629993Y-106416188D01*
X108783129Y-106527448D01*
X108783134Y-106527451D01*
X108956056Y-106604442D01*
X108956061Y-106604444D01*
X109141218Y-106643800D01*
X109141219Y-106643800D01*
X109330508Y-106643800D01*
X109330510Y-106643800D01*
X109515667Y-106604444D01*
X109688594Y-106527451D01*
X109841735Y-106416188D01*
X109968397Y-106275516D01*
X110044514Y-106143678D01*
X147899500Y-106143678D01*
X147938629Y-106428357D01*
X147938630Y-106428364D01*
X147966392Y-106527448D01*
X148016156Y-106705058D01*
X148016157Y-106705061D01*
X148016158Y-106705063D01*
X148016158Y-106705064D01*
X148130634Y-106968617D01*
X148130639Y-106968625D01*
X148279945Y-107214147D01*
X148461292Y-107437053D01*
X148587104Y-107554554D01*
X148671299Y-107633187D01*
X148699368Y-107653000D01*
X148906064Y-107798901D01*
X149161203Y-107931104D01*
X149431968Y-108027334D01*
X149713314Y-108085798D01*
X149928248Y-108100500D01*
X149928253Y-108100500D01*
X150071747Y-108100500D01*
X150071752Y-108100500D01*
X150286686Y-108085798D01*
X150568032Y-108027334D01*
X150838797Y-107931104D01*
X151093936Y-107798901D01*
X151300632Y-107653000D01*
X167097040Y-107653000D01*
X167116826Y-107841256D01*
X167116827Y-107841259D01*
X167175318Y-108021277D01*
X167175321Y-108021284D01*
X167269967Y-108185216D01*
X167396629Y-108325888D01*
X167549765Y-108437148D01*
X167549770Y-108437151D01*
X167722692Y-108514142D01*
X167722697Y-108514144D01*
X167907854Y-108553500D01*
X167907855Y-108553500D01*
X168097144Y-108553500D01*
X168097146Y-108553500D01*
X168282303Y-108514144D01*
X168455230Y-108437151D01*
X168608371Y-108325888D01*
X168735033Y-108185216D01*
X168829679Y-108021284D01*
X168888174Y-107841256D01*
X168907960Y-107653000D01*
X168888174Y-107464744D01*
X168829679Y-107284716D01*
X168735033Y-107120784D01*
X168608371Y-106980112D01*
X168608370Y-106980111D01*
X168455234Y-106868851D01*
X168455229Y-106868848D01*
X168282307Y-106791857D01*
X168282302Y-106791855D01*
X168136501Y-106760865D01*
X168097146Y-106752500D01*
X167907854Y-106752500D01*
X167875397Y-106759398D01*
X167722697Y-106791855D01*
X167722692Y-106791857D01*
X167549770Y-106868848D01*
X167549765Y-106868851D01*
X167396629Y-106980111D01*
X167269966Y-107120785D01*
X167175321Y-107284715D01*
X167175318Y-107284722D01*
X167125823Y-107437053D01*
X167116826Y-107464744D01*
X167097040Y-107653000D01*
X151300632Y-107653000D01*
X151328698Y-107633189D01*
X151538708Y-107437053D01*
X151720055Y-107214147D01*
X151869361Y-106968625D01*
X151869363Y-106968620D01*
X151869365Y-106968617D01*
X151983841Y-106705064D01*
X151983844Y-106705058D01*
X152061371Y-106428358D01*
X152100500Y-106143678D01*
X152100500Y-105856322D01*
X152084965Y-105743300D01*
X188748540Y-105743300D01*
X188768326Y-105931556D01*
X188768327Y-105931559D01*
X188826818Y-106111577D01*
X188826821Y-106111584D01*
X188921467Y-106275516D01*
X189048128Y-106416188D01*
X189048129Y-106416188D01*
X189201265Y-106527448D01*
X189201270Y-106527451D01*
X189374192Y-106604442D01*
X189374197Y-106604444D01*
X189559354Y-106643800D01*
X189559355Y-106643800D01*
X189748644Y-106643800D01*
X189748646Y-106643800D01*
X189933803Y-106604444D01*
X190106730Y-106527451D01*
X190259871Y-106416188D01*
X190386533Y-106275516D01*
X190481179Y-106111584D01*
X190539674Y-105931556D01*
X190559460Y-105743300D01*
X190539674Y-105555044D01*
X190481179Y-105375016D01*
X190386533Y-105211084D01*
X190259871Y-105070412D01*
X190206151Y-105031382D01*
X190106734Y-104959151D01*
X190106729Y-104959148D01*
X189933807Y-104882157D01*
X189933802Y-104882155D01*
X189788000Y-104851165D01*
X189748646Y-104842800D01*
X189559354Y-104842800D01*
X189526897Y-104849698D01*
X189374197Y-104882155D01*
X189374192Y-104882157D01*
X189201270Y-104959148D01*
X189201265Y-104959151D01*
X189048129Y-105070411D01*
X188921466Y-105211085D01*
X188826821Y-105375015D01*
X188826818Y-105375022D01*
X188768327Y-105555040D01*
X188768326Y-105555044D01*
X188748540Y-105743300D01*
X152084965Y-105743300D01*
X152061371Y-105571642D01*
X151983844Y-105294942D01*
X151947420Y-105211085D01*
X151869365Y-105031382D01*
X151825438Y-104959148D01*
X151720055Y-104785853D01*
X151538708Y-104562947D01*
X151417924Y-104450142D01*
X151328700Y-104366812D01*
X151093935Y-104201098D01*
X150838793Y-104068894D01*
X150568037Y-103972667D01*
X150568034Y-103972666D01*
X150391509Y-103935984D01*
X150286686Y-103914202D01*
X150286684Y-103914201D01*
X150286680Y-103914201D01*
X150150654Y-103904897D01*
X150071752Y-103899500D01*
X149928248Y-103899500D01*
X149854742Y-103904527D01*
X149713319Y-103914201D01*
X149431965Y-103972666D01*
X149431962Y-103972667D01*
X149161206Y-104068894D01*
X148906064Y-104201098D01*
X148671299Y-104366812D01*
X148461289Y-104562950D01*
X148279944Y-104785853D01*
X148130634Y-105031382D01*
X148016158Y-105294935D01*
X148016158Y-105294936D01*
X147938630Y-105571635D01*
X147938629Y-105571642D01*
X147899500Y-105856321D01*
X147899500Y-106143678D01*
X110044514Y-106143678D01*
X110063043Y-106111584D01*
X110121538Y-105931556D01*
X110141324Y-105743300D01*
X110121538Y-105555044D01*
X110063043Y-105375016D01*
X109968397Y-105211084D01*
X109841735Y-105070412D01*
X109788015Y-105031382D01*
X109688598Y-104959151D01*
X109688593Y-104959148D01*
X109515671Y-104882157D01*
X109515666Y-104882155D01*
X109369865Y-104851165D01*
X109330510Y-104842800D01*
X109141218Y-104842800D01*
X109108761Y-104849698D01*
X108956061Y-104882155D01*
X108956056Y-104882157D01*
X108783134Y-104959148D01*
X108783129Y-104959151D01*
X108629993Y-105070411D01*
X108503330Y-105211085D01*
X108408685Y-105375015D01*
X108408682Y-105375022D01*
X108350191Y-105555040D01*
X108350190Y-105555044D01*
X108330404Y-105743300D01*
X100000500Y-105743300D01*
X100000500Y-103589000D01*
X129604904Y-103589000D01*
X129624690Y-103777256D01*
X129624691Y-103777259D01*
X129683182Y-103957277D01*
X129683185Y-103957284D01*
X129777831Y-104121216D01*
X129904492Y-104261888D01*
X129904493Y-104261888D01*
X130057629Y-104373148D01*
X130057634Y-104373151D01*
X130230556Y-104450142D01*
X130230561Y-104450144D01*
X130415718Y-104489500D01*
X130415719Y-104489500D01*
X130605008Y-104489500D01*
X130605010Y-104489500D01*
X130790167Y-104450144D01*
X130963094Y-104373151D01*
X131116235Y-104261888D01*
X131242897Y-104121216D01*
X131337543Y-103957284D01*
X131396038Y-103777256D01*
X131415824Y-103589000D01*
X173447040Y-103589000D01*
X173466826Y-103777256D01*
X173466827Y-103777259D01*
X173525318Y-103957277D01*
X173525321Y-103957284D01*
X173619967Y-104121216D01*
X173746629Y-104261888D01*
X173899765Y-104373148D01*
X173899770Y-104373151D01*
X174072692Y-104450142D01*
X174072697Y-104450144D01*
X174257854Y-104489500D01*
X174257855Y-104489500D01*
X174447144Y-104489500D01*
X174447146Y-104489500D01*
X174632303Y-104450144D01*
X174805230Y-104373151D01*
X174958371Y-104261888D01*
X175085033Y-104121216D01*
X175179679Y-103957284D01*
X175238174Y-103777256D01*
X175257960Y-103589000D01*
X175238174Y-103400744D01*
X175179679Y-103220716D01*
X175085033Y-103056784D01*
X174958371Y-102916112D01*
X174958370Y-102916111D01*
X174805234Y-102804851D01*
X174805229Y-102804848D01*
X174632307Y-102727857D01*
X174632302Y-102727855D01*
X174486500Y-102696865D01*
X174447146Y-102688500D01*
X174257854Y-102688500D01*
X174225397Y-102695398D01*
X174072697Y-102727855D01*
X174072692Y-102727857D01*
X173899770Y-102804848D01*
X173899765Y-102804851D01*
X173746629Y-102916111D01*
X173619966Y-103056785D01*
X173525321Y-103220715D01*
X173525318Y-103220722D01*
X173466827Y-103400740D01*
X173466826Y-103400744D01*
X173447040Y-103589000D01*
X131415824Y-103589000D01*
X131396038Y-103400744D01*
X131337543Y-103220716D01*
X131242897Y-103056784D01*
X131116235Y-102916112D01*
X131116234Y-102916111D01*
X130963098Y-102804851D01*
X130963093Y-102804848D01*
X130790171Y-102727857D01*
X130790166Y-102727855D01*
X130644364Y-102696865D01*
X130605010Y-102688500D01*
X130415718Y-102688500D01*
X130383261Y-102695398D01*
X130230561Y-102727855D01*
X130230556Y-102727857D01*
X130057634Y-102804848D01*
X130057629Y-102804851D01*
X129904493Y-102916111D01*
X129777830Y-103056785D01*
X129683185Y-103220715D01*
X129683182Y-103220722D01*
X129624691Y-103400740D01*
X129624690Y-103400744D01*
X129604904Y-103589000D01*
X100000500Y-103589000D01*
X100000500Y-100917300D01*
X103022404Y-100917300D01*
X103042190Y-101105556D01*
X103042191Y-101105559D01*
X103100682Y-101285577D01*
X103100685Y-101285584D01*
X103195331Y-101449516D01*
X103321993Y-101590187D01*
X103321993Y-101590188D01*
X103475129Y-101701448D01*
X103475134Y-101701451D01*
X103648056Y-101778442D01*
X103648061Y-101778444D01*
X103833218Y-101817800D01*
X103833219Y-101817800D01*
X104022508Y-101817800D01*
X104022510Y-101817800D01*
X104207667Y-101778444D01*
X104380594Y-101701451D01*
X104533735Y-101590188D01*
X104660397Y-101449516D01*
X104755043Y-101285584D01*
X104813538Y-101105556D01*
X104833324Y-100917300D01*
X104813765Y-100731200D01*
X123254904Y-100731200D01*
X123274690Y-100919456D01*
X123274691Y-100919459D01*
X123333182Y-101099477D01*
X123333185Y-101099484D01*
X123427831Y-101263416D01*
X123554493Y-101404087D01*
X123554493Y-101404088D01*
X123707629Y-101515348D01*
X123707634Y-101515351D01*
X123880556Y-101592342D01*
X123880561Y-101592344D01*
X124065718Y-101631700D01*
X124065719Y-101631700D01*
X124255008Y-101631700D01*
X124255010Y-101631700D01*
X124440167Y-101592344D01*
X124613094Y-101515351D01*
X124766235Y-101404088D01*
X124892897Y-101263416D01*
X124987543Y-101099484D01*
X125046038Y-100919456D01*
X125065824Y-100731200D01*
X125046038Y-100542944D01*
X124987543Y-100362916D01*
X124892897Y-100198984D01*
X124766235Y-100058312D01*
X124763268Y-100056156D01*
X124685976Y-100000000D01*
X146094540Y-100000000D01*
X146114326Y-100188256D01*
X146114327Y-100188259D01*
X146172818Y-100368277D01*
X146172821Y-100368284D01*
X146267467Y-100532216D01*
X146394128Y-100672887D01*
X146394129Y-100672888D01*
X146547265Y-100784148D01*
X146547270Y-100784151D01*
X146720192Y-100861142D01*
X146720197Y-100861144D01*
X146905354Y-100900500D01*
X146905355Y-100900500D01*
X147094644Y-100900500D01*
X147094646Y-100900500D01*
X147279803Y-100861144D01*
X147452730Y-100784151D01*
X147525611Y-100731200D01*
X167097040Y-100731200D01*
X167116826Y-100919456D01*
X167116827Y-100919459D01*
X167175318Y-101099477D01*
X167175321Y-101099484D01*
X167269967Y-101263416D01*
X167396629Y-101404088D01*
X167549765Y-101515348D01*
X167549770Y-101515351D01*
X167722692Y-101592342D01*
X167722697Y-101592344D01*
X167907854Y-101631700D01*
X167907855Y-101631700D01*
X168097144Y-101631700D01*
X168097146Y-101631700D01*
X168282303Y-101592344D01*
X168455230Y-101515351D01*
X168608371Y-101404088D01*
X168735033Y-101263416D01*
X168829679Y-101099484D01*
X168888174Y-100919456D01*
X168888401Y-100917300D01*
X183440540Y-100917300D01*
X183460326Y-101105556D01*
X183460327Y-101105559D01*
X183518818Y-101285577D01*
X183518821Y-101285584D01*
X183613467Y-101449516D01*
X183740129Y-101590187D01*
X183740129Y-101590188D01*
X183893265Y-101701448D01*
X183893270Y-101701451D01*
X184066192Y-101778442D01*
X184066197Y-101778444D01*
X184251354Y-101817800D01*
X184251355Y-101817800D01*
X184440644Y-101817800D01*
X184440646Y-101817800D01*
X184625803Y-101778444D01*
X184798730Y-101701451D01*
X184951871Y-101590188D01*
X185078533Y-101449516D01*
X185173179Y-101285584D01*
X185231674Y-101105556D01*
X185251460Y-100917300D01*
X185231674Y-100729044D01*
X185173179Y-100549016D01*
X185078533Y-100385084D01*
X184951871Y-100244412D01*
X184951870Y-100244411D01*
X184798734Y-100133151D01*
X184798729Y-100133148D01*
X184625807Y-100056157D01*
X184625802Y-100056155D01*
X184480000Y-100025165D01*
X184440646Y-100016800D01*
X184251354Y-100016800D01*
X184218897Y-100023698D01*
X184066197Y-100056155D01*
X184066192Y-100056157D01*
X183893270Y-100133148D01*
X183893265Y-100133151D01*
X183740129Y-100244411D01*
X183613466Y-100385085D01*
X183518821Y-100549015D01*
X183518818Y-100549022D01*
X183478572Y-100672888D01*
X183460326Y-100729044D01*
X183440540Y-100917300D01*
X168888401Y-100917300D01*
X168907960Y-100731200D01*
X168888174Y-100542944D01*
X168829679Y-100362916D01*
X168735033Y-100198984D01*
X168608371Y-100058312D01*
X168605404Y-100056156D01*
X168455234Y-99947051D01*
X168455229Y-99947048D01*
X168282307Y-99870057D01*
X168282302Y-99870055D01*
X168136500Y-99839065D01*
X168097146Y-99830700D01*
X167907854Y-99830700D01*
X167875397Y-99837598D01*
X167722697Y-99870055D01*
X167722692Y-99870057D01*
X167549770Y-99947048D01*
X167549765Y-99947051D01*
X167396629Y-100058311D01*
X167269966Y-100198985D01*
X167175321Y-100362915D01*
X167175318Y-100362922D01*
X167116827Y-100542940D01*
X167116826Y-100542944D01*
X167097040Y-100731200D01*
X147525611Y-100731200D01*
X147605871Y-100672888D01*
X147732533Y-100532216D01*
X147827179Y-100368284D01*
X147885674Y-100188256D01*
X147905460Y-100000000D01*
X147885674Y-99811744D01*
X147827179Y-99631716D01*
X147732533Y-99467784D01*
X147605871Y-99327112D01*
X147605870Y-99327111D01*
X147452734Y-99215851D01*
X147452729Y-99215848D01*
X147279807Y-99138857D01*
X147279802Y-99138855D01*
X147134000Y-99107865D01*
X147094646Y-99099500D01*
X146905354Y-99099500D01*
X146872897Y-99106398D01*
X146720197Y-99138855D01*
X146720192Y-99138857D01*
X146547270Y-99215848D01*
X146547265Y-99215851D01*
X146394129Y-99327111D01*
X146267466Y-99467785D01*
X146172821Y-99631715D01*
X146172818Y-99631722D01*
X146114327Y-99811740D01*
X146114326Y-99811744D01*
X146094540Y-100000000D01*
X124685976Y-100000000D01*
X124613098Y-99947051D01*
X124613093Y-99947048D01*
X124440171Y-99870057D01*
X124440166Y-99870055D01*
X124294365Y-99839065D01*
X124255010Y-99830700D01*
X124065718Y-99830700D01*
X124033261Y-99837598D01*
X123880561Y-99870055D01*
X123880556Y-99870057D01*
X123707634Y-99947048D01*
X123707629Y-99947051D01*
X123554493Y-100058311D01*
X123427830Y-100198985D01*
X123333185Y-100362915D01*
X123333182Y-100362922D01*
X123274691Y-100542940D01*
X123274690Y-100542944D01*
X123254904Y-100731200D01*
X104813765Y-100731200D01*
X104813538Y-100729044D01*
X104755043Y-100549016D01*
X104660397Y-100385084D01*
X104533735Y-100244412D01*
X104533734Y-100244411D01*
X104380598Y-100133151D01*
X104380593Y-100133148D01*
X104207671Y-100056157D01*
X104207666Y-100056155D01*
X104061865Y-100025165D01*
X104022510Y-100016800D01*
X103833218Y-100016800D01*
X103800761Y-100023698D01*
X103648061Y-100056155D01*
X103648056Y-100056157D01*
X103475134Y-100133148D01*
X103475129Y-100133151D01*
X103321993Y-100244411D01*
X103195330Y-100385085D01*
X103100685Y-100549015D01*
X103100682Y-100549022D01*
X103060436Y-100672888D01*
X103042190Y-100729044D01*
X103022404Y-100917300D01*
X100000500Y-100917300D01*
X100000500Y-95964300D01*
X108356404Y-95964300D01*
X108376190Y-96152556D01*
X108376191Y-96152559D01*
X108434682Y-96332577D01*
X108434685Y-96332584D01*
X108529331Y-96496516D01*
X108655993Y-96637188D01*
X108809129Y-96748448D01*
X108809134Y-96748451D01*
X108982056Y-96825442D01*
X108982061Y-96825444D01*
X109167218Y-96864800D01*
X109167219Y-96864800D01*
X109356508Y-96864800D01*
X109356510Y-96864800D01*
X109541667Y-96825444D01*
X109714594Y-96748451D01*
X109867735Y-96637188D01*
X109994397Y-96496516D01*
X110089043Y-96332584D01*
X110147538Y-96152556D01*
X110167324Y-95964300D01*
X110147538Y-95776044D01*
X110106973Y-95651200D01*
X129410204Y-95651200D01*
X129429990Y-95839456D01*
X129429991Y-95839459D01*
X129488482Y-96019477D01*
X129488485Y-96019484D01*
X129583131Y-96183416D01*
X129709792Y-96324087D01*
X129709793Y-96324088D01*
X129862929Y-96435348D01*
X129862934Y-96435351D01*
X130035856Y-96512342D01*
X130035861Y-96512344D01*
X130221018Y-96551700D01*
X130221019Y-96551700D01*
X130410308Y-96551700D01*
X130410310Y-96551700D01*
X130595467Y-96512344D01*
X130768394Y-96435351D01*
X130921535Y-96324088D01*
X131048197Y-96183416D01*
X131142843Y-96019484D01*
X131201338Y-95839456D01*
X131221124Y-95651200D01*
X131201338Y-95462944D01*
X131142843Y-95282916D01*
X131048197Y-95118984D01*
X130941063Y-95000000D01*
X157094540Y-95000000D01*
X157114326Y-95188256D01*
X157114327Y-95188259D01*
X157172818Y-95368277D01*
X157172821Y-95368284D01*
X157267467Y-95532216D01*
X157374600Y-95651199D01*
X157394129Y-95672888D01*
X157547265Y-95784148D01*
X157547270Y-95784151D01*
X157720192Y-95861142D01*
X157720197Y-95861144D01*
X157905354Y-95900500D01*
X157905355Y-95900500D01*
X158094644Y-95900500D01*
X158094646Y-95900500D01*
X158279803Y-95861144D01*
X158452730Y-95784151D01*
X158605871Y-95672888D01*
X158625399Y-95651200D01*
X173252340Y-95651200D01*
X173272126Y-95839456D01*
X173272127Y-95839459D01*
X173330618Y-96019477D01*
X173330621Y-96019484D01*
X173425267Y-96183416D01*
X173551928Y-96324088D01*
X173551929Y-96324088D01*
X173705065Y-96435348D01*
X173705070Y-96435351D01*
X173877992Y-96512342D01*
X173877997Y-96512344D01*
X174063154Y-96551700D01*
X174063155Y-96551700D01*
X174252444Y-96551700D01*
X174252446Y-96551700D01*
X174437603Y-96512344D01*
X174610530Y-96435351D01*
X174763671Y-96324088D01*
X174890333Y-96183416D01*
X174984979Y-96019484D01*
X175002909Y-95964300D01*
X188774540Y-95964300D01*
X188794326Y-96152556D01*
X188794327Y-96152559D01*
X188852818Y-96332577D01*
X188852821Y-96332584D01*
X188947467Y-96496516D01*
X189074129Y-96637187D01*
X189074129Y-96637188D01*
X189227265Y-96748448D01*
X189227270Y-96748451D01*
X189400192Y-96825442D01*
X189400197Y-96825444D01*
X189585354Y-96864800D01*
X189585355Y-96864800D01*
X189774644Y-96864800D01*
X189774646Y-96864800D01*
X189959803Y-96825444D01*
X190132730Y-96748451D01*
X190285871Y-96637188D01*
X190412533Y-96496516D01*
X190507179Y-96332584D01*
X190565674Y-96152556D01*
X190585460Y-95964300D01*
X190565674Y-95776044D01*
X190507179Y-95596016D01*
X190412533Y-95432084D01*
X190285871Y-95291412D01*
X190285870Y-95291411D01*
X190132734Y-95180151D01*
X190132729Y-95180148D01*
X189959807Y-95103157D01*
X189959802Y-95103155D01*
X189814001Y-95072165D01*
X189774646Y-95063800D01*
X189585354Y-95063800D01*
X189552897Y-95070698D01*
X189400197Y-95103155D01*
X189400192Y-95103157D01*
X189227270Y-95180148D01*
X189227265Y-95180151D01*
X189074129Y-95291411D01*
X188947466Y-95432085D01*
X188852821Y-95596015D01*
X188852818Y-95596022D01*
X188794327Y-95776040D01*
X188794326Y-95776044D01*
X188774540Y-95964300D01*
X175002909Y-95964300D01*
X175043474Y-95839456D01*
X175063260Y-95651200D01*
X175043474Y-95462944D01*
X174984979Y-95282916D01*
X174890333Y-95118984D01*
X174763671Y-94978312D01*
X174763670Y-94978311D01*
X174610534Y-94867051D01*
X174610529Y-94867048D01*
X174437607Y-94790057D01*
X174437602Y-94790055D01*
X174291801Y-94759065D01*
X174252446Y-94750700D01*
X174063154Y-94750700D01*
X174030697Y-94757598D01*
X173877997Y-94790055D01*
X173877992Y-94790057D01*
X173705070Y-94867048D01*
X173705065Y-94867051D01*
X173551929Y-94978311D01*
X173425266Y-95118985D01*
X173330621Y-95282915D01*
X173330618Y-95282922D01*
X173272127Y-95462940D01*
X173272126Y-95462944D01*
X173252340Y-95651200D01*
X158625399Y-95651200D01*
X158732533Y-95532216D01*
X158827179Y-95368284D01*
X158885674Y-95188256D01*
X158905460Y-95000000D01*
X158885674Y-94811744D01*
X158827179Y-94631716D01*
X158732533Y-94467784D01*
X158605871Y-94327112D01*
X158605870Y-94327111D01*
X158452734Y-94215851D01*
X158452729Y-94215848D01*
X158279807Y-94138857D01*
X158279802Y-94138855D01*
X158134001Y-94107865D01*
X158094646Y-94099500D01*
X157905354Y-94099500D01*
X157872897Y-94106398D01*
X157720197Y-94138855D01*
X157720192Y-94138857D01*
X157547270Y-94215848D01*
X157547265Y-94215851D01*
X157394129Y-94327111D01*
X157267466Y-94467785D01*
X157172821Y-94631715D01*
X157172818Y-94631722D01*
X157114327Y-94811740D01*
X157114326Y-94811744D01*
X157094540Y-95000000D01*
X130941063Y-95000000D01*
X130921535Y-94978312D01*
X130921534Y-94978311D01*
X130768398Y-94867051D01*
X130768393Y-94867048D01*
X130595471Y-94790057D01*
X130595466Y-94790055D01*
X130449664Y-94759065D01*
X130410310Y-94750700D01*
X130221018Y-94750700D01*
X130188561Y-94757598D01*
X130035861Y-94790055D01*
X130035856Y-94790057D01*
X129862934Y-94867048D01*
X129862929Y-94867051D01*
X129709793Y-94978311D01*
X129583130Y-95118985D01*
X129488485Y-95282915D01*
X129488482Y-95282922D01*
X129429991Y-95462940D01*
X129429990Y-95462944D01*
X129410204Y-95651200D01*
X110106973Y-95651200D01*
X110089043Y-95596016D01*
X109994397Y-95432084D01*
X109867735Y-95291412D01*
X109867734Y-95291411D01*
X109714598Y-95180151D01*
X109714593Y-95180148D01*
X109541671Y-95103157D01*
X109541666Y-95103155D01*
X109395864Y-95072165D01*
X109356510Y-95063800D01*
X109167218Y-95063800D01*
X109134761Y-95070698D01*
X108982061Y-95103155D01*
X108982056Y-95103157D01*
X108809134Y-95180148D01*
X108809129Y-95180151D01*
X108655993Y-95291411D01*
X108529330Y-95432085D01*
X108434685Y-95596015D01*
X108434682Y-95596022D01*
X108376191Y-95776040D01*
X108376190Y-95776044D01*
X108356404Y-95964300D01*
X100000500Y-95964300D01*
X100000500Y-93472000D01*
X177148540Y-93472000D01*
X177168326Y-93660256D01*
X177168327Y-93660259D01*
X177226818Y-93840277D01*
X177226821Y-93840284D01*
X177321467Y-94004216D01*
X177442697Y-94138855D01*
X177448129Y-94144888D01*
X177601265Y-94256148D01*
X177601270Y-94256151D01*
X177774192Y-94333142D01*
X177774197Y-94333144D01*
X177959354Y-94372500D01*
X177959355Y-94372500D01*
X178148644Y-94372500D01*
X178148646Y-94372500D01*
X178333803Y-94333144D01*
X178506730Y-94256151D01*
X178659871Y-94144888D01*
X178786533Y-94004216D01*
X178864889Y-93868500D01*
X189282540Y-93868500D01*
X189302326Y-94056756D01*
X189302327Y-94056759D01*
X189360818Y-94236777D01*
X189360821Y-94236784D01*
X189455467Y-94400716D01*
X189582128Y-94541388D01*
X189582129Y-94541388D01*
X189735265Y-94652648D01*
X189735270Y-94652651D01*
X189908192Y-94729642D01*
X189908197Y-94729644D01*
X190093354Y-94769000D01*
X190093355Y-94769000D01*
X190282644Y-94769000D01*
X190282646Y-94769000D01*
X190467803Y-94729644D01*
X190640730Y-94652651D01*
X190793871Y-94541388D01*
X190920533Y-94400716D01*
X191015179Y-94236784D01*
X191073674Y-94056756D01*
X191093460Y-93868500D01*
X191073674Y-93680244D01*
X191015179Y-93500216D01*
X190920533Y-93336284D01*
X190793871Y-93195612D01*
X190793870Y-93195611D01*
X190640734Y-93084351D01*
X190640729Y-93084348D01*
X190467807Y-93007357D01*
X190467802Y-93007355D01*
X190322001Y-92976365D01*
X190282646Y-92968000D01*
X190093354Y-92968000D01*
X190060897Y-92974898D01*
X189908197Y-93007355D01*
X189908192Y-93007357D01*
X189735270Y-93084348D01*
X189735265Y-93084351D01*
X189582129Y-93195611D01*
X189455466Y-93336285D01*
X189360821Y-93500215D01*
X189360818Y-93500222D01*
X189302327Y-93680240D01*
X189302326Y-93680244D01*
X189282540Y-93868500D01*
X178864889Y-93868500D01*
X178881179Y-93840284D01*
X178939674Y-93660256D01*
X178959460Y-93472000D01*
X178939674Y-93283744D01*
X178881179Y-93103716D01*
X178786533Y-92939784D01*
X178659871Y-92799112D01*
X178659870Y-92799111D01*
X178506734Y-92687851D01*
X178506729Y-92687848D01*
X178333807Y-92610857D01*
X178333802Y-92610855D01*
X178188001Y-92579865D01*
X178148646Y-92571500D01*
X177959354Y-92571500D01*
X177926897Y-92578398D01*
X177774197Y-92610855D01*
X177774192Y-92610857D01*
X177601270Y-92687848D01*
X177601265Y-92687851D01*
X177448129Y-92799111D01*
X177321466Y-92939785D01*
X177226821Y-93103715D01*
X177226818Y-93103722D01*
X177168327Y-93283740D01*
X177168326Y-93283744D01*
X177148540Y-93472000D01*
X100000500Y-93472000D01*
X100000500Y-89199800D01*
X101057141Y-89199800D01*
X101077736Y-89435203D01*
X101077738Y-89435213D01*
X101138894Y-89663455D01*
X101138896Y-89663459D01*
X101138897Y-89663463D01*
X101238765Y-89877629D01*
X101238765Y-89877630D01*
X101238767Y-89877634D01*
X101347081Y-90032321D01*
X101374305Y-90071201D01*
X101541399Y-90238295D01*
X101638184Y-90306064D01*
X101734965Y-90373832D01*
X101734967Y-90373833D01*
X101734970Y-90373835D01*
X101949137Y-90473703D01*
X102177392Y-90534863D01*
X102365718Y-90551339D01*
X102412799Y-90555459D01*
X102412800Y-90555459D01*
X102412801Y-90555459D01*
X102452034Y-90552026D01*
X102648208Y-90534863D01*
X102876463Y-90473703D01*
X103090630Y-90373835D01*
X103284201Y-90238295D01*
X103451295Y-90071201D01*
X103586835Y-89877630D01*
X103686703Y-89663463D01*
X103747863Y-89435208D01*
X103768459Y-89199800D01*
X103747863Y-88964392D01*
X103701426Y-88791085D01*
X103686705Y-88736144D01*
X103686704Y-88736143D01*
X103686703Y-88736137D01*
X103586835Y-88521971D01*
X103477343Y-88365600D01*
X103451296Y-88328400D01*
X103403898Y-88281002D01*
X103329367Y-88206471D01*
X103295884Y-88145151D01*
X103300868Y-88075459D01*
X103342739Y-88019525D01*
X103373715Y-88002610D01*
X103505131Y-87953596D01*
X103620346Y-87867346D01*
X103706596Y-87752131D01*
X103756891Y-87617283D01*
X103763300Y-87557673D01*
X103763300Y-86868000D01*
X110346540Y-86868000D01*
X110366326Y-87056256D01*
X110366327Y-87056259D01*
X110424818Y-87236277D01*
X110424821Y-87236284D01*
X110519467Y-87400216D01*
X110617496Y-87509088D01*
X110646129Y-87540888D01*
X110799265Y-87652148D01*
X110799270Y-87652151D01*
X110972192Y-87729142D01*
X110972197Y-87729144D01*
X111157354Y-87768500D01*
X111157355Y-87768500D01*
X111346644Y-87768500D01*
X111346646Y-87768500D01*
X111531803Y-87729144D01*
X111704730Y-87652151D01*
X111857871Y-87540888D01*
X111984533Y-87400216D01*
X112079179Y-87236284D01*
X112137674Y-87056256D01*
X112157460Y-86868000D01*
X119236540Y-86868000D01*
X119256326Y-87056256D01*
X119256327Y-87056259D01*
X119314818Y-87236277D01*
X119314821Y-87236284D01*
X119409467Y-87400216D01*
X119507496Y-87509088D01*
X119536129Y-87540888D01*
X119689265Y-87652148D01*
X119689270Y-87652151D01*
X119862192Y-87729142D01*
X119862197Y-87729144D01*
X120047354Y-87768500D01*
X120047355Y-87768500D01*
X120236644Y-87768500D01*
X120236646Y-87768500D01*
X120421803Y-87729144D01*
X120594730Y-87652151D01*
X120747871Y-87540888D01*
X120874533Y-87400216D01*
X120969179Y-87236284D01*
X121027674Y-87056256D01*
X121047460Y-86868000D01*
X121029644Y-86698486D01*
X127741089Y-86698486D01*
X127761684Y-86933889D01*
X127761686Y-86933899D01*
X127822842Y-87162141D01*
X127822844Y-87162145D01*
X127822845Y-87162149D01*
X127857412Y-87236277D01*
X127922713Y-87376316D01*
X127922715Y-87376320D01*
X128015681Y-87509088D01*
X128058249Y-87569882D01*
X128058254Y-87569888D01*
X128180178Y-87691812D01*
X128213663Y-87753135D01*
X128208679Y-87822827D01*
X128166807Y-87878760D01*
X128135831Y-87895675D01*
X128004417Y-87944689D01*
X128004412Y-87944692D01*
X127889203Y-88030938D01*
X127889200Y-88030941D01*
X127802954Y-88146150D01*
X127802950Y-88146157D01*
X127752656Y-88281003D01*
X127747561Y-88328399D01*
X127746249Y-88340609D01*
X127746248Y-88340621D01*
X127746248Y-90136356D01*
X127746249Y-90136362D01*
X127752656Y-90195969D01*
X127802950Y-90330814D01*
X127802954Y-90330821D01*
X127889200Y-90446030D01*
X127889203Y-90446033D01*
X128004412Y-90532279D01*
X128004419Y-90532283D01*
X128139265Y-90582577D01*
X128139264Y-90582577D01*
X128146192Y-90583321D01*
X128198875Y-90588986D01*
X129994620Y-90588985D01*
X130054231Y-90582577D01*
X130189079Y-90532282D01*
X130304294Y-90446032D01*
X130390544Y-90330817D01*
X130440839Y-90195969D01*
X130447248Y-90136359D01*
X130447247Y-89237000D01*
X169483341Y-89237000D01*
X169503936Y-89472403D01*
X169503938Y-89472413D01*
X169565094Y-89700655D01*
X169565096Y-89700659D01*
X169565097Y-89700663D01*
X169647618Y-89877630D01*
X169664965Y-89914830D01*
X169664967Y-89914834D01*
X169773281Y-90069521D01*
X169800505Y-90108401D01*
X169967599Y-90275495D01*
X170046603Y-90330814D01*
X170161165Y-90411032D01*
X170161167Y-90411033D01*
X170161170Y-90411035D01*
X170375337Y-90510903D01*
X170603592Y-90572063D01*
X170791918Y-90588539D01*
X170838999Y-90592659D01*
X170839000Y-90592659D01*
X170839001Y-90592659D01*
X170881004Y-90588984D01*
X171074408Y-90572063D01*
X171302663Y-90510903D01*
X171516830Y-90411035D01*
X171710401Y-90275495D01*
X171877495Y-90108401D01*
X172013035Y-89914830D01*
X172112903Y-89700663D01*
X172174063Y-89472408D01*
X172194659Y-89237000D01*
X172174063Y-89001592D01*
X172112903Y-88773337D01*
X172013035Y-88559171D01*
X171986987Y-88521971D01*
X171877496Y-88365600D01*
X171840295Y-88328399D01*
X171755567Y-88243671D01*
X171722084Y-88182351D01*
X171727068Y-88112659D01*
X171768939Y-88056725D01*
X171799915Y-88039810D01*
X171931331Y-87990796D01*
X172046546Y-87904546D01*
X172132796Y-87789331D01*
X172183091Y-87654483D01*
X172189500Y-87594873D01*
X172189500Y-86836200D01*
X178834340Y-86836200D01*
X178854126Y-87024456D01*
X178854127Y-87024459D01*
X178912618Y-87204477D01*
X178912621Y-87204484D01*
X179007267Y-87368416D01*
X179133929Y-87509088D01*
X179287065Y-87620348D01*
X179287070Y-87620351D01*
X179459992Y-87697342D01*
X179459997Y-87697344D01*
X179645154Y-87736700D01*
X179645155Y-87736700D01*
X179834444Y-87736700D01*
X179834446Y-87736700D01*
X180019603Y-87697344D01*
X180192530Y-87620351D01*
X180345671Y-87509088D01*
X180472333Y-87368416D01*
X180566979Y-87204484D01*
X180625474Y-87024456D01*
X180645260Y-86836200D01*
X187851340Y-86836200D01*
X187871126Y-87024456D01*
X187871127Y-87024459D01*
X187929618Y-87204477D01*
X187929621Y-87204484D01*
X188024267Y-87368416D01*
X188150929Y-87509088D01*
X188304065Y-87620348D01*
X188304070Y-87620351D01*
X188476992Y-87697342D01*
X188476997Y-87697344D01*
X188662154Y-87736700D01*
X188662155Y-87736700D01*
X188851444Y-87736700D01*
X188851446Y-87736700D01*
X189036603Y-87697344D01*
X189209530Y-87620351D01*
X189362671Y-87509088D01*
X189489333Y-87368416D01*
X189583979Y-87204484D01*
X189642474Y-87024456D01*
X189662260Y-86836200D01*
X189648681Y-86707000D01*
X196283341Y-86707000D01*
X196303936Y-86942403D01*
X196303938Y-86942413D01*
X196365094Y-87170655D01*
X196365096Y-87170659D01*
X196365097Y-87170663D01*
X196395697Y-87236284D01*
X196464965Y-87384830D01*
X196464967Y-87384834D01*
X196475738Y-87400216D01*
X196600501Y-87578396D01*
X196600506Y-87578402D01*
X196722430Y-87700326D01*
X196755915Y-87761649D01*
X196750931Y-87831341D01*
X196709059Y-87887274D01*
X196678083Y-87904189D01*
X196546669Y-87953203D01*
X196546664Y-87953206D01*
X196431455Y-88039452D01*
X196431452Y-88039455D01*
X196345206Y-88154664D01*
X196345202Y-88154671D01*
X196294908Y-88289517D01*
X196288501Y-88349116D01*
X196288501Y-88349123D01*
X196288500Y-88349135D01*
X196288500Y-90144870D01*
X196288501Y-90144876D01*
X196294908Y-90204483D01*
X196345202Y-90339328D01*
X196345206Y-90339335D01*
X196431452Y-90454544D01*
X196431455Y-90454547D01*
X196546664Y-90540793D01*
X196546671Y-90540797D01*
X196681517Y-90591091D01*
X196681516Y-90591091D01*
X196688444Y-90591835D01*
X196741127Y-90597500D01*
X198536872Y-90597499D01*
X198596483Y-90591091D01*
X198731331Y-90540796D01*
X198846546Y-90454546D01*
X198932796Y-90339331D01*
X198983091Y-90204483D01*
X198989500Y-90144873D01*
X198989499Y-88349128D01*
X198983091Y-88289517D01*
X198979915Y-88281003D01*
X198932797Y-88154671D01*
X198932793Y-88154664D01*
X198846547Y-88039455D01*
X198846544Y-88039452D01*
X198731335Y-87953206D01*
X198731328Y-87953202D01*
X198599917Y-87904189D01*
X198543983Y-87862318D01*
X198519566Y-87796853D01*
X198534418Y-87728580D01*
X198555563Y-87700332D01*
X198677495Y-87578401D01*
X198813035Y-87384830D01*
X198912903Y-87170663D01*
X198974063Y-86942408D01*
X198994659Y-86707000D01*
X198974063Y-86471592D01*
X198912903Y-86243337D01*
X198813035Y-86029171D01*
X198807074Y-86020657D01*
X198677494Y-85835597D01*
X198510402Y-85668506D01*
X198510395Y-85668501D01*
X198316834Y-85532967D01*
X198316830Y-85532965D01*
X198298572Y-85524451D01*
X198102663Y-85433097D01*
X198102659Y-85433096D01*
X198102655Y-85433094D01*
X197874413Y-85371938D01*
X197874403Y-85371936D01*
X197639001Y-85351341D01*
X197638999Y-85351341D01*
X197403596Y-85371936D01*
X197403586Y-85371938D01*
X197175344Y-85433094D01*
X197175335Y-85433098D01*
X196961171Y-85532964D01*
X196961169Y-85532965D01*
X196767597Y-85668505D01*
X196600505Y-85835597D01*
X196464965Y-86029169D01*
X196464964Y-86029171D01*
X196365098Y-86243335D01*
X196365094Y-86243344D01*
X196303938Y-86471586D01*
X196303936Y-86471596D01*
X196283341Y-86706999D01*
X196283341Y-86707000D01*
X189648681Y-86707000D01*
X189642474Y-86647944D01*
X189583979Y-86467916D01*
X189489333Y-86303984D01*
X189362671Y-86163312D01*
X189362670Y-86163311D01*
X189209534Y-86052051D01*
X189209529Y-86052048D01*
X189036607Y-85975057D01*
X189036602Y-85975055D01*
X188890801Y-85944065D01*
X188851446Y-85935700D01*
X188662154Y-85935700D01*
X188629697Y-85942598D01*
X188476997Y-85975055D01*
X188476992Y-85975057D01*
X188304070Y-86052048D01*
X188304065Y-86052051D01*
X188150929Y-86163311D01*
X188024266Y-86303985D01*
X187929621Y-86467915D01*
X187929618Y-86467922D01*
X187871127Y-86647940D01*
X187871126Y-86647944D01*
X187851340Y-86836200D01*
X180645260Y-86836200D01*
X180625474Y-86647944D01*
X180566979Y-86467916D01*
X180472333Y-86303984D01*
X180345671Y-86163312D01*
X180345670Y-86163311D01*
X180192534Y-86052051D01*
X180192529Y-86052048D01*
X180019607Y-85975057D01*
X180019602Y-85975055D01*
X179873800Y-85944065D01*
X179834446Y-85935700D01*
X179645154Y-85935700D01*
X179612697Y-85942598D01*
X179459997Y-85975055D01*
X179459992Y-85975057D01*
X179287070Y-86052048D01*
X179287065Y-86052051D01*
X179133929Y-86163311D01*
X179007266Y-86303985D01*
X178912621Y-86467915D01*
X178912618Y-86467922D01*
X178854127Y-86647940D01*
X178854126Y-86647944D01*
X178834340Y-86836200D01*
X172189500Y-86836200D01*
X172189499Y-85799128D01*
X172183091Y-85739517D01*
X172169216Y-85702317D01*
X172132797Y-85604671D01*
X172132793Y-85604664D01*
X172046547Y-85489455D01*
X172046544Y-85489452D01*
X171931335Y-85403206D01*
X171931328Y-85403202D01*
X171796482Y-85352908D01*
X171796483Y-85352908D01*
X171736883Y-85346501D01*
X171736881Y-85346500D01*
X171736873Y-85346500D01*
X171736864Y-85346500D01*
X169941129Y-85346500D01*
X169941123Y-85346501D01*
X169881516Y-85352908D01*
X169746671Y-85403202D01*
X169746664Y-85403206D01*
X169631455Y-85489452D01*
X169631452Y-85489455D01*
X169545206Y-85604664D01*
X169545202Y-85604671D01*
X169494908Y-85739517D01*
X169488501Y-85799116D01*
X169488501Y-85799123D01*
X169488500Y-85799135D01*
X169488500Y-87594870D01*
X169488501Y-87594876D01*
X169494908Y-87654483D01*
X169545202Y-87789328D01*
X169545206Y-87789335D01*
X169631452Y-87904544D01*
X169631455Y-87904547D01*
X169746664Y-87990793D01*
X169746671Y-87990797D01*
X169878081Y-88039810D01*
X169934015Y-88081681D01*
X169958432Y-88147145D01*
X169943580Y-88215418D01*
X169922430Y-88243673D01*
X169800503Y-88365600D01*
X169664965Y-88559169D01*
X169664964Y-88559171D01*
X169565098Y-88773335D01*
X169565094Y-88773344D01*
X169503938Y-89001586D01*
X169503936Y-89001596D01*
X169483341Y-89236999D01*
X169483341Y-89237000D01*
X130447247Y-89237000D01*
X130447247Y-88340614D01*
X130440839Y-88281003D01*
X130426916Y-88243674D01*
X130390545Y-88146157D01*
X130390541Y-88146150D01*
X130304295Y-88030941D01*
X130304292Y-88030938D01*
X130189083Y-87944692D01*
X130189076Y-87944688D01*
X130057665Y-87895675D01*
X130001731Y-87853804D01*
X129977314Y-87788339D01*
X129992166Y-87720066D01*
X130013311Y-87691818D01*
X130135243Y-87569887D01*
X130270783Y-87376316D01*
X130370651Y-87162149D01*
X130431811Y-86933894D01*
X130452407Y-86698486D01*
X130431811Y-86463078D01*
X130370651Y-86234823D01*
X130270783Y-86020657D01*
X130261121Y-86006857D01*
X130135242Y-85827083D01*
X129968150Y-85659992D01*
X129968143Y-85659987D01*
X129774582Y-85524453D01*
X129774578Y-85524451D01*
X129699527Y-85489454D01*
X129560411Y-85424583D01*
X129560407Y-85424582D01*
X129560403Y-85424580D01*
X129332161Y-85363424D01*
X129332151Y-85363422D01*
X129096749Y-85342827D01*
X129096747Y-85342827D01*
X128861344Y-85363422D01*
X128861334Y-85363424D01*
X128633092Y-85424580D01*
X128633083Y-85424584D01*
X128418919Y-85524450D01*
X128418917Y-85524451D01*
X128225345Y-85659991D01*
X128058253Y-85827083D01*
X127922713Y-86020655D01*
X127922712Y-86020657D01*
X127822846Y-86234821D01*
X127822842Y-86234830D01*
X127761686Y-86463072D01*
X127761684Y-86463082D01*
X127741089Y-86698485D01*
X127741089Y-86698486D01*
X121029644Y-86698486D01*
X121027674Y-86679744D01*
X120969179Y-86499716D01*
X120874533Y-86335784D01*
X120747871Y-86195112D01*
X120747870Y-86195111D01*
X120594734Y-86083851D01*
X120594729Y-86083848D01*
X120421807Y-86006857D01*
X120421802Y-86006855D01*
X120272190Y-85975055D01*
X120236646Y-85967500D01*
X120047354Y-85967500D01*
X120014897Y-85974398D01*
X119862197Y-86006855D01*
X119862192Y-86006857D01*
X119689270Y-86083848D01*
X119689265Y-86083851D01*
X119536129Y-86195111D01*
X119409466Y-86335785D01*
X119314821Y-86499715D01*
X119314818Y-86499722D01*
X119256327Y-86679740D01*
X119256326Y-86679744D01*
X119236540Y-86868000D01*
X112157460Y-86868000D01*
X112137674Y-86679744D01*
X112079179Y-86499716D01*
X111984533Y-86335784D01*
X111857871Y-86195112D01*
X111857870Y-86195111D01*
X111704734Y-86083851D01*
X111704729Y-86083848D01*
X111531807Y-86006857D01*
X111531802Y-86006855D01*
X111382190Y-85975055D01*
X111346646Y-85967500D01*
X111157354Y-85967500D01*
X111124897Y-85974398D01*
X110972197Y-86006855D01*
X110972192Y-86006857D01*
X110799270Y-86083848D01*
X110799265Y-86083851D01*
X110646129Y-86195111D01*
X110519466Y-86335785D01*
X110424821Y-86499715D01*
X110424818Y-86499722D01*
X110366327Y-86679740D01*
X110366326Y-86679744D01*
X110346540Y-86868000D01*
X103763300Y-86868000D01*
X103763299Y-85761928D01*
X103756891Y-85702317D01*
X103744280Y-85668506D01*
X103706597Y-85567471D01*
X103706593Y-85567464D01*
X103620347Y-85452255D01*
X103620344Y-85452252D01*
X103505135Y-85366006D01*
X103505128Y-85366002D01*
X103370282Y-85315708D01*
X103370283Y-85315708D01*
X103310683Y-85309301D01*
X103310681Y-85309300D01*
X103310673Y-85309300D01*
X103310664Y-85309300D01*
X101514929Y-85309300D01*
X101514923Y-85309301D01*
X101455316Y-85315708D01*
X101320471Y-85366002D01*
X101320464Y-85366006D01*
X101205255Y-85452252D01*
X101205252Y-85452255D01*
X101119006Y-85567464D01*
X101119002Y-85567471D01*
X101068708Y-85702317D01*
X101064709Y-85739517D01*
X101062301Y-85761923D01*
X101062300Y-85761935D01*
X101062300Y-87557670D01*
X101062301Y-87557676D01*
X101068708Y-87617283D01*
X101119002Y-87752128D01*
X101119006Y-87752135D01*
X101205252Y-87867344D01*
X101205255Y-87867347D01*
X101320464Y-87953593D01*
X101320471Y-87953597D01*
X101451881Y-88002610D01*
X101507815Y-88044481D01*
X101532232Y-88109945D01*
X101517380Y-88178218D01*
X101496230Y-88206473D01*
X101374303Y-88328400D01*
X101238765Y-88521969D01*
X101238764Y-88521971D01*
X101138898Y-88736135D01*
X101138894Y-88736144D01*
X101077738Y-88964386D01*
X101077736Y-88964396D01*
X101057141Y-89199799D01*
X101057141Y-89199800D01*
X100000500Y-89199800D01*
X100000500Y-79633486D01*
X114821288Y-79633486D01*
X114841074Y-79821742D01*
X114841075Y-79821745D01*
X114899566Y-80001763D01*
X114899569Y-80001770D01*
X114994215Y-80165702D01*
X115018989Y-80193216D01*
X115120877Y-80306374D01*
X115274013Y-80417634D01*
X115274018Y-80417637D01*
X115446940Y-80494628D01*
X115446945Y-80494630D01*
X115632102Y-80533986D01*
X115632103Y-80533986D01*
X115821392Y-80533986D01*
X115821394Y-80533986D01*
X116006551Y-80494630D01*
X116179478Y-80417637D01*
X116332619Y-80306374D01*
X116459281Y-80165702D01*
X116553927Y-80001770D01*
X116612422Y-79821742D01*
X116629316Y-79661000D01*
X183323540Y-79661000D01*
X183343326Y-79849256D01*
X183343327Y-79849259D01*
X183401818Y-80029277D01*
X183401821Y-80029284D01*
X183496467Y-80193216D01*
X183598355Y-80306374D01*
X183623129Y-80333888D01*
X183776265Y-80445148D01*
X183776270Y-80445151D01*
X183949192Y-80522142D01*
X183949197Y-80522144D01*
X184134354Y-80561500D01*
X184134355Y-80561500D01*
X184323644Y-80561500D01*
X184323646Y-80561500D01*
X184508803Y-80522144D01*
X184681730Y-80445151D01*
X184834871Y-80333888D01*
X184961533Y-80193216D01*
X185056179Y-80029284D01*
X185114674Y-79849256D01*
X185134460Y-79661000D01*
X185114674Y-79472744D01*
X185056179Y-79292716D01*
X184961533Y-79128784D01*
X184834871Y-78988112D01*
X184834870Y-78988111D01*
X184681734Y-78876851D01*
X184681729Y-78876848D01*
X184508807Y-78799857D01*
X184508802Y-78799855D01*
X184363001Y-78768865D01*
X184323646Y-78760500D01*
X184134354Y-78760500D01*
X184101897Y-78767398D01*
X183949197Y-78799855D01*
X183949192Y-78799857D01*
X183776270Y-78876848D01*
X183776265Y-78876851D01*
X183623129Y-78988111D01*
X183496466Y-79128785D01*
X183401821Y-79292715D01*
X183401818Y-79292722D01*
X183343327Y-79472740D01*
X183343326Y-79472744D01*
X183323540Y-79661000D01*
X116629316Y-79661000D01*
X116632208Y-79633486D01*
X116612422Y-79445230D01*
X116553927Y-79265202D01*
X116459281Y-79101270D01*
X116332619Y-78960598D01*
X116332618Y-78960597D01*
X116179482Y-78849337D01*
X116179477Y-78849334D01*
X116006555Y-78772343D01*
X116006550Y-78772341D01*
X115860749Y-78741351D01*
X115821394Y-78732986D01*
X115632102Y-78732986D01*
X115599645Y-78739884D01*
X115446945Y-78772341D01*
X115446940Y-78772343D01*
X115274018Y-78849334D01*
X115274013Y-78849337D01*
X115120877Y-78960597D01*
X114994214Y-79101271D01*
X114899569Y-79265201D01*
X114899566Y-79265208D01*
X114841075Y-79445226D01*
X114841074Y-79445230D01*
X114821288Y-79633486D01*
X100000500Y-79633486D01*
X100000500Y-76013686D01*
X114650088Y-76013686D01*
X114669874Y-76201942D01*
X114669875Y-76201945D01*
X114728366Y-76381963D01*
X114728369Y-76381970D01*
X114823015Y-76545902D01*
X114949676Y-76686573D01*
X114949677Y-76686574D01*
X115102813Y-76797834D01*
X115102818Y-76797837D01*
X115275740Y-76874828D01*
X115275745Y-76874830D01*
X115460902Y-76914186D01*
X115460903Y-76914186D01*
X115650192Y-76914186D01*
X115650194Y-76914186D01*
X115835351Y-76874830D01*
X116008278Y-76797837D01*
X116161419Y-76686574D01*
X116288081Y-76545902D01*
X116382727Y-76381970D01*
X116441222Y-76201942D01*
X116461008Y-76013686D01*
X116441222Y-75825430D01*
X116382727Y-75645402D01*
X116317246Y-75531986D01*
X119266288Y-75531986D01*
X119286074Y-75720242D01*
X119286075Y-75720245D01*
X119344566Y-75900263D01*
X119344569Y-75900270D01*
X119439215Y-76064202D01*
X119463989Y-76091716D01*
X119565877Y-76204874D01*
X119719013Y-76316134D01*
X119719018Y-76316137D01*
X119891940Y-76393128D01*
X119891945Y-76393130D01*
X120077102Y-76432486D01*
X120077103Y-76432486D01*
X120266392Y-76432486D01*
X120266394Y-76432486D01*
X120451551Y-76393130D01*
X120624478Y-76316137D01*
X120777619Y-76204874D01*
X120904281Y-76064202D01*
X120998927Y-75900270D01*
X121057422Y-75720242D01*
X121077208Y-75531986D01*
X121057422Y-75343730D01*
X121002860Y-75175809D01*
X120998929Y-75163708D01*
X120998928Y-75163707D01*
X120998927Y-75163702D01*
X120904281Y-74999770D01*
X120805853Y-74890455D01*
X120775625Y-74827467D01*
X120784250Y-74758132D01*
X120805850Y-74724519D01*
X120904281Y-74615202D01*
X120998927Y-74451270D01*
X121057422Y-74271242D01*
X121077208Y-74082986D01*
X121057422Y-73894730D01*
X120998927Y-73714702D01*
X120904281Y-73550770D01*
X120777619Y-73410098D01*
X120744286Y-73385880D01*
X120624482Y-73298837D01*
X120624477Y-73298834D01*
X120451555Y-73221843D01*
X120451550Y-73221841D01*
X120292500Y-73188035D01*
X120266394Y-73182486D01*
X120077102Y-73182486D01*
X120050996Y-73188035D01*
X119891945Y-73221841D01*
X119891940Y-73221843D01*
X119719018Y-73298834D01*
X119719013Y-73298837D01*
X119565877Y-73410097D01*
X119439214Y-73550771D01*
X119344569Y-73714701D01*
X119344566Y-73714708D01*
X119288438Y-73887454D01*
X119286074Y-73894730D01*
X119266288Y-74082986D01*
X119286074Y-74271242D01*
X119286075Y-74271245D01*
X119344566Y-74451263D01*
X119344569Y-74451270D01*
X119439215Y-74615202D01*
X119463989Y-74642716D01*
X119537640Y-74724514D01*
X119567870Y-74787505D01*
X119559245Y-74856841D01*
X119537640Y-74890458D01*
X119439214Y-74999771D01*
X119344569Y-75163701D01*
X119344566Y-75163708D01*
X119286075Y-75343726D01*
X119286074Y-75343730D01*
X119266288Y-75531986D01*
X116317246Y-75531986D01*
X116288081Y-75481470D01*
X116161419Y-75340798D01*
X116161418Y-75340797D01*
X116008282Y-75229537D01*
X116008277Y-75229534D01*
X115835355Y-75152543D01*
X115835350Y-75152541D01*
X115689549Y-75121551D01*
X115650194Y-75113186D01*
X115460902Y-75113186D01*
X115428445Y-75120084D01*
X115275745Y-75152541D01*
X115275740Y-75152543D01*
X115102818Y-75229534D01*
X115102813Y-75229537D01*
X114949677Y-75340797D01*
X114823014Y-75481471D01*
X114728369Y-75645401D01*
X114728366Y-75645408D01*
X114669875Y-75825426D01*
X114669874Y-75825430D01*
X114650088Y-76013686D01*
X100000500Y-76013686D01*
X100000500Y-72648486D01*
X117361288Y-72648486D01*
X117381074Y-72836742D01*
X117381075Y-72836745D01*
X117439566Y-73016763D01*
X117439569Y-73016770D01*
X117534215Y-73180702D01*
X117640582Y-73298834D01*
X117660877Y-73321374D01*
X117814013Y-73432634D01*
X117814018Y-73432637D01*
X117986940Y-73509628D01*
X117986945Y-73509630D01*
X118172102Y-73548986D01*
X118172103Y-73548986D01*
X118361392Y-73548986D01*
X118361394Y-73548986D01*
X118546551Y-73509630D01*
X118719478Y-73432637D01*
X118872619Y-73321374D01*
X118999281Y-73180702D01*
X119093927Y-73016770D01*
X119152422Y-72836742D01*
X119172208Y-72648486D01*
X119152422Y-72460230D01*
X119093927Y-72280202D01*
X118999281Y-72116270D01*
X118907196Y-72014000D01*
X133655341Y-72014000D01*
X133675936Y-72249403D01*
X133675938Y-72249413D01*
X133737094Y-72477655D01*
X133737096Y-72477659D01*
X133737097Y-72477663D01*
X133741000Y-72486032D01*
X133836965Y-72691830D01*
X133836967Y-72691834D01*
X133938434Y-72836742D01*
X133972501Y-72885396D01*
X133972506Y-72885402D01*
X134094430Y-73007326D01*
X134127915Y-73068649D01*
X134122931Y-73138341D01*
X134081059Y-73194274D01*
X134050083Y-73211189D01*
X133918669Y-73260203D01*
X133918664Y-73260206D01*
X133803455Y-73346452D01*
X133803452Y-73346455D01*
X133717206Y-73461664D01*
X133717202Y-73461671D01*
X133666908Y-73596517D01*
X133660501Y-73656116D01*
X133660500Y-73656135D01*
X133660500Y-75451870D01*
X133660501Y-75451876D01*
X133666908Y-75511483D01*
X133717202Y-75646328D01*
X133717206Y-75646335D01*
X133803452Y-75761544D01*
X133803455Y-75761547D01*
X133918664Y-75847793D01*
X133918671Y-75847797D01*
X134053517Y-75898091D01*
X134053516Y-75898091D01*
X134060444Y-75898835D01*
X134113127Y-75904500D01*
X135908872Y-75904499D01*
X135968483Y-75898091D01*
X136103331Y-75847796D01*
X136218546Y-75761546D01*
X136304796Y-75646331D01*
X136353810Y-75514916D01*
X136395681Y-75458984D01*
X136461145Y-75434566D01*
X136529418Y-75449417D01*
X136557673Y-75470569D01*
X136679599Y-75592495D01*
X136776384Y-75660265D01*
X136873165Y-75728032D01*
X136873167Y-75728033D01*
X136873170Y-75728035D01*
X137087337Y-75827903D01*
X137315592Y-75889063D01*
X137492034Y-75904500D01*
X137550999Y-75909659D01*
X137551000Y-75909659D01*
X137551001Y-75909659D01*
X137609966Y-75904500D01*
X137786408Y-75889063D01*
X138014663Y-75827903D01*
X138228830Y-75728035D01*
X138422401Y-75592495D01*
X138589495Y-75425401D01*
X138719424Y-75239842D01*
X138774002Y-75196217D01*
X138843500Y-75189023D01*
X138905855Y-75220546D01*
X138922575Y-75239842D01*
X139052281Y-75425082D01*
X139052505Y-75425401D01*
X139219599Y-75592495D01*
X139316384Y-75660265D01*
X139413165Y-75728032D01*
X139413167Y-75728033D01*
X139413170Y-75728035D01*
X139627337Y-75827903D01*
X139855592Y-75889063D01*
X140032034Y-75904500D01*
X140090999Y-75909659D01*
X140091000Y-75909659D01*
X140091001Y-75909659D01*
X140149966Y-75904500D01*
X140326408Y-75889063D01*
X140554663Y-75827903D01*
X140768830Y-75728035D01*
X140962401Y-75592495D01*
X141129495Y-75425401D01*
X141259730Y-75239405D01*
X141314307Y-75195781D01*
X141383805Y-75188587D01*
X141446160Y-75220110D01*
X141462879Y-75239405D01*
X141592890Y-75425078D01*
X141759917Y-75592105D01*
X141953421Y-75727600D01*
X142167507Y-75827429D01*
X142167516Y-75827433D01*
X142381000Y-75884634D01*
X142381000Y-75166301D01*
X142400685Y-75099262D01*
X142453489Y-75053507D01*
X142522647Y-75043563D01*
X142595237Y-75054000D01*
X142595238Y-75054000D01*
X142666762Y-75054000D01*
X142666763Y-75054000D01*
X142739353Y-75043563D01*
X142808512Y-75053507D01*
X142861315Y-75099262D01*
X142881000Y-75166301D01*
X142881000Y-75884633D01*
X143094483Y-75827433D01*
X143094492Y-75827429D01*
X143308578Y-75727600D01*
X143502082Y-75592105D01*
X143669105Y-75425082D01*
X143804600Y-75231578D01*
X143904429Y-75017492D01*
X143904432Y-75017486D01*
X143961636Y-74804000D01*
X143244347Y-74804000D01*
X143177308Y-74784315D01*
X143131553Y-74731511D01*
X143121609Y-74662353D01*
X143125369Y-74645067D01*
X143131000Y-74625888D01*
X143131000Y-74482111D01*
X143125369Y-74462933D01*
X143125370Y-74393064D01*
X143163145Y-74334286D01*
X143226701Y-74305262D01*
X143244347Y-74304000D01*
X143961636Y-74304000D01*
X143961635Y-74303999D01*
X143904432Y-74090513D01*
X143904429Y-74090507D01*
X143804600Y-73876422D01*
X143804599Y-73876420D01*
X143669113Y-73682926D01*
X143669108Y-73682920D01*
X143502078Y-73515890D01*
X143316405Y-73385879D01*
X143272780Y-73331302D01*
X143265588Y-73261804D01*
X143297110Y-73199449D01*
X143316406Y-73182730D01*
X143502401Y-73052495D01*
X143669495Y-72885401D01*
X143805035Y-72691830D01*
X143904903Y-72477663D01*
X143966063Y-72249408D01*
X143986659Y-72014000D01*
X156388341Y-72014000D01*
X156408936Y-72249403D01*
X156408938Y-72249413D01*
X156470094Y-72477655D01*
X156470096Y-72477659D01*
X156470097Y-72477663D01*
X156474000Y-72486032D01*
X156569965Y-72691830D01*
X156569967Y-72691834D01*
X156671434Y-72836742D01*
X156705501Y-72885396D01*
X156705506Y-72885402D01*
X156827430Y-73007326D01*
X156860915Y-73068649D01*
X156855931Y-73138341D01*
X156814059Y-73194274D01*
X156783083Y-73211189D01*
X156651669Y-73260203D01*
X156651664Y-73260206D01*
X156536455Y-73346452D01*
X156536452Y-73346455D01*
X156450206Y-73461664D01*
X156450202Y-73461671D01*
X156399908Y-73596517D01*
X156393501Y-73656116D01*
X156393500Y-73656135D01*
X156393500Y-75451870D01*
X156393501Y-75451876D01*
X156399908Y-75511483D01*
X156450202Y-75646328D01*
X156450206Y-75646335D01*
X156536452Y-75761544D01*
X156536455Y-75761547D01*
X156651664Y-75847793D01*
X156651671Y-75847797D01*
X156786517Y-75898091D01*
X156786516Y-75898091D01*
X156793444Y-75898835D01*
X156846127Y-75904500D01*
X158641872Y-75904499D01*
X158701483Y-75898091D01*
X158836331Y-75847796D01*
X158951546Y-75761546D01*
X159037796Y-75646331D01*
X159086810Y-75514916D01*
X159128681Y-75458984D01*
X159194145Y-75434566D01*
X159262418Y-75449417D01*
X159290673Y-75470569D01*
X159412599Y-75592495D01*
X159509384Y-75660264D01*
X159606165Y-75728032D01*
X159606167Y-75728033D01*
X159606170Y-75728035D01*
X159820337Y-75827903D01*
X160048592Y-75889063D01*
X160225034Y-75904500D01*
X160283999Y-75909659D01*
X160284000Y-75909659D01*
X160284001Y-75909659D01*
X160342966Y-75904500D01*
X160519408Y-75889063D01*
X160747663Y-75827903D01*
X160961830Y-75728035D01*
X161155401Y-75592495D01*
X161322495Y-75425401D01*
X161452424Y-75239842D01*
X161507002Y-75196217D01*
X161576500Y-75189023D01*
X161638855Y-75220546D01*
X161655575Y-75239842D01*
X161785281Y-75425082D01*
X161785505Y-75425401D01*
X161952599Y-75592495D01*
X162049384Y-75660264D01*
X162146165Y-75728032D01*
X162146167Y-75728033D01*
X162146170Y-75728035D01*
X162360337Y-75827903D01*
X162588592Y-75889063D01*
X162765034Y-75904500D01*
X162823999Y-75909659D01*
X162824000Y-75909659D01*
X162824001Y-75909659D01*
X162882966Y-75904500D01*
X163059408Y-75889063D01*
X163287663Y-75827903D01*
X163501830Y-75728035D01*
X163695401Y-75592495D01*
X163862495Y-75425401D01*
X163992730Y-75239405D01*
X164047307Y-75195781D01*
X164116805Y-75188587D01*
X164179160Y-75220110D01*
X164195879Y-75239405D01*
X164325890Y-75425078D01*
X164492917Y-75592105D01*
X164686421Y-75727600D01*
X164900507Y-75827429D01*
X164900516Y-75827433D01*
X165114000Y-75884634D01*
X165114000Y-75166301D01*
X165133685Y-75099262D01*
X165186489Y-75053507D01*
X165255647Y-75043563D01*
X165328237Y-75054000D01*
X165328238Y-75054000D01*
X165399762Y-75054000D01*
X165399763Y-75054000D01*
X165472353Y-75043563D01*
X165541512Y-75053507D01*
X165594315Y-75099262D01*
X165614000Y-75166301D01*
X165614000Y-75884633D01*
X165827483Y-75827433D01*
X165827492Y-75827429D01*
X166041578Y-75727600D01*
X166235082Y-75592105D01*
X166267687Y-75559500D01*
X187768540Y-75559500D01*
X187788326Y-75747756D01*
X187788327Y-75747759D01*
X187846818Y-75927777D01*
X187846821Y-75927784D01*
X187941467Y-76091716D01*
X188040715Y-76201942D01*
X188068129Y-76232388D01*
X188221265Y-76343648D01*
X188221270Y-76343651D01*
X188394192Y-76420642D01*
X188394197Y-76420644D01*
X188579354Y-76460000D01*
X188579355Y-76460000D01*
X188768644Y-76460000D01*
X188768646Y-76460000D01*
X188953803Y-76420644D01*
X189126730Y-76343651D01*
X189279871Y-76232388D01*
X189406533Y-76091716D01*
X189501179Y-75927784D01*
X189559674Y-75747756D01*
X189579460Y-75559500D01*
X189559674Y-75371244D01*
X189501179Y-75191216D01*
X189406533Y-75027284D01*
X189308105Y-74917969D01*
X189277877Y-74854981D01*
X189286502Y-74785646D01*
X189308102Y-74752033D01*
X189406533Y-74642716D01*
X189501179Y-74478784D01*
X189559674Y-74298756D01*
X189579460Y-74110500D01*
X189559674Y-73922244D01*
X189501179Y-73742216D01*
X189406533Y-73578284D01*
X189279871Y-73437612D01*
X189279870Y-73437611D01*
X189126734Y-73326351D01*
X189126729Y-73326348D01*
X188953807Y-73249357D01*
X188953802Y-73249355D01*
X188808000Y-73218365D01*
X188768646Y-73210000D01*
X188579354Y-73210000D01*
X188546897Y-73216898D01*
X188394197Y-73249355D01*
X188394192Y-73249357D01*
X188221270Y-73326348D01*
X188221265Y-73326351D01*
X188068129Y-73437611D01*
X187941466Y-73578285D01*
X187846821Y-73742215D01*
X187846818Y-73742222D01*
X187789246Y-73919412D01*
X187788326Y-73922244D01*
X187768540Y-74110500D01*
X187788326Y-74298756D01*
X187788327Y-74298759D01*
X187846818Y-74478777D01*
X187846821Y-74478784D01*
X187941467Y-74642716D01*
X188015118Y-74724513D01*
X188039892Y-74752028D01*
X188070122Y-74815019D01*
X188061497Y-74884355D01*
X188039892Y-74917972D01*
X187941466Y-75027285D01*
X187846821Y-75191215D01*
X187846818Y-75191222D01*
X187788327Y-75371240D01*
X187788326Y-75371244D01*
X187768540Y-75559500D01*
X166267687Y-75559500D01*
X166402105Y-75425082D01*
X166537600Y-75231578D01*
X166637429Y-75017492D01*
X166637432Y-75017486D01*
X166694636Y-74804000D01*
X165977347Y-74804000D01*
X165910308Y-74784315D01*
X165864553Y-74731511D01*
X165854609Y-74662353D01*
X165858369Y-74645067D01*
X165864000Y-74625888D01*
X165864000Y-74482111D01*
X165858369Y-74462933D01*
X165858370Y-74393064D01*
X165896145Y-74334286D01*
X165959701Y-74305262D01*
X165977347Y-74304000D01*
X166694636Y-74304000D01*
X166694635Y-74303999D01*
X166637432Y-74090513D01*
X166637429Y-74090507D01*
X166537600Y-73876422D01*
X166537599Y-73876420D01*
X166402113Y-73682926D01*
X166402108Y-73682920D01*
X166235078Y-73515890D01*
X166049405Y-73385879D01*
X166005780Y-73331302D01*
X165998588Y-73261804D01*
X166030110Y-73199449D01*
X166049406Y-73182730D01*
X166235401Y-73052495D01*
X166402495Y-72885401D01*
X166538035Y-72691830D01*
X166604638Y-72549000D01*
X186183740Y-72549000D01*
X186203526Y-72737256D01*
X186203527Y-72737259D01*
X186262018Y-72917277D01*
X186262021Y-72917284D01*
X186356667Y-73081216D01*
X186447796Y-73182425D01*
X186483329Y-73221888D01*
X186636465Y-73333148D01*
X186636470Y-73333151D01*
X186809392Y-73410142D01*
X186809397Y-73410144D01*
X186994554Y-73449500D01*
X186994555Y-73449500D01*
X187183844Y-73449500D01*
X187183846Y-73449500D01*
X187369003Y-73410144D01*
X187541930Y-73333151D01*
X187695071Y-73221888D01*
X187821733Y-73081216D01*
X187916379Y-72917284D01*
X187974874Y-72737256D01*
X187994660Y-72549000D01*
X187974874Y-72360744D01*
X187916379Y-72180716D01*
X187821733Y-72016784D01*
X187695071Y-71876112D01*
X187695070Y-71876111D01*
X187541934Y-71764851D01*
X187541929Y-71764848D01*
X187369007Y-71687857D01*
X187369002Y-71687855D01*
X187223200Y-71656865D01*
X187183846Y-71648500D01*
X186994554Y-71648500D01*
X186962097Y-71655398D01*
X186809397Y-71687855D01*
X186809392Y-71687857D01*
X186636470Y-71764848D01*
X186636465Y-71764851D01*
X186483329Y-71876111D01*
X186356666Y-72016785D01*
X186262021Y-72180715D01*
X186262018Y-72180722D01*
X186203527Y-72360740D01*
X186203526Y-72360744D01*
X186183740Y-72549000D01*
X166604638Y-72549000D01*
X166637903Y-72477663D01*
X166699063Y-72249408D01*
X166719659Y-72014000D01*
X166699063Y-71778592D01*
X166637903Y-71550337D01*
X166538035Y-71336171D01*
X166535347Y-71332331D01*
X166402494Y-71142597D01*
X166235402Y-70975506D01*
X166235395Y-70975501D01*
X166041834Y-70839967D01*
X166041830Y-70839965D01*
X166041828Y-70839964D01*
X165827663Y-70740097D01*
X165827659Y-70740096D01*
X165827655Y-70740094D01*
X165599413Y-70678938D01*
X165599403Y-70678936D01*
X165364001Y-70658341D01*
X165363999Y-70658341D01*
X165128596Y-70678936D01*
X165128586Y-70678938D01*
X164900344Y-70740094D01*
X164900335Y-70740098D01*
X164686171Y-70839964D01*
X164686169Y-70839965D01*
X164492597Y-70975505D01*
X164325505Y-71142597D01*
X164195575Y-71328158D01*
X164140998Y-71371783D01*
X164071500Y-71378977D01*
X164009145Y-71347454D01*
X163992425Y-71328158D01*
X163862494Y-71142597D01*
X163695402Y-70975506D01*
X163695395Y-70975501D01*
X163501834Y-70839967D01*
X163501830Y-70839965D01*
X163501828Y-70839964D01*
X163287663Y-70740097D01*
X163287659Y-70740096D01*
X163287655Y-70740094D01*
X163059413Y-70678938D01*
X163059403Y-70678936D01*
X162824001Y-70658341D01*
X162823999Y-70658341D01*
X162588596Y-70678936D01*
X162588586Y-70678938D01*
X162360344Y-70740094D01*
X162360335Y-70740098D01*
X162146171Y-70839964D01*
X162146169Y-70839965D01*
X161952597Y-70975505D01*
X161785505Y-71142597D01*
X161655575Y-71328158D01*
X161600998Y-71371783D01*
X161531500Y-71378977D01*
X161469145Y-71347454D01*
X161452425Y-71328158D01*
X161322494Y-71142597D01*
X161155402Y-70975506D01*
X161155395Y-70975501D01*
X160961834Y-70839967D01*
X160961830Y-70839965D01*
X160961828Y-70839964D01*
X160747663Y-70740097D01*
X160747659Y-70740096D01*
X160747655Y-70740094D01*
X160519413Y-70678938D01*
X160519403Y-70678936D01*
X160284001Y-70658341D01*
X160283999Y-70658341D01*
X160048596Y-70678936D01*
X160048586Y-70678938D01*
X159820344Y-70740094D01*
X159820335Y-70740098D01*
X159606171Y-70839964D01*
X159606169Y-70839965D01*
X159412597Y-70975505D01*
X159245508Y-71142594D01*
X159115574Y-71328160D01*
X159060997Y-71371784D01*
X158991498Y-71378977D01*
X158929144Y-71347455D01*
X158912429Y-71328164D01*
X158782495Y-71142599D01*
X158782493Y-71142596D01*
X158615402Y-70975506D01*
X158615395Y-70975501D01*
X158421834Y-70839967D01*
X158421830Y-70839965D01*
X158421828Y-70839964D01*
X158207663Y-70740097D01*
X158207659Y-70740096D01*
X158207655Y-70740094D01*
X157979413Y-70678938D01*
X157979403Y-70678936D01*
X157744001Y-70658341D01*
X157743999Y-70658341D01*
X157508596Y-70678936D01*
X157508586Y-70678938D01*
X157280344Y-70740094D01*
X157280335Y-70740098D01*
X157066171Y-70839964D01*
X157066169Y-70839965D01*
X156872597Y-70975505D01*
X156705505Y-71142597D01*
X156569965Y-71336169D01*
X156569964Y-71336171D01*
X156470098Y-71550335D01*
X156470094Y-71550344D01*
X156408938Y-71778586D01*
X156408936Y-71778596D01*
X156388341Y-72013999D01*
X156388341Y-72014000D01*
X143986659Y-72014000D01*
X143966063Y-71778592D01*
X143904903Y-71550337D01*
X143805035Y-71336171D01*
X143802347Y-71332331D01*
X143669494Y-71142597D01*
X143502402Y-70975506D01*
X143502395Y-70975501D01*
X143308834Y-70839967D01*
X143308830Y-70839965D01*
X143308828Y-70839964D01*
X143094663Y-70740097D01*
X143094659Y-70740096D01*
X143094655Y-70740094D01*
X142866413Y-70678938D01*
X142866403Y-70678936D01*
X142631001Y-70658341D01*
X142630999Y-70658341D01*
X142395596Y-70678936D01*
X142395586Y-70678938D01*
X142167344Y-70740094D01*
X142167335Y-70740098D01*
X141953171Y-70839964D01*
X141953169Y-70839965D01*
X141759597Y-70975505D01*
X141592505Y-71142597D01*
X141462575Y-71328158D01*
X141407998Y-71371783D01*
X141338500Y-71378977D01*
X141276145Y-71347454D01*
X141259425Y-71328158D01*
X141129494Y-71142597D01*
X140962402Y-70975506D01*
X140962395Y-70975501D01*
X140768834Y-70839967D01*
X140768830Y-70839965D01*
X140768828Y-70839964D01*
X140554663Y-70740097D01*
X140554659Y-70740096D01*
X140554655Y-70740094D01*
X140326413Y-70678938D01*
X140326403Y-70678936D01*
X140091001Y-70658341D01*
X140090999Y-70658341D01*
X139855596Y-70678936D01*
X139855586Y-70678938D01*
X139627344Y-70740094D01*
X139627335Y-70740098D01*
X139413171Y-70839964D01*
X139413169Y-70839965D01*
X139219597Y-70975505D01*
X139052505Y-71142597D01*
X138922575Y-71328158D01*
X138867998Y-71371783D01*
X138798500Y-71378977D01*
X138736145Y-71347454D01*
X138719425Y-71328158D01*
X138589494Y-71142597D01*
X138422402Y-70975506D01*
X138422395Y-70975501D01*
X138228834Y-70839967D01*
X138228830Y-70839965D01*
X138228828Y-70839964D01*
X138014663Y-70740097D01*
X138014659Y-70740096D01*
X138014655Y-70740094D01*
X137786413Y-70678938D01*
X137786403Y-70678936D01*
X137551001Y-70658341D01*
X137550999Y-70658341D01*
X137315596Y-70678936D01*
X137315586Y-70678938D01*
X137087344Y-70740094D01*
X137087335Y-70740098D01*
X136873171Y-70839964D01*
X136873169Y-70839965D01*
X136679597Y-70975505D01*
X136512505Y-71142597D01*
X136382575Y-71328158D01*
X136327998Y-71371783D01*
X136258500Y-71378977D01*
X136196145Y-71347454D01*
X136179425Y-71328158D01*
X136049494Y-71142597D01*
X135882402Y-70975506D01*
X135882395Y-70975501D01*
X135688834Y-70839967D01*
X135688830Y-70839965D01*
X135688828Y-70839964D01*
X135474663Y-70740097D01*
X135474659Y-70740096D01*
X135474655Y-70740094D01*
X135246413Y-70678938D01*
X135246403Y-70678936D01*
X135011001Y-70658341D01*
X135010999Y-70658341D01*
X134775596Y-70678936D01*
X134775586Y-70678938D01*
X134547344Y-70740094D01*
X134547335Y-70740098D01*
X134333171Y-70839964D01*
X134333169Y-70839965D01*
X134139597Y-70975505D01*
X133972505Y-71142597D01*
X133836965Y-71336169D01*
X133836964Y-71336171D01*
X133737098Y-71550335D01*
X133737094Y-71550344D01*
X133675938Y-71778586D01*
X133675936Y-71778596D01*
X133655341Y-72013999D01*
X133655341Y-72014000D01*
X118907196Y-72014000D01*
X118872619Y-71975598D01*
X118872618Y-71975597D01*
X118719482Y-71864337D01*
X118719477Y-71864334D01*
X118546555Y-71787343D01*
X118546550Y-71787341D01*
X118400749Y-71756351D01*
X118361394Y-71747986D01*
X118172102Y-71747986D01*
X118139645Y-71754884D01*
X117986945Y-71787341D01*
X117986940Y-71787343D01*
X117814018Y-71864334D01*
X117814013Y-71864337D01*
X117660877Y-71975597D01*
X117534214Y-72116271D01*
X117439569Y-72280201D01*
X117439566Y-72280208D01*
X117381075Y-72460226D01*
X117381074Y-72460230D01*
X117361288Y-72648486D01*
X100000500Y-72648486D01*
X100000500Y-70240000D01*
X147479341Y-70240000D01*
X147499936Y-70475403D01*
X147499938Y-70475413D01*
X147561094Y-70703655D01*
X147561096Y-70703659D01*
X147561097Y-70703663D01*
X147624656Y-70839965D01*
X147660965Y-70917830D01*
X147660967Y-70917834D01*
X147701350Y-70975506D01*
X147796505Y-71111401D01*
X147963599Y-71278495D01*
X148045966Y-71336169D01*
X148157165Y-71414032D01*
X148157167Y-71414033D01*
X148157170Y-71414035D01*
X148371337Y-71513903D01*
X148599592Y-71575063D01*
X148776034Y-71590500D01*
X148834999Y-71595659D01*
X148835000Y-71595659D01*
X148835001Y-71595659D01*
X148893966Y-71590500D01*
X149070408Y-71575063D01*
X149298663Y-71513903D01*
X149512830Y-71414035D01*
X149706401Y-71278495D01*
X149828329Y-71156566D01*
X149889648Y-71123084D01*
X149959340Y-71128068D01*
X150015274Y-71169939D01*
X150032189Y-71200917D01*
X150081202Y-71332328D01*
X150081206Y-71332335D01*
X150167452Y-71447544D01*
X150167455Y-71447547D01*
X150282664Y-71533793D01*
X150282671Y-71533797D01*
X150417517Y-71584091D01*
X150417516Y-71584091D01*
X150424444Y-71584835D01*
X150477127Y-71590500D01*
X152272872Y-71590499D01*
X152332483Y-71584091D01*
X152467331Y-71533796D01*
X152582546Y-71447546D01*
X152668796Y-71332331D01*
X152719091Y-71197483D01*
X152725500Y-71137873D01*
X152725499Y-69342128D01*
X152719091Y-69282517D01*
X152717810Y-69279083D01*
X152668797Y-69147671D01*
X152668793Y-69147664D01*
X152582547Y-69032455D01*
X152582544Y-69032452D01*
X152467335Y-68946206D01*
X152467328Y-68946202D01*
X152332482Y-68895908D01*
X152332483Y-68895908D01*
X152272883Y-68889501D01*
X152272881Y-68889500D01*
X152272873Y-68889500D01*
X152272864Y-68889500D01*
X150477129Y-68889500D01*
X150477123Y-68889501D01*
X150417516Y-68895908D01*
X150282671Y-68946202D01*
X150282664Y-68946206D01*
X150167455Y-69032452D01*
X150167452Y-69032455D01*
X150081206Y-69147664D01*
X150081203Y-69147669D01*
X150032189Y-69279083D01*
X149990317Y-69335016D01*
X149924853Y-69359433D01*
X149856580Y-69344581D01*
X149828326Y-69323430D01*
X149706402Y-69201506D01*
X149706395Y-69201501D01*
X149512834Y-69065967D01*
X149512830Y-69065965D01*
X149512828Y-69065964D01*
X149298663Y-68966097D01*
X149298659Y-68966096D01*
X149298655Y-68966094D01*
X149070413Y-68904938D01*
X149070403Y-68904936D01*
X148835001Y-68884341D01*
X148834999Y-68884341D01*
X148599596Y-68904936D01*
X148599586Y-68904938D01*
X148371344Y-68966094D01*
X148371335Y-68966098D01*
X148157171Y-69065964D01*
X148157169Y-69065965D01*
X147963597Y-69201505D01*
X147796505Y-69368597D01*
X147660965Y-69562169D01*
X147660964Y-69562171D01*
X147561098Y-69776335D01*
X147561094Y-69776344D01*
X147499938Y-70004586D01*
X147499936Y-70004596D01*
X147479341Y-70239999D01*
X147479341Y-70240000D01*
X100000500Y-70240000D01*
X100000500Y-66550000D01*
X146094417Y-66550000D01*
X146114699Y-66755932D01*
X146121328Y-66777784D01*
X146174768Y-66953954D01*
X146272315Y-67136450D01*
X146272317Y-67136452D01*
X146403589Y-67296410D01*
X146500209Y-67375702D01*
X146563550Y-67427685D01*
X146746046Y-67525232D01*
X146944066Y-67585300D01*
X146944065Y-67585300D01*
X146982647Y-67589100D01*
X147098392Y-67600500D01*
X147098395Y-67600500D01*
X147901605Y-67600500D01*
X147901608Y-67600500D01*
X148055934Y-67585300D01*
X148253954Y-67525232D01*
X148436450Y-67427685D01*
X148596410Y-67296410D01*
X148727685Y-67136450D01*
X148825232Y-66953954D01*
X148885300Y-66755934D01*
X148905583Y-66550000D01*
X151094417Y-66550000D01*
X151114699Y-66755932D01*
X151121328Y-66777784D01*
X151174768Y-66953954D01*
X151272315Y-67136450D01*
X151272317Y-67136452D01*
X151403589Y-67296410D01*
X151500209Y-67375702D01*
X151563550Y-67427685D01*
X151746046Y-67525232D01*
X151944066Y-67585300D01*
X151944065Y-67585300D01*
X151982647Y-67589100D01*
X152098392Y-67600500D01*
X152098395Y-67600500D01*
X152901605Y-67600500D01*
X152901608Y-67600500D01*
X153055934Y-67585300D01*
X153253954Y-67525232D01*
X153419023Y-67437000D01*
X156447540Y-67437000D01*
X156467326Y-67625256D01*
X156467327Y-67625259D01*
X156525818Y-67805277D01*
X156525821Y-67805284D01*
X156620467Y-67969216D01*
X156732957Y-68094148D01*
X156747129Y-68109888D01*
X156900265Y-68221148D01*
X156900270Y-68221151D01*
X157073192Y-68298142D01*
X157073197Y-68298144D01*
X157258354Y-68337500D01*
X157258355Y-68337500D01*
X157447644Y-68337500D01*
X157447646Y-68337500D01*
X157632803Y-68298144D01*
X157805730Y-68221151D01*
X157958871Y-68109888D01*
X158085533Y-67969216D01*
X158180179Y-67805284D01*
X158238674Y-67625256D01*
X158258460Y-67437000D01*
X158245112Y-67310000D01*
X162924540Y-67310000D01*
X162944326Y-67498256D01*
X162944327Y-67498259D01*
X163002818Y-67678277D01*
X163002821Y-67678284D01*
X163097467Y-67842216D01*
X163211817Y-67969214D01*
X163224129Y-67982888D01*
X163377265Y-68094148D01*
X163377270Y-68094151D01*
X163550192Y-68171142D01*
X163550197Y-68171144D01*
X163735354Y-68210500D01*
X163735355Y-68210500D01*
X163924644Y-68210500D01*
X163924646Y-68210500D01*
X164109803Y-68171144D01*
X164282730Y-68094151D01*
X164435871Y-67982888D01*
X164562533Y-67842216D01*
X164657179Y-67678284D01*
X164715674Y-67498256D01*
X164735460Y-67310000D01*
X164715674Y-67121744D01*
X164657179Y-66941716D01*
X164562533Y-66777784D01*
X164435871Y-66637112D01*
X164435870Y-66637111D01*
X164282734Y-66525851D01*
X164282729Y-66525848D01*
X164109807Y-66448857D01*
X164109802Y-66448855D01*
X163964001Y-66417865D01*
X163924646Y-66409500D01*
X163735354Y-66409500D01*
X163702897Y-66416398D01*
X163550197Y-66448855D01*
X163550192Y-66448857D01*
X163377270Y-66525848D01*
X163377265Y-66525851D01*
X163224129Y-66637111D01*
X163097466Y-66777785D01*
X163002821Y-66941715D01*
X163002818Y-66941722D01*
X162944327Y-67121740D01*
X162944326Y-67121744D01*
X162924540Y-67310000D01*
X158245112Y-67310000D01*
X158238674Y-67248744D01*
X158180179Y-67068716D01*
X158085533Y-66904784D01*
X157958871Y-66764112D01*
X157947615Y-66755934D01*
X157805734Y-66652851D01*
X157805729Y-66652848D01*
X157632807Y-66575857D01*
X157632802Y-66575855D01*
X157487000Y-66544865D01*
X157447646Y-66536500D01*
X157258354Y-66536500D01*
X157225897Y-66543398D01*
X157073197Y-66575855D01*
X157073192Y-66575857D01*
X156900270Y-66652848D01*
X156900265Y-66652851D01*
X156747129Y-66764111D01*
X156620466Y-66904785D01*
X156525821Y-67068715D01*
X156525818Y-67068722D01*
X156467327Y-67248740D01*
X156467326Y-67248744D01*
X156447540Y-67437000D01*
X153419023Y-67437000D01*
X153436450Y-67427685D01*
X153596410Y-67296410D01*
X153727685Y-67136450D01*
X153825232Y-66953954D01*
X153885300Y-66755934D01*
X153905583Y-66550000D01*
X153885300Y-66344066D01*
X153825232Y-66146046D01*
X153727685Y-65963550D01*
X153675702Y-65900209D01*
X153596410Y-65803589D01*
X153436452Y-65672317D01*
X153436453Y-65672317D01*
X153436450Y-65672315D01*
X153253954Y-65574768D01*
X153055934Y-65514700D01*
X153055932Y-65514699D01*
X153055934Y-65514699D01*
X152936805Y-65502966D01*
X152901608Y-65499500D01*
X152098392Y-65499500D01*
X152060298Y-65503251D01*
X151944067Y-65514699D01*
X151746043Y-65574769D01*
X151635898Y-65633643D01*
X151563550Y-65672315D01*
X151563548Y-65672316D01*
X151563547Y-65672317D01*
X151403589Y-65803589D01*
X151272317Y-65963547D01*
X151174769Y-66146043D01*
X151114699Y-66344067D01*
X151094417Y-66550000D01*
X148905583Y-66550000D01*
X148885300Y-66344066D01*
X148825232Y-66146046D01*
X148727685Y-65963550D01*
X148675702Y-65900209D01*
X148596410Y-65803589D01*
X148436452Y-65672317D01*
X148436453Y-65672317D01*
X148436450Y-65672315D01*
X148253954Y-65574768D01*
X148055934Y-65514700D01*
X148055932Y-65514699D01*
X148055934Y-65514699D01*
X147936805Y-65502966D01*
X147901608Y-65499500D01*
X147098392Y-65499500D01*
X147060298Y-65503251D01*
X146944067Y-65514699D01*
X146746043Y-65574769D01*
X146635898Y-65633643D01*
X146563550Y-65672315D01*
X146563548Y-65672316D01*
X146563547Y-65672317D01*
X146403589Y-65803589D01*
X146272317Y-65963547D01*
X146174769Y-66146043D01*
X146114699Y-66344067D01*
X146094417Y-66550000D01*
X100000500Y-66550000D01*
X100000500Y-63751604D01*
X144769500Y-63751604D01*
X144784699Y-63905932D01*
X144784700Y-63905934D01*
X144844768Y-64103954D01*
X144942315Y-64286450D01*
X144942317Y-64286452D01*
X145073589Y-64446410D01*
X145170209Y-64525702D01*
X145233550Y-64577685D01*
X145416046Y-64675232D01*
X145614066Y-64735300D01*
X145614065Y-64735300D01*
X145632529Y-64737118D01*
X145820000Y-64755583D01*
X146025934Y-64735300D01*
X146223954Y-64675232D01*
X146406450Y-64577685D01*
X146566410Y-64446410D01*
X146697685Y-64286450D01*
X146795232Y-64103954D01*
X146855300Y-63905934D01*
X146870500Y-63751608D01*
X146870500Y-63751604D01*
X153319500Y-63751604D01*
X153334699Y-63905932D01*
X153334700Y-63905934D01*
X153394768Y-64103954D01*
X153492315Y-64286450D01*
X153492317Y-64286452D01*
X153623589Y-64446410D01*
X153720209Y-64525702D01*
X153783550Y-64577685D01*
X153966046Y-64675232D01*
X154164066Y-64735300D01*
X154164065Y-64735300D01*
X154182529Y-64737118D01*
X154370000Y-64755583D01*
X154575934Y-64735300D01*
X154773954Y-64675232D01*
X154956450Y-64577685D01*
X155116410Y-64446410D01*
X155247685Y-64286450D01*
X155345232Y-64103954D01*
X155405300Y-63905934D01*
X155420500Y-63751608D01*
X155420500Y-62948392D01*
X155410809Y-62850000D01*
X162037051Y-62850000D01*
X162056817Y-63101151D01*
X162115626Y-63346110D01*
X162212033Y-63578859D01*
X162343660Y-63793653D01*
X162343661Y-63793656D01*
X162343664Y-63793659D01*
X162507276Y-63985224D01*
X162646291Y-64103954D01*
X162698843Y-64148838D01*
X162698846Y-64148839D01*
X162913640Y-64280466D01*
X163146388Y-64376873D01*
X163146389Y-64376873D01*
X163391352Y-64435683D01*
X163547450Y-64447968D01*
X163579616Y-64450500D01*
X163579618Y-64450500D01*
X165505384Y-64450500D01*
X165535017Y-64448167D01*
X165693648Y-64435683D01*
X165938611Y-64376873D01*
X166171359Y-64280466D01*
X166386159Y-64148836D01*
X166577724Y-63985224D01*
X166741336Y-63793659D01*
X166872966Y-63578859D01*
X166969373Y-63346111D01*
X167028183Y-63101148D01*
X167047949Y-62850000D01*
X167028183Y-62598852D01*
X166969373Y-62353889D01*
X166887177Y-62155449D01*
X166872966Y-62121140D01*
X166741339Y-61906346D01*
X166741338Y-61906343D01*
X166668569Y-61821142D01*
X166577724Y-61714776D01*
X166424020Y-61583500D01*
X166386156Y-61551161D01*
X166386153Y-61551160D01*
X166171359Y-61419533D01*
X165938610Y-61323126D01*
X165693650Y-61264317D01*
X165505384Y-61249500D01*
X165505382Y-61249500D01*
X163579618Y-61249500D01*
X163579616Y-61249500D01*
X163391349Y-61264317D01*
X163146389Y-61323126D01*
X162913640Y-61419533D01*
X162698846Y-61551160D01*
X162698843Y-61551161D01*
X162507276Y-61714776D01*
X162343661Y-61906343D01*
X162343660Y-61906346D01*
X162212033Y-62121140D01*
X162115626Y-62353889D01*
X162056817Y-62598848D01*
X162037051Y-62850000D01*
X155410809Y-62850000D01*
X155405300Y-62794066D01*
X155345232Y-62596046D01*
X155247685Y-62413550D01*
X155151005Y-62295744D01*
X155116410Y-62253589D01*
X154956452Y-62122317D01*
X154956453Y-62122317D01*
X154956450Y-62122315D01*
X154773954Y-62024768D01*
X154575934Y-61964700D01*
X154575932Y-61964699D01*
X154575934Y-61964699D01*
X154388463Y-61946235D01*
X154370000Y-61944417D01*
X154369999Y-61944417D01*
X154164067Y-61964699D01*
X153966043Y-62024769D01*
X153868565Y-62076873D01*
X153783550Y-62122315D01*
X153783548Y-62122316D01*
X153783547Y-62122317D01*
X153623589Y-62253589D01*
X153492317Y-62413547D01*
X153394769Y-62596043D01*
X153334699Y-62794067D01*
X153319500Y-62948395D01*
X153319500Y-63751604D01*
X146870500Y-63751604D01*
X146870500Y-62948392D01*
X146855300Y-62794066D01*
X146795232Y-62596046D01*
X146697685Y-62413550D01*
X146601005Y-62295744D01*
X146566410Y-62253589D01*
X146406452Y-62122317D01*
X146406453Y-62122317D01*
X146406450Y-62122315D01*
X146223954Y-62024768D01*
X146025934Y-61964700D01*
X146025932Y-61964699D01*
X146025934Y-61964699D01*
X145838463Y-61946235D01*
X145820000Y-61944417D01*
X145819999Y-61944417D01*
X145614067Y-61964699D01*
X145416043Y-62024769D01*
X145318565Y-62076873D01*
X145233550Y-62122315D01*
X145233548Y-62122316D01*
X145233547Y-62122317D01*
X145073589Y-62253589D01*
X144942317Y-62413547D01*
X144844769Y-62596043D01*
X144784699Y-62794067D01*
X144769500Y-62948395D01*
X144769500Y-63751604D01*
X100000500Y-63751604D01*
X100000500Y-62484000D01*
X120150940Y-62484000D01*
X120170726Y-62672256D01*
X120170727Y-62672259D01*
X120229218Y-62852277D01*
X120229221Y-62852284D01*
X120323867Y-63016216D01*
X120400343Y-63101151D01*
X120450529Y-63156888D01*
X120603665Y-63268148D01*
X120603670Y-63268151D01*
X120776592Y-63345142D01*
X120776597Y-63345144D01*
X120961754Y-63384500D01*
X120961755Y-63384500D01*
X121151044Y-63384500D01*
X121151046Y-63384500D01*
X121336203Y-63345144D01*
X121509130Y-63268151D01*
X121662271Y-63156888D01*
X121788933Y-63016216D01*
X121883579Y-62852284D01*
X121942074Y-62672256D01*
X121961860Y-62484000D01*
X125180140Y-62484000D01*
X125199926Y-62672256D01*
X125199927Y-62672259D01*
X125258418Y-62852277D01*
X125258421Y-62852284D01*
X125353067Y-63016216D01*
X125429543Y-63101151D01*
X125479729Y-63156888D01*
X125632865Y-63268148D01*
X125632870Y-63268151D01*
X125805792Y-63345142D01*
X125805797Y-63345144D01*
X125990954Y-63384500D01*
X125990955Y-63384500D01*
X126180244Y-63384500D01*
X126180246Y-63384500D01*
X126365403Y-63345144D01*
X126538330Y-63268151D01*
X126691471Y-63156888D01*
X126818133Y-63016216D01*
X126912779Y-62852284D01*
X126971274Y-62672256D01*
X126991060Y-62484000D01*
X126971274Y-62295744D01*
X126912779Y-62115716D01*
X126818133Y-61951784D01*
X126691471Y-61811112D01*
X126691470Y-61811111D01*
X126538334Y-61699851D01*
X126538329Y-61699848D01*
X126365407Y-61622857D01*
X126365402Y-61622855D01*
X126219601Y-61591865D01*
X126180246Y-61583500D01*
X125990954Y-61583500D01*
X125958497Y-61590398D01*
X125805797Y-61622855D01*
X125805792Y-61622857D01*
X125632870Y-61699848D01*
X125632865Y-61699851D01*
X125479729Y-61811111D01*
X125353066Y-61951785D01*
X125258421Y-62115715D01*
X125258418Y-62115722D01*
X125199927Y-62295740D01*
X125199926Y-62295744D01*
X125180140Y-62484000D01*
X121961860Y-62484000D01*
X121942074Y-62295744D01*
X121883579Y-62115716D01*
X121788933Y-61951784D01*
X121662271Y-61811112D01*
X121662270Y-61811111D01*
X121509134Y-61699851D01*
X121509129Y-61699848D01*
X121336207Y-61622857D01*
X121336202Y-61622855D01*
X121190400Y-61591865D01*
X121151046Y-61583500D01*
X120961754Y-61583500D01*
X120929297Y-61590398D01*
X120776597Y-61622855D01*
X120776592Y-61622857D01*
X120603670Y-61699848D01*
X120603665Y-61699851D01*
X120450529Y-61811111D01*
X120323866Y-61951785D01*
X120229221Y-62115715D01*
X120229218Y-62115722D01*
X120170727Y-62295740D01*
X120170726Y-62295744D01*
X120150940Y-62484000D01*
X100000500Y-62484000D01*
X100000500Y-60960000D01*
X105622140Y-60960000D01*
X105641926Y-61148256D01*
X105641927Y-61148259D01*
X105700418Y-61328277D01*
X105700421Y-61328284D01*
X105795067Y-61492216D01*
X105912695Y-61622855D01*
X105921729Y-61632888D01*
X106074865Y-61744148D01*
X106074870Y-61744151D01*
X106247792Y-61821142D01*
X106247797Y-61821144D01*
X106432954Y-61860500D01*
X106432955Y-61860500D01*
X106622244Y-61860500D01*
X106622246Y-61860500D01*
X106807403Y-61821144D01*
X106980330Y-61744151D01*
X107133471Y-61632888D01*
X107260133Y-61492216D01*
X107354779Y-61328284D01*
X107413274Y-61148256D01*
X107422382Y-61061600D01*
X112734140Y-61061600D01*
X112753926Y-61249856D01*
X112753927Y-61249859D01*
X112812418Y-61429877D01*
X112812421Y-61429884D01*
X112907067Y-61593816D01*
X113002539Y-61699848D01*
X113033729Y-61734488D01*
X113186865Y-61845748D01*
X113186870Y-61845751D01*
X113359792Y-61922742D01*
X113359797Y-61922744D01*
X113544954Y-61962100D01*
X113544955Y-61962100D01*
X113734244Y-61962100D01*
X113734246Y-61962100D01*
X113919403Y-61922744D01*
X114092330Y-61845751D01*
X114245471Y-61734488D01*
X114372133Y-61593816D01*
X114466779Y-61429884D01*
X114525274Y-61249856D01*
X114545060Y-61061600D01*
X114525274Y-60873344D01*
X114466779Y-60693316D01*
X114372133Y-60529384D01*
X114245471Y-60388712D01*
X114245470Y-60388711D01*
X114092334Y-60277451D01*
X114092329Y-60277448D01*
X113919407Y-60200457D01*
X113919402Y-60200455D01*
X113773601Y-60169465D01*
X113734246Y-60161100D01*
X113544954Y-60161100D01*
X113512497Y-60167998D01*
X113359797Y-60200455D01*
X113359792Y-60200457D01*
X113186870Y-60277448D01*
X113186865Y-60277451D01*
X113033729Y-60388711D01*
X112907066Y-60529385D01*
X112812421Y-60693315D01*
X112812418Y-60693322D01*
X112753927Y-60873340D01*
X112753926Y-60873344D01*
X112734140Y-61061600D01*
X107422382Y-61061600D01*
X107433060Y-60960000D01*
X107413274Y-60771744D01*
X107354779Y-60591716D01*
X107260133Y-60427784D01*
X107133471Y-60287112D01*
X107120170Y-60277448D01*
X106980334Y-60175851D01*
X106980329Y-60175848D01*
X106807407Y-60098857D01*
X106807402Y-60098855D01*
X106661601Y-60067865D01*
X106622246Y-60059500D01*
X106432954Y-60059500D01*
X106400497Y-60066398D01*
X106247797Y-60098855D01*
X106247792Y-60098857D01*
X106074870Y-60175848D01*
X106074865Y-60175851D01*
X105921729Y-60287111D01*
X105795066Y-60427785D01*
X105700421Y-60591715D01*
X105700418Y-60591722D01*
X105641927Y-60771740D01*
X105641926Y-60771744D01*
X105622140Y-60960000D01*
X100000500Y-60960000D01*
X100000500Y-58166000D01*
X144636540Y-58166000D01*
X144656326Y-58354256D01*
X144656327Y-58354259D01*
X144714818Y-58534277D01*
X144714821Y-58534284D01*
X144809467Y-58698216D01*
X144936128Y-58838888D01*
X144936129Y-58838888D01*
X145089265Y-58950148D01*
X145089270Y-58950151D01*
X145262192Y-59027142D01*
X145262197Y-59027144D01*
X145447354Y-59066500D01*
X145447355Y-59066500D01*
X145525500Y-59066500D01*
X145592539Y-59086185D01*
X145638294Y-59138989D01*
X145649500Y-59190500D01*
X145649500Y-59211604D01*
X145664699Y-59365932D01*
X145664700Y-59365934D01*
X145724768Y-59563954D01*
X145822315Y-59746450D01*
X145822317Y-59746452D01*
X145953589Y-59906410D01*
X146050209Y-59985702D01*
X146113550Y-60037685D01*
X146296046Y-60135232D01*
X146494066Y-60195300D01*
X146494065Y-60195300D01*
X146512529Y-60197118D01*
X146700000Y-60215583D01*
X146905934Y-60195300D01*
X147103954Y-60135232D01*
X147286450Y-60037685D01*
X147446410Y-59906410D01*
X147577685Y-59746450D01*
X147675232Y-59563954D01*
X147735300Y-59365934D01*
X147750500Y-59211608D01*
X147750500Y-59211604D01*
X152449500Y-59211604D01*
X152464699Y-59365932D01*
X152464700Y-59365934D01*
X152524768Y-59563954D01*
X152622315Y-59746450D01*
X152622317Y-59746452D01*
X152753589Y-59906410D01*
X152850209Y-59985702D01*
X152913550Y-60037685D01*
X153096046Y-60135232D01*
X153294066Y-60195300D01*
X153294065Y-60195300D01*
X153312529Y-60197118D01*
X153500000Y-60215583D01*
X153705934Y-60195300D01*
X153903954Y-60135232D01*
X154086450Y-60037685D01*
X154246410Y-59906410D01*
X154377685Y-59746450D01*
X154475232Y-59563954D01*
X154521058Y-59412884D01*
X169542000Y-59412884D01*
X169556817Y-59601150D01*
X169615626Y-59846110D01*
X169712033Y-60078859D01*
X169843660Y-60293653D01*
X169843661Y-60293656D01*
X169843664Y-60293659D01*
X170007276Y-60485224D01*
X170131961Y-60591715D01*
X170198843Y-60648838D01*
X170198846Y-60648839D01*
X170413640Y-60780466D01*
X170637860Y-60873340D01*
X170646389Y-60876873D01*
X170891352Y-60935683D01*
X171142500Y-60955449D01*
X171393648Y-60935683D01*
X171638611Y-60876873D01*
X171871359Y-60780466D01*
X172064999Y-60661802D01*
X172132443Y-60643558D01*
X172199046Y-60664674D01*
X172243660Y-60718446D01*
X172253405Y-60757796D01*
X172256817Y-60801148D01*
X172256818Y-60801151D01*
X172315626Y-61046110D01*
X172412033Y-61278859D01*
X172543660Y-61493653D01*
X172543661Y-61493656D01*
X172592775Y-61551161D01*
X172707276Y-61685224D01*
X172776271Y-61744151D01*
X172898843Y-61848838D01*
X172898846Y-61848839D01*
X173113640Y-61980466D01*
X173220598Y-62024769D01*
X173346389Y-62076873D01*
X173591352Y-62135683D01*
X173842500Y-62155449D01*
X174093648Y-62135683D01*
X174338611Y-62076873D01*
X174571359Y-61980466D01*
X174786159Y-61848836D01*
X174977724Y-61685224D01*
X175141336Y-61493659D01*
X175272966Y-61278859D01*
X175369373Y-61046111D01*
X175428183Y-60801148D01*
X175443000Y-60612882D01*
X175443000Y-58687118D01*
X175428183Y-58498852D01*
X175369373Y-58253889D01*
X175285127Y-58050500D01*
X175272966Y-58021140D01*
X175141339Y-57806346D01*
X175141338Y-57806343D01*
X175014198Y-57657482D01*
X174977724Y-57614776D01*
X174828256Y-57487118D01*
X174786156Y-57451161D01*
X174786153Y-57451160D01*
X174571359Y-57319533D01*
X174338610Y-57223126D01*
X174093651Y-57164317D01*
X173842500Y-57144551D01*
X173591348Y-57164317D01*
X173346389Y-57223126D01*
X173113640Y-57319533D01*
X172920001Y-57438196D01*
X172852555Y-57456441D01*
X172785953Y-57435325D01*
X172741339Y-57381553D01*
X172731594Y-57342203D01*
X172728183Y-57298852D01*
X172669373Y-57053889D01*
X172656974Y-57023954D01*
X172572966Y-56821140D01*
X172441339Y-56606346D01*
X172441338Y-56606343D01*
X172404375Y-56563066D01*
X172277724Y-56414776D01*
X172151071Y-56306604D01*
X172086156Y-56251161D01*
X172086153Y-56251160D01*
X171871359Y-56119533D01*
X171638610Y-56023126D01*
X171393651Y-55964317D01*
X171142500Y-55944551D01*
X170891348Y-55964317D01*
X170646389Y-56023126D01*
X170413640Y-56119533D01*
X170198846Y-56251160D01*
X170198843Y-56251161D01*
X170007276Y-56414776D01*
X169843661Y-56606343D01*
X169843660Y-56606346D01*
X169712033Y-56821140D01*
X169615626Y-57053889D01*
X169556817Y-57298849D01*
X169542000Y-57487116D01*
X169542000Y-59412884D01*
X154521058Y-59412884D01*
X154535300Y-59365934D01*
X154550500Y-59211608D01*
X154550500Y-58408392D01*
X154535300Y-58254066D01*
X154475232Y-58056046D01*
X154377685Y-57873550D01*
X154311028Y-57792328D01*
X154246410Y-57713589D01*
X154151688Y-57635854D01*
X154125814Y-57597870D01*
X162442000Y-57597870D01*
X162442001Y-57597876D01*
X162448408Y-57657483D01*
X162498702Y-57792328D01*
X162498706Y-57792335D01*
X162584952Y-57907544D01*
X162584955Y-57907547D01*
X162700164Y-57993793D01*
X162700171Y-57993797D01*
X162835017Y-58044091D01*
X162835016Y-58044091D01*
X162841944Y-58044835D01*
X162894627Y-58050500D01*
X165190372Y-58050499D01*
X165249983Y-58044091D01*
X165384831Y-57993796D01*
X165500046Y-57907546D01*
X165586296Y-57792331D01*
X165636591Y-57657483D01*
X165643000Y-57597873D01*
X165642999Y-53502128D01*
X165636591Y-53442517D01*
X165633414Y-53434000D01*
X165586297Y-53307671D01*
X165586293Y-53307664D01*
X165500047Y-53192455D01*
X165500044Y-53192452D01*
X165384835Y-53106206D01*
X165384828Y-53106202D01*
X165249982Y-53055908D01*
X165249983Y-53055908D01*
X165190383Y-53049501D01*
X165190381Y-53049500D01*
X165190373Y-53049500D01*
X165190364Y-53049500D01*
X162894629Y-53049500D01*
X162894623Y-53049501D01*
X162835016Y-53055908D01*
X162700171Y-53106202D01*
X162700164Y-53106206D01*
X162584955Y-53192452D01*
X162584952Y-53192455D01*
X162498706Y-53307664D01*
X162498702Y-53307671D01*
X162448408Y-53442517D01*
X162442001Y-53502116D01*
X162442001Y-53502123D01*
X162442000Y-53502135D01*
X162442000Y-57597870D01*
X154125814Y-57597870D01*
X154112353Y-57578108D01*
X154110482Y-57508263D01*
X154146669Y-57448495D01*
X154151688Y-57444146D01*
X154246410Y-57366410D01*
X154284880Y-57319534D01*
X154377685Y-57206450D01*
X154475232Y-57023954D01*
X154535300Y-56825934D01*
X154550500Y-56671608D01*
X154550500Y-55868392D01*
X154535300Y-55714066D01*
X154475232Y-55516046D01*
X154377685Y-55333550D01*
X154325702Y-55270209D01*
X154246410Y-55173589D01*
X154151688Y-55095854D01*
X154112353Y-55038108D01*
X154110482Y-54968263D01*
X154146669Y-54908495D01*
X154151688Y-54904146D01*
X154246410Y-54826410D01*
X154268986Y-54798901D01*
X154377685Y-54666450D01*
X154475232Y-54483954D01*
X154535300Y-54285934D01*
X154550500Y-54131608D01*
X154550500Y-53328392D01*
X154535300Y-53174066D01*
X154475232Y-52976046D01*
X154377685Y-52793550D01*
X154325702Y-52730209D01*
X154246410Y-52633589D01*
X154157387Y-52560531D01*
X154118052Y-52502785D01*
X154116181Y-52432940D01*
X154152368Y-52373172D01*
X154157386Y-52368824D01*
X154246055Y-52296055D01*
X154377267Y-52136173D01*
X154377271Y-52136166D01*
X154474766Y-51953766D01*
X154491076Y-51900000D01*
X166157228Y-51900000D01*
X166157311Y-51901067D01*
X166216103Y-52145956D01*
X166312480Y-52378631D01*
X166444068Y-52593362D01*
X166444071Y-52593367D01*
X166607630Y-52784869D01*
X166799132Y-52948428D01*
X166799137Y-52948431D01*
X167013868Y-53080019D01*
X167246543Y-53176396D01*
X167491427Y-53235186D01*
X167679628Y-53250000D01*
X168392500Y-53250000D01*
X168392500Y-52416753D01*
X168412185Y-52349714D01*
X168464989Y-52303959D01*
X168534147Y-52294015D01*
X168547316Y-52296644D01*
X168560386Y-52300000D01*
X168560390Y-52300000D01*
X168683392Y-52300000D01*
X168683394Y-52300000D01*
X168683399Y-52299999D01*
X168683403Y-52299999D01*
X168730770Y-52294015D01*
X168752958Y-52291212D01*
X168821936Y-52302338D01*
X168873948Y-52348991D01*
X168892500Y-52414234D01*
X168892500Y-53250000D01*
X169605372Y-53250000D01*
X169793572Y-53235186D01*
X170038456Y-53176396D01*
X170117444Y-53143678D01*
X193899500Y-53143678D01*
X193938629Y-53428357D01*
X193938630Y-53428364D01*
X193959298Y-53502127D01*
X194016156Y-53705058D01*
X194016157Y-53705061D01*
X194016158Y-53705063D01*
X194016158Y-53705064D01*
X194130634Y-53968617D01*
X194279944Y-54214146D01*
X194315648Y-54258032D01*
X194461292Y-54437053D01*
X194587104Y-54554554D01*
X194671299Y-54633187D01*
X194671302Y-54633189D01*
X194906064Y-54798901D01*
X195161203Y-54931104D01*
X195161206Y-54931105D01*
X195355057Y-55000000D01*
X195431968Y-55027334D01*
X195713314Y-55085798D01*
X195928248Y-55100500D01*
X195928253Y-55100500D01*
X196071747Y-55100500D01*
X196071752Y-55100500D01*
X196286686Y-55085798D01*
X196568032Y-55027334D01*
X196838797Y-54931104D01*
X197093936Y-54798901D01*
X197328698Y-54633189D01*
X197538708Y-54437053D01*
X197720055Y-54214147D01*
X197869361Y-53968625D01*
X197869363Y-53968620D01*
X197869365Y-53968617D01*
X197943488Y-53797967D01*
X197983844Y-53705058D01*
X198061371Y-53428358D01*
X198100500Y-53143678D01*
X198100500Y-52856322D01*
X198061371Y-52571642D01*
X197983844Y-52294942D01*
X197982224Y-52291212D01*
X197869365Y-52031382D01*
X197827733Y-51962922D01*
X197720055Y-51785853D01*
X197538708Y-51562947D01*
X197364234Y-51399999D01*
X197328700Y-51366812D01*
X197093935Y-51201098D01*
X196838793Y-51068894D01*
X196568037Y-50972667D01*
X196568034Y-50972666D01*
X196391509Y-50935984D01*
X196286686Y-50914202D01*
X196286684Y-50914201D01*
X196286680Y-50914201D01*
X196150654Y-50904897D01*
X196071752Y-50899500D01*
X195928248Y-50899500D01*
X195854742Y-50904527D01*
X195713319Y-50914201D01*
X195431965Y-50972666D01*
X195431962Y-50972667D01*
X195161206Y-51068894D01*
X194906064Y-51201098D01*
X194671299Y-51366812D01*
X194499531Y-51527234D01*
X194463841Y-51560567D01*
X194461289Y-51562950D01*
X194279944Y-51785853D01*
X194130634Y-52031382D01*
X194016158Y-52294935D01*
X194016158Y-52294936D01*
X193938630Y-52571635D01*
X193938629Y-52571642D01*
X193899500Y-52856321D01*
X193899500Y-53143678D01*
X170117444Y-53143678D01*
X170271131Y-53080019D01*
X170485862Y-52948431D01*
X170485867Y-52948428D01*
X170677369Y-52784869D01*
X170840928Y-52593367D01*
X170840931Y-52593362D01*
X170972519Y-52378631D01*
X171068896Y-52145956D01*
X171127688Y-51901067D01*
X171127772Y-51900000D01*
X169406421Y-51900000D01*
X169339382Y-51880315D01*
X169293627Y-51827511D01*
X169283683Y-51758353D01*
X169284617Y-51752766D01*
X169285159Y-51749919D01*
X169296373Y-51691138D01*
X169286347Y-51531784D01*
X169301783Y-51463643D01*
X169351609Y-51414663D01*
X169410102Y-51400000D01*
X171127771Y-51400000D01*
X171127771Y-51399999D01*
X171127688Y-51398932D01*
X171068896Y-51154043D01*
X170972519Y-50921368D01*
X170840931Y-50706637D01*
X170840928Y-50706632D01*
X170677369Y-50515130D01*
X170485867Y-50351571D01*
X170485862Y-50351568D01*
X170271131Y-50219980D01*
X170038456Y-50123603D01*
X169793572Y-50064813D01*
X169605372Y-50050000D01*
X168892500Y-50050000D01*
X168892500Y-50883246D01*
X168872815Y-50950285D01*
X168820011Y-50996040D01*
X168750853Y-51005984D01*
X168737665Y-51003351D01*
X168724615Y-51000000D01*
X168724614Y-51000000D01*
X168601606Y-51000000D01*
X168601594Y-51000000D01*
X168532041Y-51008787D01*
X168463063Y-50997660D01*
X168411051Y-50951006D01*
X168392500Y-50885765D01*
X168392500Y-50050000D01*
X167679628Y-50050000D01*
X167491427Y-50064813D01*
X167246543Y-50123603D01*
X167013868Y-50219980D01*
X166799137Y-50351568D01*
X166799132Y-50351571D01*
X166607630Y-50515130D01*
X166444071Y-50706632D01*
X166444068Y-50706637D01*
X166312480Y-50921368D01*
X166216103Y-51154043D01*
X166157311Y-51398932D01*
X166157228Y-51399999D01*
X166157229Y-51400000D01*
X167878579Y-51400000D01*
X167945618Y-51419685D01*
X167991373Y-51472489D01*
X168001317Y-51541647D01*
X168000383Y-51547234D01*
X167998427Y-51557485D01*
X167988627Y-51608862D01*
X167998032Y-51758353D01*
X167998653Y-51768214D01*
X167983217Y-51836357D01*
X167933391Y-51885337D01*
X167874898Y-51900000D01*
X166157228Y-51900000D01*
X154491076Y-51900000D01*
X154534808Y-51755834D01*
X154550000Y-51601584D01*
X154550000Y-51450000D01*
X153924000Y-51450000D01*
X153856961Y-51430315D01*
X153811206Y-51377511D01*
X153800000Y-51326000D01*
X153800000Y-51074000D01*
X153819685Y-51006961D01*
X153872489Y-50961206D01*
X153924000Y-50950000D01*
X154550000Y-50950000D01*
X154550000Y-50798415D01*
X154534808Y-50644165D01*
X154474766Y-50446233D01*
X154377271Y-50263833D01*
X154377267Y-50263826D01*
X154246055Y-50103944D01*
X154086173Y-49972732D01*
X154086166Y-49972728D01*
X153903763Y-49875232D01*
X153750000Y-49828587D01*
X153750000Y-50445021D01*
X153730315Y-50512060D01*
X153677511Y-50557815D01*
X153608353Y-50567759D01*
X153592066Y-50564287D01*
X153528162Y-50546105D01*
X153528162Y-50546104D01*
X153416475Y-50556454D01*
X153407931Y-50558885D01*
X153338064Y-50558297D01*
X153279606Y-50520028D01*
X153251118Y-50456230D01*
X153250000Y-50439618D01*
X153250000Y-49828587D01*
X153096236Y-49875232D01*
X152913833Y-49972728D01*
X152913826Y-49972732D01*
X152753944Y-50103944D01*
X152622732Y-50263826D01*
X152622728Y-50263833D01*
X152525233Y-50446233D01*
X152465191Y-50644165D01*
X152450000Y-50798415D01*
X152450000Y-50950000D01*
X153076000Y-50950000D01*
X153143039Y-50969685D01*
X153188794Y-51022489D01*
X153200000Y-51074000D01*
X153200000Y-51326000D01*
X153180315Y-51393039D01*
X153127511Y-51438794D01*
X153076000Y-51450000D01*
X152450000Y-51450000D01*
X152450000Y-51601584D01*
X152465191Y-51755834D01*
X152525233Y-51953766D01*
X152622728Y-52136166D01*
X152622732Y-52136173D01*
X152753944Y-52296055D01*
X152842613Y-52368824D01*
X152881947Y-52426570D01*
X152883818Y-52496414D01*
X152847630Y-52556183D01*
X152842613Y-52560530D01*
X152753590Y-52633589D01*
X152622317Y-52793547D01*
X152524769Y-52976043D01*
X152464699Y-53174067D01*
X152458680Y-53235186D01*
X152450385Y-53319413D01*
X152449500Y-53328395D01*
X152449500Y-54131604D01*
X152464699Y-54285932D01*
X152486389Y-54357433D01*
X152524768Y-54483954D01*
X152622315Y-54666450D01*
X152622317Y-54666452D01*
X152753589Y-54826410D01*
X152799435Y-54864034D01*
X152848313Y-54904146D01*
X152887647Y-54961890D01*
X152889518Y-55031735D01*
X152853331Y-55091504D01*
X152848313Y-55095852D01*
X152753590Y-55173589D01*
X152622317Y-55333547D01*
X152524769Y-55516043D01*
X152464699Y-55714067D01*
X152449500Y-55868395D01*
X152449500Y-56671604D01*
X152464699Y-56825932D01*
X152464700Y-56825934D01*
X152524768Y-57023954D01*
X152622315Y-57206450D01*
X152656969Y-57248677D01*
X152753589Y-57366410D01*
X152799435Y-57404034D01*
X152848313Y-57444146D01*
X152887647Y-57501890D01*
X152889518Y-57571735D01*
X152853331Y-57631504D01*
X152848313Y-57635852D01*
X152753590Y-57713589D01*
X152622317Y-57873547D01*
X152524769Y-58056043D01*
X152464699Y-58254067D01*
X152449500Y-58408395D01*
X152449500Y-59211604D01*
X147750500Y-59211604D01*
X147750500Y-58408392D01*
X147735300Y-58254066D01*
X147675232Y-58056046D01*
X147577685Y-57873550D01*
X147511028Y-57792328D01*
X147446410Y-57713589D01*
X147351688Y-57635854D01*
X147312353Y-57578108D01*
X147310482Y-57508263D01*
X147346669Y-57448495D01*
X147351688Y-57444146D01*
X147446410Y-57366410D01*
X147484880Y-57319534D01*
X147577685Y-57206450D01*
X147675232Y-57023954D01*
X147735300Y-56825934D01*
X147750500Y-56671608D01*
X147750500Y-55868392D01*
X147735300Y-55714066D01*
X147675232Y-55516046D01*
X147577685Y-55333550D01*
X147525702Y-55270209D01*
X147446410Y-55173589D01*
X147351688Y-55095854D01*
X147312353Y-55038108D01*
X147310482Y-54968263D01*
X147346669Y-54908495D01*
X147351688Y-54904146D01*
X147446410Y-54826410D01*
X147468986Y-54798901D01*
X147577685Y-54666450D01*
X147675232Y-54483954D01*
X147735300Y-54285934D01*
X147750500Y-54131608D01*
X147750500Y-53328392D01*
X147735300Y-53174066D01*
X147675232Y-52976046D01*
X147577685Y-52793550D01*
X147525702Y-52730209D01*
X147446410Y-52633589D01*
X147357387Y-52560531D01*
X147318052Y-52502785D01*
X147316181Y-52432940D01*
X147352368Y-52373172D01*
X147357386Y-52368824D01*
X147446055Y-52296055D01*
X147577267Y-52136173D01*
X147577271Y-52136166D01*
X147674766Y-51953766D01*
X147734808Y-51755834D01*
X147750000Y-51601584D01*
X147750000Y-51450000D01*
X147124000Y-51450000D01*
X147056961Y-51430315D01*
X147011206Y-51377511D01*
X147000000Y-51326000D01*
X147000000Y-51074000D01*
X147019685Y-51006961D01*
X147072489Y-50961206D01*
X147124000Y-50950000D01*
X147750000Y-50950000D01*
X147750000Y-50798415D01*
X147734808Y-50644165D01*
X147674766Y-50446233D01*
X147577271Y-50263833D01*
X147577267Y-50263826D01*
X147446055Y-50103944D01*
X147286173Y-49972732D01*
X147286166Y-49972728D01*
X147103763Y-49875232D01*
X146950000Y-49828587D01*
X146950000Y-50445021D01*
X146930315Y-50512060D01*
X146877511Y-50557815D01*
X146808353Y-50567759D01*
X146792066Y-50564287D01*
X146728162Y-50546105D01*
X146728162Y-50546104D01*
X146616475Y-50556454D01*
X146607931Y-50558885D01*
X146538064Y-50558297D01*
X146479606Y-50520028D01*
X146451118Y-50456230D01*
X146450000Y-50439618D01*
X146450000Y-49828587D01*
X146296236Y-49875232D01*
X146113833Y-49972728D01*
X146113826Y-49972732D01*
X145953944Y-50103944D01*
X145822732Y-50263826D01*
X145822728Y-50263833D01*
X145725233Y-50446233D01*
X145665191Y-50644165D01*
X145650000Y-50798415D01*
X145650000Y-50950000D01*
X146276000Y-50950000D01*
X146343039Y-50969685D01*
X146388794Y-51022489D01*
X146400000Y-51074000D01*
X146400000Y-51326000D01*
X146380315Y-51393039D01*
X146327511Y-51438794D01*
X146276000Y-51450000D01*
X145650000Y-51450000D01*
X145650000Y-51601584D01*
X145665191Y-51755834D01*
X145725233Y-51953766D01*
X145822728Y-52136166D01*
X145822732Y-52136173D01*
X145953944Y-52296055D01*
X146042613Y-52368824D01*
X146081947Y-52426570D01*
X146083818Y-52496414D01*
X146047630Y-52556183D01*
X146042613Y-52560530D01*
X145953590Y-52633589D01*
X145822317Y-52793547D01*
X145724769Y-52976043D01*
X145664699Y-53174067D01*
X145658680Y-53235186D01*
X145650385Y-53319413D01*
X145649500Y-53328395D01*
X145649500Y-54131604D01*
X145664699Y-54285932D01*
X145686389Y-54357433D01*
X145724768Y-54483954D01*
X145822315Y-54666450D01*
X145822317Y-54666452D01*
X145953590Y-54826410D01*
X146048312Y-54904147D01*
X146087646Y-54961893D01*
X146089517Y-55031737D01*
X146053329Y-55091505D01*
X146048312Y-55095853D01*
X145953590Y-55173589D01*
X145822317Y-55333547D01*
X145724769Y-55516043D01*
X145664699Y-55714067D01*
X145649500Y-55868395D01*
X145649500Y-56671604D01*
X145664699Y-56825932D01*
X145724769Y-57023956D01*
X145756583Y-57083475D01*
X145770825Y-57151878D01*
X145745825Y-57217122D01*
X145689521Y-57258493D01*
X145643145Y-57264162D01*
X145643145Y-57265500D01*
X145636646Y-57265500D01*
X145447354Y-57265500D01*
X145414897Y-57272398D01*
X145262197Y-57304855D01*
X145262192Y-57304857D01*
X145089270Y-57381848D01*
X145089265Y-57381851D01*
X144936129Y-57493111D01*
X144809466Y-57633785D01*
X144714821Y-57797715D01*
X144714818Y-57797722D01*
X144656327Y-57977740D01*
X144656326Y-57977744D01*
X144636540Y-58166000D01*
X100000500Y-58166000D01*
X100000500Y-53143678D01*
X101899500Y-53143678D01*
X101938629Y-53428357D01*
X101938630Y-53428364D01*
X101959298Y-53502127D01*
X102016156Y-53705058D01*
X102016157Y-53705061D01*
X102016158Y-53705063D01*
X102016158Y-53705064D01*
X102130634Y-53968617D01*
X102279944Y-54214146D01*
X102315648Y-54258032D01*
X102461292Y-54437053D01*
X102587104Y-54554554D01*
X102671299Y-54633187D01*
X102671302Y-54633189D01*
X102906064Y-54798901D01*
X103161203Y-54931104D01*
X103161206Y-54931105D01*
X103355057Y-55000000D01*
X103431968Y-55027334D01*
X103713314Y-55085798D01*
X103928248Y-55100500D01*
X103928253Y-55100500D01*
X104071747Y-55100500D01*
X104071752Y-55100500D01*
X104286686Y-55085798D01*
X104568032Y-55027334D01*
X104838797Y-54931104D01*
X105093936Y-54798901D01*
X105328698Y-54633189D01*
X105538708Y-54437053D01*
X105720055Y-54214147D01*
X105869361Y-53968625D01*
X105869363Y-53968620D01*
X105869365Y-53968617D01*
X105943488Y-53797967D01*
X105971272Y-53734001D01*
X117220500Y-53734001D01*
X117220501Y-53734018D01*
X117231000Y-53836796D01*
X117231001Y-53836799D01*
X117276894Y-53975294D01*
X117286186Y-54003334D01*
X117378288Y-54152656D01*
X117502344Y-54276712D01*
X117651666Y-54368814D01*
X117818203Y-54423999D01*
X117920991Y-54434500D01*
X119221008Y-54434499D01*
X119323797Y-54423999D01*
X119490334Y-54368814D01*
X119639656Y-54276712D01*
X119763712Y-54152656D01*
X119855814Y-54003334D01*
X119855814Y-54003331D01*
X119859178Y-53997879D01*
X119911126Y-53951154D01*
X119980088Y-53939931D01*
X120044170Y-53967774D01*
X120052398Y-53975294D01*
X120199599Y-54122495D01*
X120242675Y-54152657D01*
X120393165Y-54258032D01*
X120393167Y-54258033D01*
X120393170Y-54258035D01*
X120607337Y-54357903D01*
X120835592Y-54419063D01*
X121012034Y-54434500D01*
X121070999Y-54439659D01*
X121071000Y-54439659D01*
X121071001Y-54439659D01*
X121129966Y-54434500D01*
X121306408Y-54419063D01*
X121534663Y-54357903D01*
X121748829Y-54258035D01*
X121942401Y-54122495D01*
X122109495Y-53955401D01*
X122219732Y-53797965D01*
X122274306Y-53754342D01*
X122343805Y-53747148D01*
X122406159Y-53778670D01*
X122422880Y-53797967D01*
X122532886Y-53955073D01*
X122532891Y-53955079D01*
X122699917Y-54122105D01*
X122893421Y-54257600D01*
X123107507Y-54357429D01*
X123107516Y-54357433D01*
X123320998Y-54414635D01*
X123320998Y-54414634D01*
X123320999Y-53546044D01*
X123340684Y-53479005D01*
X123393488Y-53433250D01*
X123462646Y-53423306D01*
X123476177Y-53425251D01*
X123537025Y-53434000D01*
X123537026Y-53434000D01*
X123604974Y-53434000D01*
X123604975Y-53434000D01*
X123674570Y-53423993D01*
X123679353Y-53423306D01*
X123748512Y-53433250D01*
X123801316Y-53479005D01*
X123821000Y-53546044D01*
X123821000Y-54414633D01*
X124034483Y-54357433D01*
X124034492Y-54357429D01*
X124248577Y-54257600D01*
X124248579Y-54257599D01*
X124442073Y-54122113D01*
X124442079Y-54122108D01*
X124609108Y-53955079D01*
X124609113Y-53955073D01*
X124719119Y-53797967D01*
X124773695Y-53754342D01*
X124843194Y-53747148D01*
X124905549Y-53778670D01*
X124922269Y-53797967D01*
X125032505Y-53955402D01*
X125199209Y-54122105D01*
X125199599Y-54122495D01*
X125242675Y-54152657D01*
X125393165Y-54258032D01*
X125393167Y-54258033D01*
X125393170Y-54258035D01*
X125607337Y-54357903D01*
X125835592Y-54419063D01*
X126012034Y-54434500D01*
X126070999Y-54439659D01*
X126071000Y-54439659D01*
X126071001Y-54439659D01*
X126129966Y-54434500D01*
X126306408Y-54419063D01*
X126534663Y-54357903D01*
X126748829Y-54258035D01*
X126942401Y-54122495D01*
X127109495Y-53955401D01*
X127219426Y-53798401D01*
X127274001Y-53754778D01*
X127343500Y-53747584D01*
X127405855Y-53779106D01*
X127422571Y-53798398D01*
X127493144Y-53899187D01*
X127532506Y-53955403D01*
X127699209Y-54122105D01*
X127699599Y-54122495D01*
X127742675Y-54152657D01*
X127893165Y-54258032D01*
X127893167Y-54258033D01*
X127893170Y-54258035D01*
X128107337Y-54357903D01*
X128335592Y-54419063D01*
X128512034Y-54434500D01*
X128570999Y-54439659D01*
X128571000Y-54439659D01*
X128571001Y-54439659D01*
X128629966Y-54434500D01*
X128806408Y-54419063D01*
X129034663Y-54357903D01*
X129248829Y-54258035D01*
X129442401Y-54122495D01*
X129609495Y-53955401D01*
X129745035Y-53761829D01*
X129844903Y-53547663D01*
X129906063Y-53319408D01*
X129921500Y-53142966D01*
X129921500Y-52775034D01*
X129906063Y-52598592D01*
X129844903Y-52370337D01*
X129745035Y-52156171D01*
X129737883Y-52145956D01*
X129609494Y-51962597D01*
X129442402Y-51795506D01*
X129442395Y-51795501D01*
X129428616Y-51785853D01*
X129399324Y-51765342D01*
X129248834Y-51659967D01*
X129248830Y-51659965D01*
X129208777Y-51641288D01*
X129034663Y-51560097D01*
X129034659Y-51560096D01*
X129034655Y-51560094D01*
X128806413Y-51498938D01*
X128806403Y-51498936D01*
X128571001Y-51478341D01*
X128570999Y-51478341D01*
X128335596Y-51498936D01*
X128335586Y-51498938D01*
X128107344Y-51560094D01*
X128107335Y-51560098D01*
X127893171Y-51659964D01*
X127893169Y-51659965D01*
X127699597Y-51795505D01*
X127532508Y-51962594D01*
X127422574Y-52119596D01*
X127367997Y-52163221D01*
X127298498Y-52170413D01*
X127236144Y-52138891D01*
X127219424Y-52119595D01*
X127109494Y-51962597D01*
X126942402Y-51795506D01*
X126942395Y-51795501D01*
X126928616Y-51785853D01*
X126899324Y-51765342D01*
X126748834Y-51659967D01*
X126748830Y-51659965D01*
X126708777Y-51641288D01*
X126534663Y-51560097D01*
X126534659Y-51560096D01*
X126534655Y-51560094D01*
X126306413Y-51498938D01*
X126306403Y-51498936D01*
X126071001Y-51478341D01*
X126070999Y-51478341D01*
X125835596Y-51498936D01*
X125835586Y-51498938D01*
X125607344Y-51560094D01*
X125607335Y-51560098D01*
X125393171Y-51659964D01*
X125393169Y-51659965D01*
X125199597Y-51795505D01*
X125032508Y-51962594D01*
X124922269Y-52120032D01*
X124867692Y-52163656D01*
X124798193Y-52170849D01*
X124735839Y-52139327D01*
X124719119Y-52120031D01*
X124609113Y-51962926D01*
X124609108Y-51962920D01*
X124442082Y-51795894D01*
X124248578Y-51660399D01*
X124034492Y-51560570D01*
X124034486Y-51560567D01*
X123821000Y-51503364D01*
X123821000Y-52371956D01*
X123801315Y-52438995D01*
X123748511Y-52484750D01*
X123679353Y-52494694D01*
X123653064Y-52490914D01*
X123604975Y-52484000D01*
X123537025Y-52484000D01*
X123462646Y-52494694D01*
X123393487Y-52484750D01*
X123340683Y-52438995D01*
X123320999Y-52371956D01*
X123320999Y-51503364D01*
X123320998Y-51503364D01*
X123107505Y-51560570D01*
X122893422Y-51660399D01*
X122893420Y-51660400D01*
X122699926Y-51795886D01*
X122699920Y-51795891D01*
X122532891Y-51962920D01*
X122532890Y-51962922D01*
X122422880Y-52120032D01*
X122368303Y-52163657D01*
X122298804Y-52170849D01*
X122236450Y-52139327D01*
X122219730Y-52120031D01*
X122109494Y-51962597D01*
X121942402Y-51795506D01*
X121942395Y-51795501D01*
X121928616Y-51785853D01*
X121899324Y-51765342D01*
X121748834Y-51659967D01*
X121748830Y-51659965D01*
X121708777Y-51641288D01*
X121534663Y-51560097D01*
X121534659Y-51560096D01*
X121534655Y-51560094D01*
X121306413Y-51498938D01*
X121306403Y-51498936D01*
X121071001Y-51478341D01*
X121070999Y-51478341D01*
X120835596Y-51498936D01*
X120835586Y-51498938D01*
X120607344Y-51560094D01*
X120607335Y-51560098D01*
X120393171Y-51659964D01*
X120393169Y-51659965D01*
X120199597Y-51795505D01*
X120052398Y-51942705D01*
X119991075Y-51976190D01*
X119921383Y-51971206D01*
X119865450Y-51929334D01*
X119859178Y-51920120D01*
X119763712Y-51765344D01*
X119639657Y-51641289D01*
X119639656Y-51641288D01*
X119508786Y-51560567D01*
X119490336Y-51549187D01*
X119490331Y-51549185D01*
X119424087Y-51527234D01*
X119323797Y-51494001D01*
X119323795Y-51494000D01*
X119221010Y-51483500D01*
X117920998Y-51483500D01*
X117920981Y-51483501D01*
X117818203Y-51494000D01*
X117818200Y-51494001D01*
X117651668Y-51549185D01*
X117651663Y-51549187D01*
X117502342Y-51641289D01*
X117378289Y-51765342D01*
X117286187Y-51914663D01*
X117286185Y-51914668D01*
X117270194Y-51962926D01*
X117231001Y-52081203D01*
X117231001Y-52081204D01*
X117231000Y-52081204D01*
X117220500Y-52183983D01*
X117220500Y-53734001D01*
X105971272Y-53734001D01*
X105983844Y-53705058D01*
X106061371Y-53428358D01*
X106100500Y-53143678D01*
X106100500Y-52856322D01*
X106061371Y-52571642D01*
X105983844Y-52294942D01*
X105982224Y-52291212D01*
X105869365Y-52031382D01*
X105827733Y-51962922D01*
X105720055Y-51785853D01*
X105538708Y-51562947D01*
X105364234Y-51399999D01*
X105328700Y-51366812D01*
X105093935Y-51201098D01*
X104838793Y-51068894D01*
X104568037Y-50972667D01*
X104568034Y-50972666D01*
X104391509Y-50935984D01*
X104286686Y-50914202D01*
X104286684Y-50914201D01*
X104286680Y-50914201D01*
X104150654Y-50904897D01*
X104071752Y-50899500D01*
X103928248Y-50899500D01*
X103854742Y-50904527D01*
X103713319Y-50914201D01*
X103431965Y-50972666D01*
X103431962Y-50972667D01*
X103161206Y-51068894D01*
X102906064Y-51201098D01*
X102671299Y-51366812D01*
X102499531Y-51527234D01*
X102463841Y-51560567D01*
X102461289Y-51562950D01*
X102279944Y-51785853D01*
X102130634Y-52031382D01*
X102016158Y-52294935D01*
X102016158Y-52294936D01*
X101938630Y-52571635D01*
X101938629Y-52571642D01*
X101899500Y-52856321D01*
X101899500Y-53143678D01*
X100000500Y-53143678D01*
X100000500Y-50002681D01*
X100000733Y-49997330D01*
X100004477Y-49954535D01*
X100016918Y-49828223D01*
X100020542Y-49808309D01*
X100038402Y-49741653D01*
X100066683Y-49648424D01*
X100072953Y-49632037D01*
X100104420Y-49564558D01*
X100105872Y-49561653D01*
X100150764Y-49477666D01*
X100154657Y-49471331D01*
X100187837Y-49423945D01*
X100200994Y-49405155D01*
X100203827Y-49401420D01*
X100263122Y-49329168D01*
X100267162Y-49324710D01*
X100324710Y-49267162D01*
X100329168Y-49263122D01*
X100401420Y-49203827D01*
X100405155Y-49200994D01*
X100471334Y-49154654D01*
X100477666Y-49150764D01*
X100561653Y-49105872D01*
X100564558Y-49104420D01*
X100632037Y-49072953D01*
X100648424Y-49066683D01*
X100741653Y-49038402D01*
X100808309Y-49020542D01*
X100828223Y-49016918D01*
X100954542Y-49004477D01*
X100997305Y-49000735D01*
X101002706Y-49000500D01*
X198997293Y-49000500D01*
X199002695Y-49000735D01*
G37*
%TD.AperFunction*%
%TD*%
M02*
