M48
; DRILL file {KiCad 7.0.7} date Thu Jan 11 22:16:12 2024
; FORMAT={-:-/ absolute / inch / decimal}
; #@! TF.CreationDate,2024-01-11T22:16:12+01:00
; #@! TF.GenerationSoftware,Kicad,Pcbnew,7.0.7
; #@! TF.FileFunction,Plated,1,4,PTH
FMAT,2
INCH
; #@! TA.AperFunction,Plated,PTH,ViaDrill
T1C0.0157
; #@! TA.AperFunction,Plated,PTH,ComponentDrill
T2C0.0236
; #@! TA.AperFunction,Plated,PTH,ComponentDrill
T3C0.0374
; #@! TA.AperFunction,Plated,PTH,ComponentDrill
T4C0.0394
; #@! TA.AperFunction,Plated,PTH,ComponentDrill
T5C0.0512
%
G90
G05
T1
X4.1703Y-4.7223
X4.1713Y-4.3323
X4.1713Y-5.5073
X4.1722Y-5.1123
X4.358Y-2.752
X4.3803Y-4.5223
X4.3813Y-4.1373
X4.3813Y-5.3073
X4.3822Y-4.9123
X4.45Y-2.66
X4.45Y-3.975
X4.458Y-2.848
X4.5Y-3.975
X4.55Y-2.66
X4.55Y-3.975
X4.55Y-4.675
X4.55Y-4.825
X4.55Y-5.075
X4.55Y-5.225
X4.577Y-3.2175
X4.582Y-3.5225
X4.6Y-3.975
X4.6Y-4.675
X4.6Y-4.825
X4.6Y-5.075
X4.6Y-5.225
X4.752Y-3.1475
X4.7587Y-3.29
X4.775Y-4.225
X4.775Y-4.45
X4.775Y-4.775
X4.775Y-4.825
X4.775Y-4.875
X4.775Y-5.325
X4.775Y-5.375
X4.775Y-5.425
X4.8587Y-3.015
X4.8979Y-4.21
X4.8979Y-4.6
X4.8979Y-4.99
X4.8979Y-5.38
X4.925Y-3.975
X4.9337Y-3.0715
X4.9337Y-3.1285
X4.937Y-3.2125
X4.937Y-3.5225
X4.95Y-5.625
X4.975Y-3.975
X4.9855Y-4.325
X4.9855Y-4.5975
X4.9855Y-4.9875
X4.9855Y-5.3775
X5.0Y-2.5665
X5.0Y-5.625
X5.025Y-3.975
X5.2278Y-4.125
X5.2355Y-4.4375
X5.2355Y-4.8225
X5.2405Y-5.2175
X5.374Y-4.51
X5.374Y-4.895
X5.374Y-5.285
X5.54Y-2.51
X5.62Y-4.325
X5.71Y-1.985
X5.725Y-2.755
X5.8Y-2.83
X5.81Y-2.4135
X6.25Y-4.125
X6.392Y-4.6148
X6.3945Y-4.2223
X6.3945Y-5.0023
X6.3945Y-5.3923
X6.4142Y-2.4102
X6.496Y-4.7223
X6.497Y-4.3323
X6.497Y-5.5073
X6.4978Y-5.1123
X6.706Y-4.5223
X6.707Y-4.1373
X6.707Y-5.3073
X6.7078Y-4.9123
X6.727Y-4.0548
X6.87Y-4.44
X6.9Y-4.69
X6.9Y-4.83
X6.9Y-5.08
X6.9Y-5.21
X6.9007Y-3.2175
X6.9057Y-3.5225
X6.9057Y-3.5725
X6.93Y-4.44
X6.94Y-4.69
X6.94Y-4.83
X6.94Y-5.08
X6.94Y-5.21
X7.08Y-4.23
X7.08Y-4.44
X7.08Y-4.49
X7.08Y-4.54
X7.0824Y-3.29
X7.195Y-3.01
X7.2225Y-4.21
X7.2225Y-4.6
X7.2225Y-4.99
X7.2225Y-5.38
X7.2574Y-3.0715
X7.2574Y-3.1285
X7.2607Y-3.2125
X7.2607Y-3.5225
X7.2607Y-3.5725
X7.31Y-4.325
X7.31Y-4.5975
X7.31Y-4.9875
X7.31Y-5.3775
X7.5523Y-4.125
X7.56Y-4.4375
X7.56Y-4.8225
X7.565Y-5.2175
X7.6986Y-4.51
X7.6986Y-4.895
X7.6986Y-5.285
T3
X4.4631Y-2.0276
X4.5616Y-2.0276
X4.66Y-2.0276
X4.7584Y-2.0276
X4.8569Y-2.0276
T4
X4.7098Y-3.815
X4.7098Y-3.915
X4.8098Y-3.815
X4.8098Y-3.915
X5.3054Y-3.0352
X5.3054Y-3.1352
X5.4054Y-3.0352
X5.4054Y-3.1352
X5.5054Y-3.0352
X5.5054Y-3.1352
X5.6054Y-3.0352
X5.6054Y-3.1352
X5.6758Y-5.0377
X5.7758Y-5.0377
X6.0348Y-5.3356
X6.0348Y-5.4356
X6.0348Y-5.5356
X6.0348Y-5.6356
X6.0348Y-5.7356
X6.0451Y-2.7723
X6.1451Y-2.7723
X6.225Y-3.035
X6.225Y-3.135
X6.325Y-3.035
X6.325Y-3.135
X6.425Y-3.035
X6.425Y-3.135
X6.525Y-3.035
X6.525Y-3.135
X7.035Y-3.815
X7.035Y-3.915
X7.135Y-3.815
X7.135Y-3.915
T5
X5.1216Y-2.1888
X5.1413Y-2.4762
X5.3027Y-2.0352
X5.4012Y-2.303
X5.5075Y-2.3502
T2
G00X5.5517Y-5.3002
M15
G01X5.5517Y-5.3277
M16
G05
G00X5.586Y-5.4789
M15
G01X5.586Y-5.5065
M16
G05
G00X5.586Y-5.5789
M15
G01X5.586Y-5.6065
M16
G05
G00X5.586Y-5.6789
M15
G01X5.586Y-5.7065
M16
G05
G00X5.586Y-5.7785
M15
G01X5.586Y-5.8061
M16
G05
G00X5.6116Y-5.188
M15
G01X5.6391Y-5.188
M16
G05
G00X5.8084Y-5.188
M15
G01X5.836Y-5.188
M16
G05
G00X5.8537Y-5.4789
M15
G01X5.8537Y-5.5065
M16
G05
G00X5.8537Y-5.5789
M15
G01X5.8537Y-5.6065
M16
G05
G00X5.8537Y-5.6789
M15
G01X5.8537Y-5.7065
M16
G05
G00X5.8537Y-5.7785
M15
G01X5.8537Y-5.8061
M16
G05
G00X5.8883Y-5.3002
M15
G01X5.8883Y-5.3277
M16
G05
G00X5.9215Y-2.5098
M15
G01X5.9215Y-2.4823
M16
G05
G00X5.9561Y-2.0315
M15
G01X5.9561Y-2.0039
M16
G05
G00X5.9561Y-2.1311
M15
G01X5.9561Y-2.1035
M16
G05
G00X5.9561Y-2.2311
M15
G01X5.9561Y-2.2035
M16
G05
G00X5.9561Y-2.3311
M15
G01X5.9561Y-2.3035
M16
G05
G00X6.0014Y-2.622
M15
G01X5.9739Y-2.622
M16
G05
G00X6.1983Y-2.622
M15
G01X6.1707Y-2.622
M16
G05
G00X6.2239Y-2.0315
M15
G01X6.2239Y-2.0039
M16
G05
G00X6.2239Y-2.1311
M15
G01X6.2239Y-2.1035
M16
G05
G00X6.2239Y-2.2311
M15
G01X6.2239Y-2.2035
M16
G05
G00X6.2239Y-2.3311
M15
G01X6.2239Y-2.3035
M16
G05
G00X6.2581Y-2.5098
M15
G01X6.2581Y-2.4823
M16
G05
T0
M30
