%TF.GenerationSoftware,KiCad,Pcbnew,7.0.7*%
%TF.CreationDate,2024-01-18T16:33:32+01:00*%
%TF.ProjectId,BHOA,42484f41-2e6b-4696-9361-645f70636258,rev?*%
%TF.SameCoordinates,Original*%
%TF.FileFunction,Paste,Top*%
%TF.FilePolarity,Positive*%
%FSLAX46Y46*%
G04 Gerber Fmt 4.6, Leading zero omitted, Abs format (unit mm)*
G04 Created by KiCad (PCBNEW 7.0.7) date 2024-01-18 16:33:32*
%MOMM*%
%LPD*%
G01*
G04 APERTURE LIST*
G04 Aperture macros list*
%AMRoundRect*
0 Rectangle with rounded corners*
0 $1 Rounding radius*
0 $2 $3 $4 $5 $6 $7 $8 $9 X,Y pos of 4 corners*
0 Add a 4 corners polygon primitive as box body*
4,1,4,$2,$3,$4,$5,$6,$7,$8,$9,$2,$3,0*
0 Add four circle primitives for the rounded corners*
1,1,$1+$1,$2,$3*
1,1,$1+$1,$4,$5*
1,1,$1+$1,$6,$7*
1,1,$1+$1,$8,$9*
0 Add four rect primitives between the rounded corners*
20,1,$1+$1,$2,$3,$4,$5,0*
20,1,$1+$1,$4,$5,$6,$7,0*
20,1,$1+$1,$6,$7,$8,$9,0*
20,1,$1+$1,$8,$9,$2,$3,0*%
G04 Aperture macros list end*
%ADD10RoundRect,0.150000X0.150000X-0.587500X0.150000X0.587500X-0.150000X0.587500X-0.150000X-0.587500X0*%
%ADD11RoundRect,0.250000X0.550000X-1.500000X0.550000X1.500000X-0.550000X1.500000X-0.550000X-1.500000X0*%
%ADD12RoundRect,0.250000X-0.550000X1.500000X-0.550000X-1.500000X0.550000X-1.500000X0.550000X1.500000X0*%
%ADD13RoundRect,0.250000X-0.350000X-0.450000X0.350000X-0.450000X0.350000X0.450000X-0.350000X0.450000X0*%
%ADD14RoundRect,0.250000X-0.337500X-0.475000X0.337500X-0.475000X0.337500X0.475000X-0.337500X0.475000X0*%
%ADD15RoundRect,0.250000X0.337500X0.475000X-0.337500X0.475000X-0.337500X-0.475000X0.337500X-0.475000X0*%
%ADD16RoundRect,0.150000X-0.825000X-0.150000X0.825000X-0.150000X0.825000X0.150000X-0.825000X0.150000X0*%
%ADD17R,1.200000X1.200000*%
%ADD18R,1.600000X1.500000*%
%ADD19RoundRect,0.250000X0.450000X-0.350000X0.450000X0.350000X-0.450000X0.350000X-0.450000X-0.350000X0*%
%ADD20RoundRect,0.250000X0.350000X0.450000X-0.350000X0.450000X-0.350000X-0.450000X0.350000X-0.450000X0*%
%ADD21R,1.000000X3.000000*%
%ADD22RoundRect,0.150000X-0.150000X0.587500X-0.150000X-0.587500X0.150000X-0.587500X0.150000X0.587500X0*%
%ADD23RoundRect,0.250000X-0.450000X0.325000X-0.450000X-0.325000X0.450000X-0.325000X0.450000X0.325000X0*%
%ADD24RoundRect,0.250000X-0.450000X0.350000X-0.450000X-0.350000X0.450000X-0.350000X0.450000X0.350000X0*%
%ADD25RoundRect,0.250000X-0.475000X0.337500X-0.475000X-0.337500X0.475000X-0.337500X0.475000X0.337500X0*%
%ADD26RoundRect,0.250000X-0.400000X-0.625000X0.400000X-0.625000X0.400000X0.625000X-0.400000X0.625000X0*%
%ADD27RoundRect,0.250000X0.400000X0.625000X-0.400000X0.625000X-0.400000X-0.625000X0.400000X-0.625000X0*%
%ADD28RoundRect,0.250000X-1.000000X1.500000X-1.000000X-1.500000X1.000000X-1.500000X1.000000X1.500000X0*%
%ADD29RoundRect,0.250000X0.412500X0.650000X-0.412500X0.650000X-0.412500X-0.650000X0.412500X-0.650000X0*%
G04 APERTURE END LIST*
D10*
%TO.C,D4*%
X181850000Y-145837500D03*
X183750000Y-145837500D03*
X182800000Y-143962500D03*
%TD*%
D11*
%TO.C,C2*%
X111900000Y-56800000D03*
X111900000Y-51400000D03*
%TD*%
D12*
%TO.C,C1*%
X135300000Y-51400000D03*
X135300000Y-56800000D03*
%TD*%
D13*
%TO.C,R30*%
X157749750Y-57112250D03*
X155749750Y-57112250D03*
%TD*%
D14*
%TO.C,C32*%
X157787250Y-54826250D03*
X155712250Y-54826250D03*
%TD*%
D15*
%TO.C,C31*%
X155712250Y-50254250D03*
X157787250Y-50254250D03*
%TD*%
D13*
%TO.C,R31*%
X157749750Y-52540250D03*
X155749750Y-52540250D03*
%TD*%
D14*
%TO.C,C30*%
X157787250Y-59398250D03*
X155712250Y-59398250D03*
%TD*%
D16*
%TO.C,U1*%
X104586000Y-60960000D03*
X104586000Y-62230000D03*
X104586000Y-63500000D03*
X104586000Y-64770000D03*
X109536000Y-64770000D03*
X109536000Y-63500000D03*
X109536000Y-62230000D03*
X109536000Y-60960000D03*
%TD*%
D17*
%TO.C,RV1*%
X147257500Y-117461600D03*
D18*
X148257500Y-120711600D03*
D17*
X149257500Y-117461600D03*
%TD*%
D19*
%TO.C,R5*%
X149273500Y-124835200D03*
X149273500Y-122835200D03*
%TD*%
D20*
%TO.C,R2*%
X120888000Y-58420000D03*
X118888000Y-58420000D03*
%TD*%
D13*
%TO.C,R1*%
X126127000Y-58420000D03*
X128127000Y-58420000D03*
%TD*%
D10*
%TO.C,Q1*%
X152146000Y-122760500D03*
X153096000Y-124635500D03*
X151196000Y-124635500D03*
%TD*%
D21*
%TO.C,K2*%
X178480000Y-136320000D03*
X175940000Y-136320000D03*
X173400000Y-136320000D03*
X170860000Y-136320000D03*
X168320000Y-136320000D03*
X168320000Y-145880000D03*
X170860000Y-145880000D03*
X173400000Y-145880000D03*
X175940000Y-145880000D03*
X178480000Y-145880000D03*
%TD*%
%TO.C,K1*%
X120820000Y-146180000D03*
X123360000Y-146180000D03*
X125900000Y-146180000D03*
X128440000Y-146180000D03*
X130980000Y-146180000D03*
X130980000Y-136620000D03*
X128440000Y-136620000D03*
X125900000Y-136620000D03*
X123360000Y-136620000D03*
X120820000Y-136620000D03*
%TD*%
D22*
%TO.C,D3*%
X117450000Y-143962500D03*
X115550000Y-143962500D03*
X116500000Y-145837500D03*
%TD*%
D23*
%TO.C,D2*%
X116713000Y-56760000D03*
X116713000Y-58810000D03*
%TD*%
%TO.C,D1*%
X130302000Y-56760000D03*
X130302000Y-58810000D03*
%TD*%
D24*
%TO.C,C9*%
X147190700Y-122835200D03*
X147190700Y-124835200D03*
%TD*%
D25*
%TO.C,C8*%
X102108000Y-61065500D03*
X102108000Y-63140500D03*
%TD*%
%TO.C,C7*%
X112014000Y-61065500D03*
X112014000Y-63140500D03*
%TD*%
D14*
%TO.C,C81*%
X182292500Y-99520300D03*
X184367500Y-99520300D03*
%TD*%
%TO.C,C21*%
X142466750Y-50254250D03*
X144541750Y-50254250D03*
%TD*%
D16*
%TO.C,U63*%
X131842364Y-125433000D03*
X131842364Y-126703000D03*
X131842364Y-127973000D03*
X131842364Y-129243000D03*
X126892364Y-129243000D03*
X126892364Y-127973000D03*
X126892364Y-126703000D03*
X126892364Y-125433000D03*
%TD*%
D25*
%TO.C,C55*%
X175782000Y-88318500D03*
X175782000Y-86243500D03*
%TD*%
D16*
%TO.C,U62*%
X131842364Y-115527000D03*
X131842364Y-116797000D03*
X131842364Y-118067000D03*
X131842364Y-119337000D03*
X126892364Y-119337000D03*
X126892364Y-118067000D03*
X126892364Y-116797000D03*
X126892364Y-115527000D03*
%TD*%
D26*
%TO.C,R87*%
X194226000Y-125428300D03*
X197326000Y-125428300D03*
%TD*%
D20*
%TO.C,R20*%
X144504250Y-57112250D03*
X142504250Y-57112250D03*
%TD*%
D26*
%TO.C,R75*%
X116881864Y-105616300D03*
X113781864Y-105616300D03*
%TD*%
D27*
%TO.C,R91*%
X173574800Y-101938000D03*
X170474800Y-101938000D03*
%TD*%
D24*
%TO.C,R55*%
X190514000Y-88154000D03*
X190514000Y-86154000D03*
%TD*%
D27*
%TO.C,R90*%
X167986800Y-95588000D03*
X164886800Y-95588000D03*
%TD*%
D14*
%TO.C,C96*%
X175813300Y-123274000D03*
X177888300Y-123274000D03*
%TD*%
D25*
%TO.C,C54*%
X192800000Y-88191500D03*
X192800000Y-86116500D03*
%TD*%
D26*
%TO.C,R83*%
X194247500Y-115522300D03*
X197347500Y-115522300D03*
%TD*%
D24*
%TO.C,R50*%
X190514000Y-75581000D03*
X190514000Y-73581000D03*
%TD*%
D19*
%TO.C,R42*%
X109565748Y-73553486D03*
X109565748Y-75553486D03*
%TD*%
D14*
%TO.C,C67*%
X124140164Y-129116000D03*
X122065164Y-129116000D03*
%TD*%
D20*
%TO.C,R4*%
X175478500Y-65741000D03*
X173478500Y-65741000D03*
%TD*%
D14*
%TO.C,C85*%
X182266500Y-109426300D03*
X184341500Y-109426300D03*
%TD*%
D27*
%TO.C,R65*%
X126632664Y-121750000D03*
X129732664Y-121750000D03*
%TD*%
D14*
%TO.C,C66*%
X134046164Y-123274000D03*
X131971164Y-123274000D03*
%TD*%
D26*
%TO.C,R80*%
X186225000Y-101806300D03*
X189325000Y-101806300D03*
%TD*%
D24*
%TO.C,R56*%
X178068000Y-88281000D03*
X178068000Y-86281000D03*
%TD*%
D28*
%TO.C,C3*%
X155295600Y-93818900D03*
X155295600Y-100318900D03*
%TD*%
D14*
%TO.C,C76*%
X111442364Y-123904300D03*
X109367364Y-123904300D03*
%TD*%
D27*
%TO.C,R97*%
X173574800Y-131656000D03*
X170474800Y-131656000D03*
%TD*%
D16*
%TO.C,U72*%
X111075864Y-105806500D03*
X111075864Y-107076500D03*
X111075864Y-108346500D03*
X111075864Y-109616500D03*
X106125864Y-109616500D03*
X106125864Y-108346500D03*
X106125864Y-107076500D03*
X106125864Y-105806500D03*
%TD*%
D28*
%TO.C,C4*%
X143995600Y-93818900D03*
X143995600Y-100318900D03*
%TD*%
D14*
%TO.C,C64*%
X134046164Y-113368000D03*
X131971164Y-113368000D03*
%TD*%
%TO.C,C61*%
X124140164Y-99398000D03*
X122065164Y-99398000D03*
%TD*%
%TO.C,C86*%
X189785500Y-123904300D03*
X191860500Y-123904300D03*
%TD*%
D27*
%TO.C,R67*%
X126632664Y-131656000D03*
X129732664Y-131656000D03*
%TD*%
D26*
%TO.C,R76*%
X108906864Y-131651300D03*
X105806864Y-131651300D03*
%TD*%
D14*
%TO.C,C62*%
X134046164Y-103525200D03*
X131971164Y-103525200D03*
%TD*%
D29*
%TO.C,C40*%
X111178248Y-79633486D03*
X114303248Y-79633486D03*
%TD*%
D26*
%TO.C,R73*%
X116929364Y-115522300D03*
X113829364Y-115522300D03*
%TD*%
D24*
%TO.C,R45*%
X122011748Y-88126486D03*
X122011748Y-86126486D03*
%TD*%
D20*
%TO.C,R21*%
X144504250Y-52540250D03*
X142504250Y-52540250D03*
%TD*%
D26*
%TO.C,R84*%
X186199000Y-111712300D03*
X189299000Y-111712300D03*
%TD*%
D24*
%TO.C,R46*%
X109565748Y-88253486D03*
X109565748Y-86253486D03*
%TD*%
D14*
%TO.C,C82*%
X189807000Y-113871300D03*
X191882000Y-113871300D03*
%TD*%
D15*
%TO.C,C90*%
X176084300Y-93619200D03*
X174009300Y-93619200D03*
%TD*%
D14*
%TO.C,C5*%
X165694000Y-65741000D03*
X167769000Y-65741000D03*
%TD*%
%TO.C,C65*%
X124140164Y-119210000D03*
X122065164Y-119210000D03*
%TD*%
D16*
%TO.C,U83*%
X186570000Y-125745500D03*
X186570000Y-127015500D03*
X186570000Y-128285500D03*
X186570000Y-129555500D03*
X191520000Y-129555500D03*
X191520000Y-128285500D03*
X191520000Y-127015500D03*
X191520000Y-125745500D03*
%TD*%
D15*
%TO.C,C22*%
X144541750Y-54826250D03*
X142466750Y-54826250D03*
%TD*%
D16*
%TO.C,U91*%
X170734500Y-105621000D03*
X170734500Y-106891000D03*
X170734500Y-108161000D03*
X170734500Y-109431000D03*
X175684500Y-109431000D03*
X175684500Y-108161000D03*
X175684500Y-106891000D03*
X175684500Y-105621000D03*
%TD*%
%TO.C,U51*%
X186766000Y-84360000D03*
X186766000Y-85630000D03*
X186766000Y-86900000D03*
X186766000Y-88170000D03*
X181816000Y-88170000D03*
X181816000Y-86900000D03*
X181816000Y-85630000D03*
X181816000Y-84360000D03*
%TD*%
D14*
%TO.C,C63*%
X124140164Y-109367200D03*
X122065164Y-109367200D03*
%TD*%
D16*
%TO.C,U40*%
X118263748Y-73537486D03*
X118263748Y-74807486D03*
X118263748Y-76077486D03*
X118263748Y-77347486D03*
X113313748Y-77347486D03*
X113313748Y-76077486D03*
X113313748Y-74807486D03*
X113313748Y-73537486D03*
%TD*%
%TO.C,U50*%
X186766000Y-73565000D03*
X186766000Y-74835000D03*
X186766000Y-76105000D03*
X186766000Y-77375000D03*
X181816000Y-77375000D03*
X181816000Y-76105000D03*
X181816000Y-74835000D03*
X181816000Y-73565000D03*
%TD*%
D14*
%TO.C,C91*%
X165907300Y-99398000D03*
X167982300Y-99398000D03*
%TD*%
D26*
%TO.C,R72*%
X108928364Y-121618300D03*
X105828364Y-121618300D03*
%TD*%
D27*
%TO.C,R41*%
X114208948Y-71124486D03*
X117308948Y-71124486D03*
%TD*%
D16*
%TO.C,U61*%
X131842364Y-105621000D03*
X131842364Y-106891000D03*
X131842364Y-108161000D03*
X131842364Y-109431000D03*
X126892364Y-109431000D03*
X126892364Y-108161000D03*
X126892364Y-106891000D03*
X126892364Y-105621000D03*
%TD*%
D26*
%TO.C,R85*%
X194200000Y-105616300D03*
X197300000Y-105616300D03*
%TD*%
%TO.C,R81*%
X194226000Y-95837300D03*
X197326000Y-95837300D03*
%TD*%
D14*
%TO.C,C84*%
X189759500Y-103965300D03*
X191834500Y-103965300D03*
%TD*%
D27*
%TO.C,R51*%
X182745200Y-71406000D03*
X185845200Y-71406000D03*
%TD*%
D16*
%TO.C,U80*%
X186570000Y-95964300D03*
X186570000Y-97234300D03*
X186570000Y-98504300D03*
X186570000Y-99774300D03*
X191520000Y-99774300D03*
X191520000Y-98504300D03*
X191520000Y-97234300D03*
X191520000Y-95964300D03*
%TD*%
D14*
%TO.C,C72*%
X111463864Y-113871300D03*
X109388864Y-113871300D03*
%TD*%
D26*
%TO.C,R86*%
X186225000Y-131651300D03*
X189325000Y-131651300D03*
%TD*%
D14*
%TO.C,C74*%
X111416364Y-103965300D03*
X109341364Y-103965300D03*
%TD*%
D27*
%TO.C,R61*%
X126632664Y-101938000D03*
X129732664Y-101938000D03*
%TD*%
D15*
%TO.C,C60*%
X130167164Y-93619200D03*
X132242164Y-93619200D03*
%TD*%
D27*
%TO.C,R94*%
X167986800Y-115400000D03*
X164886800Y-115400000D03*
%TD*%
%TO.C,R96*%
X167986800Y-125306000D03*
X164886800Y-125306000D03*
%TD*%
D26*
%TO.C,R74*%
X108880864Y-111712300D03*
X105780864Y-111712300D03*
%TD*%
D14*
%TO.C,C77*%
X103949364Y-129365300D03*
X101874364Y-129365300D03*
%TD*%
D27*
%TO.C,R62*%
X121044664Y-105557200D03*
X124144664Y-105557200D03*
%TD*%
D24*
%TO.C,R44*%
X109565748Y-83935486D03*
X109565748Y-81935486D03*
%TD*%
D16*
%TO.C,U81*%
X186591500Y-115712500D03*
X186591500Y-116982500D03*
X186591500Y-118252500D03*
X186591500Y-119522500D03*
X191541500Y-119522500D03*
X191541500Y-118252500D03*
X191541500Y-116982500D03*
X191541500Y-115712500D03*
%TD*%
D15*
%TO.C,C43*%
X117037248Y-82173486D03*
X119112248Y-82173486D03*
%TD*%
D14*
%TO.C,C97*%
X165907300Y-129116000D03*
X167982300Y-129116000D03*
%TD*%
D16*
%TO.C,U92*%
X170734500Y-115527000D03*
X170734500Y-116797000D03*
X170734500Y-118067000D03*
X170734500Y-119337000D03*
X175684500Y-119337000D03*
X175684500Y-118067000D03*
X175684500Y-116797000D03*
X175684500Y-115527000D03*
%TD*%
D24*
%TO.C,R54*%
X178068000Y-83963000D03*
X178068000Y-81963000D03*
%TD*%
D16*
%TO.C,U82*%
X186544000Y-105806500D03*
X186544000Y-107076500D03*
X186544000Y-108346500D03*
X186544000Y-109616500D03*
X191494000Y-109616500D03*
X191494000Y-108346500D03*
X191494000Y-107076500D03*
X191494000Y-105806500D03*
%TD*%
D14*
%TO.C,C93*%
X165907300Y-109367200D03*
X167982300Y-109367200D03*
%TD*%
D24*
%TO.C,R40*%
X122011748Y-75553486D03*
X122011748Y-73553486D03*
%TD*%
D29*
%TO.C,C51*%
X185649500Y-79661000D03*
X188774500Y-79661000D03*
%TD*%
D13*
%TO.C,R3*%
X161921500Y-65741000D03*
X163921500Y-65741000D03*
%TD*%
D14*
%TO.C,C73*%
X103970864Y-119332300D03*
X101895864Y-119332300D03*
%TD*%
D16*
%TO.C,U71*%
X111123364Y-115712500D03*
X111123364Y-116982500D03*
X111123364Y-118252500D03*
X111123364Y-119522500D03*
X106173364Y-119522500D03*
X106173364Y-118252500D03*
X106173364Y-116982500D03*
X106173364Y-115712500D03*
%TD*%
D14*
%TO.C,C83*%
X182314000Y-119332300D03*
X184389000Y-119332300D03*
%TD*%
%TO.C,C75*%
X103923364Y-109426300D03*
X101848364Y-109426300D03*
%TD*%
D27*
%TO.C,R92*%
X167986800Y-105557200D03*
X164886800Y-105557200D03*
%TD*%
%TO.C,R66*%
X121044664Y-125306000D03*
X124144664Y-125306000D03*
%TD*%
D26*
%TO.C,R82*%
X186246500Y-121618300D03*
X189346500Y-121618300D03*
%TD*%
D27*
%TO.C,R60*%
X121044664Y-95588000D03*
X124144664Y-95588000D03*
%TD*%
D14*
%TO.C,C94*%
X175813300Y-113368000D03*
X177888300Y-113368000D03*
%TD*%
D16*
%TO.C,U70*%
X111101864Y-95964300D03*
X111101864Y-97234300D03*
X111101864Y-98504300D03*
X111101864Y-99774300D03*
X106151864Y-99774300D03*
X106151864Y-98504300D03*
X106151864Y-97234300D03*
X106151864Y-95964300D03*
%TD*%
D14*
%TO.C,C87*%
X182292500Y-129365300D03*
X184367500Y-129365300D03*
%TD*%
%TO.C,C70*%
X111442364Y-94059300D03*
X109367364Y-94059300D03*
%TD*%
%TO.C,C80*%
X189785500Y-94059300D03*
X191860500Y-94059300D03*
%TD*%
D27*
%TO.C,R93*%
X173574800Y-111907200D03*
X170474800Y-111907200D03*
%TD*%
D16*
%TO.C,U93*%
X170734500Y-125433000D03*
X170734500Y-126703000D03*
X170734500Y-127973000D03*
X170734500Y-129243000D03*
X175684500Y-129243000D03*
X175684500Y-127973000D03*
X175684500Y-126703000D03*
X175684500Y-125433000D03*
%TD*%
D15*
%TO.C,C53*%
X185539500Y-82201000D03*
X187614500Y-82201000D03*
%TD*%
%TO.C,C6*%
X171706000Y-65741000D03*
X169631000Y-65741000D03*
%TD*%
D25*
%TO.C,C45*%
X107279748Y-88290986D03*
X107279748Y-86215986D03*
%TD*%
D15*
%TO.C,C52*%
X180840500Y-82201000D03*
X182915500Y-82201000D03*
%TD*%
D27*
%TO.C,R64*%
X121044664Y-115400000D03*
X124144664Y-115400000D03*
%TD*%
D16*
%TO.C,U73*%
X111101864Y-125745500D03*
X111101864Y-127015500D03*
X111101864Y-128285500D03*
X111101864Y-129555500D03*
X106151864Y-129555500D03*
X106151864Y-128285500D03*
X106151864Y-127015500D03*
X106151864Y-125745500D03*
%TD*%
D14*
%TO.C,C71*%
X103949364Y-99520300D03*
X101874364Y-99520300D03*
%TD*%
D15*
%TO.C,C20*%
X144541750Y-59398250D03*
X142466750Y-59398250D03*
%TD*%
%TO.C,C42*%
X112338248Y-82173486D03*
X114413248Y-82173486D03*
%TD*%
D29*
%TO.C,C50*%
X179680500Y-79661000D03*
X182805500Y-79661000D03*
%TD*%
D16*
%TO.C,U60*%
X131842364Y-95651800D03*
X131842364Y-96921800D03*
X131842364Y-98191800D03*
X131842364Y-99461800D03*
X126892364Y-99461800D03*
X126892364Y-98191800D03*
X126892364Y-96921800D03*
X126892364Y-95651800D03*
%TD*%
%TO.C,U41*%
X118263748Y-84332486D03*
X118263748Y-85602486D03*
X118263748Y-86872486D03*
X118263748Y-88142486D03*
X113313748Y-88142486D03*
X113313748Y-86872486D03*
X113313748Y-85602486D03*
X113313748Y-84332486D03*
%TD*%
D14*
%TO.C,C95*%
X165907300Y-119210000D03*
X167982300Y-119210000D03*
%TD*%
D19*
%TO.C,R52*%
X178068000Y-73581000D03*
X178068000Y-75581000D03*
%TD*%
D25*
%TO.C,C44*%
X124297748Y-88163986D03*
X124297748Y-86088986D03*
%TD*%
D27*
%TO.C,R95*%
X173574800Y-121750000D03*
X170474800Y-121750000D03*
%TD*%
D29*
%TO.C,C41*%
X117147248Y-79633486D03*
X120272248Y-79633486D03*
%TD*%
D24*
%TO.C,R53*%
X190514000Y-83963000D03*
X190514000Y-81963000D03*
%TD*%
D26*
%TO.C,R71*%
X116907864Y-95837300D03*
X113807864Y-95837300D03*
%TD*%
D27*
%TO.C,R63*%
X126632664Y-111907200D03*
X129732664Y-111907200D03*
%TD*%
D14*
%TO.C,C92*%
X175813300Y-103525200D03*
X177888300Y-103525200D03*
%TD*%
D16*
%TO.C,U90*%
X170734500Y-95651800D03*
X170734500Y-96921800D03*
X170734500Y-98191800D03*
X170734500Y-99461800D03*
X175684500Y-99461800D03*
X175684500Y-98191800D03*
X175684500Y-96921800D03*
X175684500Y-95651800D03*
%TD*%
D26*
%TO.C,R77*%
X116907864Y-125428300D03*
X113807864Y-125428300D03*
%TD*%
D24*
%TO.C,R43*%
X122011748Y-83935486D03*
X122011748Y-81935486D03*
%TD*%
D26*
%TO.C,R70*%
X108906864Y-101806300D03*
X105806864Y-101806300D03*
%TD*%
M02*
