%TF.GenerationSoftware,KiCad,Pcbnew,7.0.7*%
%TF.CreationDate,2024-01-11T22:16:13+01:00*%
%TF.ProjectId,NCBalOPHeadAmp,4e434261-6c4f-4504-9865-6164416d702e,rev?*%
%TF.SameCoordinates,Original*%
%TF.FileFunction,Soldermask,Bot*%
%TF.FilePolarity,Negative*%
%FSLAX46Y46*%
G04 Gerber Fmt 4.6, Leading zero omitted, Abs format (unit mm)*
G04 Created by KiCad (PCBNEW 7.0.7) date 2024-01-11 22:16:13*
%MOMM*%
%LPD*%
G01*
G04 APERTURE LIST*
G04 Aperture macros list*
%AMRoundRect*
0 Rectangle with rounded corners*
0 $1 Rounding radius*
0 $2 $3 $4 $5 $6 $7 $8 $9 X,Y pos of 4 corners*
0 Add a 4 corners polygon primitive as box body*
4,1,4,$2,$3,$4,$5,$6,$7,$8,$9,$2,$3,0*
0 Add four circle primitives for the rounded corners*
1,1,$1+$1,$2,$3*
1,1,$1+$1,$4,$5*
1,1,$1+$1,$6,$7*
1,1,$1+$1,$8,$9*
0 Add four rect primitives between the rounded corners*
20,1,$1+$1,$2,$3,$4,$5,0*
20,1,$1+$1,$4,$5,$6,$7,0*
20,1,$1+$1,$6,$7,$8,$9,0*
20,1,$1+$1,$8,$9,$2,$3,0*%
G04 Aperture macros list end*
%ADD10C,3.700000*%
%ADD11R,1.700000X1.700000*%
%ADD12O,1.700000X1.700000*%
%ADD13O,1.100000X1.800000*%
%ADD14O,1.800000X1.100000*%
%ADD15RoundRect,0.250000X-0.600000X-0.725000X0.600000X-0.725000X0.600000X0.725000X-0.600000X0.725000X0*%
%ADD16O,1.700000X1.950000*%
%ADD17O,2.200000X4.000000*%
%ADD18O,4.000000X2.200000*%
%ADD19R,2.200000X4.000000*%
G04 APERTURE END LIST*
D10*
%TO.C,H102*%
X196000000Y-53000000D03*
%TD*%
D11*
%TO.C,J12*%
X158115000Y-79629000D03*
D12*
X158115000Y-77089000D03*
X160655000Y-79629000D03*
X160655000Y-77089000D03*
X163195000Y-79629000D03*
X163195000Y-77089000D03*
X165735000Y-79629000D03*
X165735000Y-77089000D03*
%TD*%
D10*
%TO.C,H103*%
X196000000Y-145000000D03*
%TD*%
D11*
%TO.C,J6*%
X153282800Y-135524000D03*
D12*
X153282800Y-138064000D03*
X153282800Y-140604000D03*
X153282800Y-143144000D03*
X153282800Y-145684000D03*
%TD*%
D10*
%TO.C,H101*%
X104000000Y-53000000D03*
%TD*%
D13*
%TO.C,J7*%
X141883800Y-147124000D03*
X148683800Y-147124000D03*
D14*
X142883800Y-131774000D03*
X147883800Y-131774000D03*
D13*
X141883800Y-139514000D03*
X148683800Y-139514000D03*
X141883800Y-142054000D03*
X148683800Y-142054000D03*
X141883800Y-144594000D03*
X148683800Y-144594000D03*
X149563800Y-134974000D03*
X141013800Y-134974000D03*
%TD*%
D15*
%TO.C,J4*%
X113364000Y-51500000D03*
D16*
X115864000Y-51500000D03*
X118364000Y-51500000D03*
X120864000Y-51500000D03*
X123364000Y-51500000D03*
%TD*%
D11*
%TO.C,J10*%
X134757000Y-79634000D03*
D12*
X134757000Y-77094000D03*
X137297000Y-79634000D03*
X137297000Y-77094000D03*
X139837000Y-79634000D03*
X139837000Y-77094000D03*
X142377000Y-79634000D03*
X142377000Y-77094000D03*
%TD*%
D13*
%TO.C,J1*%
X158086000Y-51250000D03*
X151286000Y-51250000D03*
D14*
X157086000Y-66600000D03*
X152086000Y-66600000D03*
D13*
X158086000Y-58860000D03*
X151286000Y-58860000D03*
X158086000Y-56320000D03*
X151286000Y-56320000D03*
X158086000Y-53780000D03*
X151286000Y-53780000D03*
X150406000Y-63400000D03*
X158956000Y-63400000D03*
%TD*%
D17*
%TO.C,J11*%
X139889500Y-59695000D03*
X137189500Y-58495000D03*
D18*
X134689500Y-51695000D03*
D19*
X130089500Y-55595000D03*
D18*
X130589500Y-62895000D03*
%TD*%
D11*
%TO.C,J2*%
X181229800Y-96901000D03*
D12*
X181229800Y-99441000D03*
X178689800Y-96901000D03*
X178689800Y-99441000D03*
%TD*%
D10*
%TO.C,H104*%
X104000000Y-145000000D03*
%TD*%
D11*
%TO.C,J8*%
X156086000Y-70417000D03*
D12*
X153546000Y-70417000D03*
%TD*%
D11*
%TO.C,J5*%
X122169800Y-96901000D03*
D12*
X122169800Y-99441000D03*
X119629800Y-96901000D03*
X119629800Y-99441000D03*
%TD*%
D11*
%TO.C,J9*%
X144164800Y-127957000D03*
D12*
X146704800Y-127957000D03*
%TD*%
M02*
